<svg width="256" height="367" viewBox="0 0 256 367" fill="none" xmlns="http://www.w3.org/2000/svg">
	<path d="M10.9993 221.933L40.1554 25.6769C41.1954 18.6763 50.1451 16.375 54.4331 22.0057L92.4424 71.9169"
		stroke="#FFC01F" stroke-width="19" />
	<path d="M243.469 213.932L224.006 17.2231C223.359 10.6842 215.542 7.67044 210.673 12.0828L158.442 59.4168"
		stroke="#FF2C1F" stroke-width="19" />
	<path
		d="M28.8616 166.128C26.6359 164.493 23.4976 164.967 21.9513 167.255C9.80417 185.227 2.40767 206.016 0.495693 227.679C-1.56302 251.003 2.81578 274.446 13.1555 295.455C23.4952 316.463 39.3996 334.234 59.1377 346.831C78.8757 359.428 101.691 366.369 125.1 366.9C148.51 367.43 171.616 361.529 191.904 349.839C212.193 338.149 228.886 321.117 240.167 300.598C251.447 280.08 256.883 256.859 255.883 233.465C254.954 211.739 248.507 190.636 237.186 172.132C235.745 169.777 232.632 169.161 230.334 170.693L222.68 175.797C220.383 177.329 219.773 180.428 221.198 182.793C230.579 198.367 235.922 216.068 236.701 234.286C237.551 254.17 232.93 273.908 223.342 291.349C213.753 308.79 199.564 323.266 182.319 333.203C165.074 343.14 145.433 348.156 125.535 347.705C105.637 347.254 86.2444 341.354 69.467 330.646C52.6897 319.938 39.1709 304.834 30.3822 286.976C21.5934 269.119 17.8714 249.193 19.6213 229.367C21.2245 211.204 27.3639 193.762 37.4407 178.63C38.9713 176.331 38.5025 173.208 36.2768 171.573L28.8616 166.128Z"
		fill="#FF701F" />
	<circle cx="190.692" cy="117.167" r="13.25" fill="#FFC01F" />
	<path
		d="M69.511 297.933V178.933H92.801L135.981 249.313L120.851 249.143L164.711 178.933H187.151V297.933H162.161V257.643C162.161 247.329 162.388 238.036 162.841 229.763C163.408 221.489 164.314 213.329 165.561 205.283L168.451 213.273L133.601 267.163H122.211L88.211 213.613L90.931 205.283C92.291 212.876 93.1977 220.696 93.651 228.743C94.2177 236.789 94.501 246.423 94.501 257.643V297.933H69.511Z"
		fill="white" />
	<path
		d="M122.292 33.4411L130.209 38.6928L130.209 38.6928L122.292 33.4411ZM135.615 33.426L127.711 38.6956L135.615 33.426ZM165.038 94.6865C167.948 99.052 173.847 100.232 178.212 97.3213C182.578 94.411 183.757 88.5127 180.847 84.1472L165.038 94.6865ZM35.3588 181.669L130.209 38.6928L114.376 28.1893L19.526 171.165L35.3588 181.669ZM127.711 38.6956L165.038 94.6865L180.847 84.1472L143.52 28.1563L127.711 38.6956ZM130.209 38.6928C129.616 39.586 128.305 39.5874 127.711 38.6956L143.52 28.1563C136.583 17.7519 121.289 17.7691 114.376 28.1893L130.209 38.6928Z"
		fill="#FF701F" />
	<path
		d="M217.019 139.915C214.257 135.455 208.402 134.078 203.941 136.84C199.48 139.602 198.103 145.458 200.866 149.918L217.019 139.915ZM200.866 149.918L220.371 181.418L236.525 171.415L217.019 139.915L200.866 149.918Z"
		fill="#FF701F" />
</svg>