<svg width="344" height="256" viewBox="0 0 344 256" fill="none" xmlns="http://www.w3.org/2000/svg">
	<g clip-path="url(#clip0_835_50)">
		<g filter="url(#filter0_d_835_50)">
			<ellipse cx="261.925" cy="204.218" rx="15.25" ry="15.2469" transform="rotate(90 261.925 204.218)"
				fill="white" fill-opacity="0.65" />
			<ellipse cx="261.925" cy="204.218" rx="15.25" ry="15.2469" transform="rotate(90 261.925 204.218)"
				fill="#F1BC63" />
		</g>
		<g filter="url(#filter1_d_835_50)">
			<path
				d="M203.189 76.5517C201.47 76.5517 200.097 75.1088 200.254 73.3969C201.723 57.4117 207.836 44.255 218.595 33.9267C230.155 22.8249 246.268 17.2739 266.934 17.2739C286.065 17.2739 301.666 22.5193 313.738 33.01C325.913 43.5008 332 56.6906 332 72.5795C332 94.885 321.309 112.454 299.927 125.288C290.311 130.992 283.712 136.39 280.131 141.482C276.653 146.575 274.914 153.195 274.914 161.343V168.274C274.914 169.931 273.571 171.274 271.914 171.274H251.058C249.401 171.274 248.059 169.931 248.059 168.274V157.218C247.956 147.237 250.36 138.579 255.271 131.246C260.284 123.913 268.11 117.089 278.75 110.774C287.753 105.274 294.096 99.7739 297.779 94.2739C301.564 88.7739 303.457 82.0008 303.457 73.9545C303.457 64.3804 299.978 56.5378 293.022 50.4267C286.167 44.2137 277.113 41.1073 265.86 41.1073C254.299 41.1073 244.989 44.2647 237.93 50.5795C231.569 56.354 227.774 64.0874 226.545 73.7797C226.348 75.3377 225.053 76.5517 223.483 76.5517H203.189Z"
				fill="white" fill-opacity="0.65" />
			<path
				d="M203.189 76.5517C201.47 76.5517 200.097 75.1088 200.254 73.3969C201.723 57.4117 207.836 44.255 218.595 33.9267C230.155 22.8249 246.268 17.2739 266.934 17.2739C286.065 17.2739 301.666 22.5193 313.738 33.01C325.913 43.5008 332 56.6906 332 72.5795C332 94.885 321.309 112.454 299.927 125.288C290.311 130.992 283.712 136.39 280.131 141.482C276.653 146.575 274.914 153.195 274.914 161.343V168.274C274.914 169.931 273.571 171.274 271.914 171.274H251.058C249.401 171.274 248.059 169.931 248.059 168.274V157.218C247.956 147.237 250.36 138.579 255.271 131.246C260.284 123.913 268.11 117.089 278.75 110.774C287.753 105.274 294.096 99.7739 297.779 94.2739C301.564 88.7739 303.457 82.0008 303.457 73.9545C303.457 64.3804 299.978 56.5378 293.022 50.4267C286.167 44.2137 277.113 41.1073 265.86 41.1073C254.299 41.1073 244.989 44.2647 237.93 50.5795C231.569 56.354 227.774 64.0874 226.545 73.7797C226.348 75.3377 225.053 76.5517 223.483 76.5517H203.189Z"
				fill="#F1BC63" />
		</g>
		<path fill-rule="evenodd" clip-rule="evenodd"
			d="M277.136 182.358C281.846 184.793 287.673 182.959 289.747 178.08C295.538 164.457 298.893 150.001 299.737 135.367C295.632 138.03 291.407 141.119 286.707 146.04C282.589 150.926 282.676 153.375 282.839 157.976C282.874 158.98 282.914 160.087 282.914 161.344V168.274C282.914 173.793 278.85 178.363 273.552 179.153C274.433 180.47 275.637 181.583 277.136 182.358ZM277.608 102.028C284.382 97.5576 288.709 93.4445 291.135 89.8223L291.163 89.7799L291.192 89.738C291.943 88.7645 292.594 87.8007 293.155 86.8483C288.586 73.388 281.83 60.8518 273.224 49.7162C268.882 48.7679 265.861 49.1074 265.861 49.1074C259.526 49.1074 254.297 50.1834 249.974 52.1639C263.108 65.6783 272.601 82.4738 277.345 100.98C277.434 101.329 277.522 101.678 277.608 102.028ZM198.903 83.6767C200.231 84.2414 201.683 84.5519 203.19 84.5519H223.485C226.521 84.5519 229.183 83.3506 231.136 81.4571V187H206.146V146.71C206.146 136.397 206.373 127.103 206.826 118.83C207.032 115.822 207.283 112.829 207.579 109.851L177.586 156.23H166.196L137.082 110.376C137.311 112.832 137.495 115.31 137.636 117.81C138.203 125.857 138.486 135.49 138.486 146.71V187H113.496V68H136.786L172.417 126.075L198.903 83.6767ZM213.692 27.5194C214.952 26.2935 217.97 23.5238 221.737 21.2302C225.443 18.9738 229.207 17.0665 233.002 15.4915C209.153 2.54934 181.699 -2.52665 154.609 1.18418C123.499 5.44587 95.0404 20.9993 74.6504 44.8845C54.2603 68.7697 43.3618 99.3194 44.0289 130.72C44.696 162.12 56.8822 192.179 78.2683 215.176C99.6544 238.174 128.748 252.504 160.011 255.44C188.079 258.076 216.138 251.362 239.883 236.493C244.375 233.68 245.273 227.638 242.131 223.368C238.989 219.097 232.999 218.223 228.468 220.977C208.549 233.086 185.181 238.519 161.806 236.324C135.232 233.828 110.502 221.648 92.3242 202.1C74.146 182.552 63.7878 157.002 63.2207 130.312C62.6537 103.622 71.9174 77.6543 89.249 57.3519C106.581 37.0494 130.77 23.829 157.214 20.2066C176.482 17.5672 195.967 20.1576 213.692 27.5194Z"
			fill="white" fill-opacity="0.25" />
		<path fill-rule="evenodd" clip-rule="evenodd"
			d="M277.136 182.358C281.846 184.793 287.673 182.959 289.747 178.08C295.538 164.457 298.893 150.001 299.737 135.367C295.632 138.03 291.407 141.119 286.707 146.04C282.589 150.926 282.676 153.375 282.839 157.976C282.874 158.98 282.914 160.087 282.914 161.344V168.274C282.914 173.793 278.85 178.363 273.552 179.153C274.433 180.47 275.637 181.583 277.136 182.358ZM277.608 102.028C284.382 97.5576 288.709 93.4445 291.135 89.8223L291.163 89.7799L291.192 89.738C291.943 88.7645 292.594 87.8007 293.155 86.8483C288.586 73.388 281.83 60.8518 273.224 49.7162C268.882 48.7679 265.861 49.1074 265.861 49.1074C259.526 49.1074 254.297 50.1834 249.974 52.1639C263.108 65.6783 272.601 82.4738 277.345 100.98C277.434 101.329 277.522 101.678 277.608 102.028ZM198.903 83.6767C200.231 84.2414 201.683 84.5519 203.19 84.5519H223.485C226.521 84.5519 229.183 83.3506 231.136 81.4571V187H206.146V146.71C206.146 136.397 206.373 127.103 206.826 118.83C207.032 115.822 207.283 112.829 207.579 109.851L177.586 156.23H166.196L137.082 110.376C137.311 112.832 137.495 115.31 137.636 117.81C138.203 125.857 138.486 135.49 138.486 146.71V187H113.496V68H136.786L172.417 126.075L198.903 83.6767ZM213.692 27.5194C214.952 26.2935 217.97 23.5238 221.737 21.2302C225.443 18.9738 229.207 17.0665 233.002 15.4915C209.153 2.54934 181.699 -2.52665 154.609 1.18418C123.499 5.44587 95.0404 20.9993 74.6504 44.8845C54.2603 68.7697 43.3618 99.3194 44.0289 130.72C44.696 162.12 56.8822 192.179 78.2683 215.176C99.6544 238.174 128.748 252.504 160.011 255.44C188.079 258.076 216.138 251.362 239.883 236.493C244.375 233.68 245.273 227.638 242.131 223.368C238.989 219.097 232.999 218.223 228.468 220.977C208.549 233.086 185.181 238.519 161.806 236.324C135.232 233.828 110.502 221.648 92.3242 202.1C74.146 182.552 63.7878 157.002 63.2207 130.312C62.6537 103.622 71.9174 77.6543 89.249 57.3519C106.581 37.0494 130.77 23.829 157.214 20.2066C176.482 17.5672 195.967 20.1576 213.692 27.5194Z"
			fill="url(#paint0_linear_835_50)" />
	</g>
	<defs>
		<filter id="filter0_d_835_50" x="234.678" y="176.968" width="54.4939" height="54.5" filterUnits="userSpaceOnUse"
			color-interpolation-filters="sRGB">
			<feFlood flood-opacity="0" result="BackgroundImageFix" />
			<feColorMatrix in="SourceAlpha" type="matrix" values="0 0 0 0 0 0 0 0 0 0 0 0 0 0 0 0 0 0 127 0"
				result="hardAlpha" />
			<feOffset />
			<feGaussianBlur stdDeviation="6" />
			<feComposite in2="hardAlpha" operator="out" />
			<feColorMatrix type="matrix" values="0 0 0 0 0.945098 0 0 0 0 0.737255 0 0 0 0 0.388235 0 0 0 1 0" />
			<feBlend mode="normal" in2="BackgroundImageFix" result="effect1_dropShadow_835_50" />
			<feBlend mode="normal" in="SourceGraphic" in2="effect1_dropShadow_835_50" result="shape" />
		</filter>
		<filter id="filter1_d_835_50" x="188.242" y="5.27393" width="155.758" height="178" filterUnits="userSpaceOnUse"
			color-interpolation-filters="sRGB">
			<feFlood flood-opacity="0" result="BackgroundImageFix" />
			<feColorMatrix in="SourceAlpha" type="matrix" values="0 0 0 0 0 0 0 0 0 0 0 0 0 0 0 0 0 0 127 0"
				result="hardAlpha" />
			<feOffset />
			<feGaussianBlur stdDeviation="6" />
			<feComposite in2="hardAlpha" operator="out" />
			<feColorMatrix type="matrix" values="0 0 0 0 0.945098 0 0 0 0 0.737255 0 0 0 0 0.388235 0 0 0 1 0" />
			<feBlend mode="normal" in2="BackgroundImageFix" result="effect1_dropShadow_835_50" />
			<feBlend mode="normal" in="SourceGraphic" in2="effect1_dropShadow_835_50" result="shape" />
		</filter>
		<linearGradient id="paint0_linear_835_50" x1="54.9712" y1="114.5" x2="324.756" y2="112.511"
			gradientUnits="userSpaceOnUse">
			<stop stop-color="white" />
			<stop offset="0.266828" stop-color="white" />
			<stop offset="0.525159" stop-color="white" stop-opacity="0.54" />
			<stop offset="0.671008" stop-color="white" stop-opacity="0.23" />
			<stop offset="0.79435" stop-color="white" stop-opacity="0.32" />
			<stop offset="0.902737" stop-color="white" stop-opacity="0.15" />
			<stop offset="1" stop-color="white" />
		</linearGradient>
		<clipPath id="clip0_835_50">
			<rect width="344" height="256" fill="white" />
		</clipPath>
	</defs>
</svg>