<svg width="259" height="291" viewBox="0 0 259 291" fill="none" xmlns="http://www.w3.org/2000/svg">
	<path fill-rule="evenodd" clip-rule="evenodd"
		d="M132.869 35.0926C115.767 34.4418 98.567 37.2212 82.317 43.4297C52.978 54.6389 28.7842 76.2437 14.3398 104.133C-0.1045 132.021 -3.79106 164.247 3.98172 194.678C11.7545 225.108 30.4441 251.619 56.4936 269.164C82.5432 286.71 114.134 294.066 145.255 289.832C176.376 285.598 204.854 270.07 225.269 246.203C245.685 222.336 256.613 191.796 255.973 160.395C255.636 143.807 252.082 127.59 245.655 112.588L235.374 122.869C233.902 124.341 232.117 125.309 230.233 125.772C234.29 136.914 236.532 148.735 236.777 160.786C237.321 187.477 228.032 213.435 210.679 233.722C193.326 254.009 169.119 267.208 142.667 270.807C116.214 274.406 89.3617 268.153 67.2196 253.24C45.0774 238.326 29.1913 215.792 22.5845 189.926C15.9776 164.06 19.1112 136.668 31.3888 112.963C43.6665 89.2571 64.2313 70.8931 89.1694 61.3652C110.093 53.3713 132.869 52.0656 154.399 57.4511L134.965 38.0163C134.086 37.1381 133.388 36.1483 132.869 35.0926ZM151.653 123.903L128.432 161.075L92.801 103H69.511V222H94.501V181.71C94.501 170.49 94.2176 160.857 93.651 152.81C93.5101 150.31 93.3255 147.832 93.0972 145.376L122.211 191.23H133.601L163.594 144.851C163.298 147.829 163.047 150.822 162.841 153.83C162.388 162.103 162.161 171.397 162.161 181.71V222H187.151V103H185.886L166.017 122.869C162.099 126.787 155.961 127.132 151.653 123.903ZM174.572 103L160.36 117.212C159.188 118.384 157.289 118.384 156.117 117.212L155.942 117.037L164.711 103H174.572ZM227.079 118.046C228.008 118.208 228.999 117.93 229.717 117.212L242.046 104.883C238.147 97.2322 233.47 89.9575 228.065 83.1816C224.759 79.0369 218.653 78.8322 214.767 82.4397C210.882 86.0472 210.695 92.0978 213.946 96.2859C219.183 103.032 223.582 110.34 227.079 118.046ZM165.632 57.3703L144.304 36.0424C151.064 36.9104 157.77 38.3203 164.358 40.2722C169.442 41.7783 171.926 47.3599 170.044 52.3163C169.193 54.5553 167.597 56.2822 165.632 57.3703Z"
		fill="url(#paint0_radial_1127_12)" />
	<g filter="url(#filter0_d_1127_12)">
		<path fill-rule="evenodd" clip-rule="evenodd"
			d="M245.213 32.3599C246.384 31.1883 246.384 29.2888 245.213 28.1173L230.717 13.6216C229.545 12.45 227.646 12.45 226.474 13.6216L192.917 47.1788L159.36 13.6216C158.188 12.45 156.289 12.45 155.117 13.6216L140.621 28.1173C139.45 29.2889 139.45 31.1884 140.621 32.3599L174.179 65.9172L141.621 98.4744C140.45 99.6459 140.45 101.545 141.621 102.717L156.117 117.213C157.289 118.384 159.188 118.384 160.36 117.213L192.917 84.6555L225.474 117.213C226.646 118.384 228.545 118.384 229.717 117.213L244.213 102.717C245.384 101.545 245.384 99.646 244.213 98.4744L211.655 65.9172L245.213 32.3599Z"
			fill="#D51F30" />
	</g>
	<defs>
		<filter id="filter0_d_1127_12" x="127.743" y="0.742889" width="130.349" height="129.349"
			filterUnits="userSpaceOnUse" color-interpolation-filters="sRGB">
			<feFlood flood-opacity="0" result="BackgroundImageFix" />
			<feColorMatrix in="SourceAlpha" type="matrix" values="0 0 0 0 0 0 0 0 0 0 0 0 0 0 0 0 0 0 127 0"
				result="hardAlpha" />
			<feOffset />
			<feGaussianBlur stdDeviation="6" />
			<feComposite in2="hardAlpha" operator="out" />
			<feColorMatrix type="matrix" values="0 0 0 0 0.835294 0 0 0 0 0.121569 0 0 0 0 0.188235 0 0 0 1 0" />
			<feBlend mode="normal" in2="BackgroundImageFix" result="effect1_dropShadow_1127_12" />
			<feBlend mode="normal" in="SourceGraphic" in2="effect1_dropShadow_1127_12" result="shape" />
		</filter>
		<radialGradient id="paint0_radial_1127_12" cx="0" cy="0" r="1" gradientUnits="userSpaceOnUse"
			gradientTransform="translate(193 65) rotate(-156.873) scale(104.389 106.563)">
			<stop stop-color="#D9D9D9" stop-opacity="0" />
			<stop offset="1" stop-color="#D9D9D9" />
		</radialGradient>
	</defs>
</svg>