<svg width="256" height="256" viewBox="0 0 256 256" fill="none" xmlns="http://www.w3.org/2000/svg">
<path d="M131 234.955V131.583L148.418 121.371L180.71 163.574L169.395 170.061L202.196 89.8396L218.978 80V183.372L200.289 194.33V159.331C200.289 150.372 200.459 142.2 200.798 134.814C201.222 127.379 201.9 119.893 202.832 112.356L204.993 118.03L178.93 180.124L170.412 185.118L144.985 153.509L147.019 145.08C148.036 151.08 148.714 157.476 149.053 164.267C149.477 171.008 149.689 179.252 149.689 188.999V223.997L131 234.955Z" fill="white"/>
<path d="M125.999 21L215 72L192.201 85.3796L125.998 48L55.9962 88.0858V169.928L122.01 208V235L33 183V75L125.999 21Z" fill="url(#paint0_radial_1568_52)"/>
<circle cx="231.998" cy="67.708" r="9" fill="white"/>
<path d="M124.319 1.18164C125.436 0.939563 126.592 0.939595 127.709 1.18164C128.656 1.38689 129.559 1.83161 130.951 2.63184L132.525 3.55469L220.272 55.3984C218.334 57.2451 216.833 59.5451 215.936 62.1279L128.456 10.4424C127.191 9.69495 126.541 9.31518 126.056 9.06641C126.041 9.05906 126.027 9.05352 126.014 9.04688C126.001 9.05328 125.987 9.05935 125.974 9.06641C125.488 9.31516 124.838 9.69504 123.573 10.4424L26.3584 67.8799C25.1338 68.6034 24.5102 68.9754 24.0732 69.2695C24.0605 69.2781 24.0487 69.287 24.0371 69.2949C24.0362 69.3086 24.0351 69.3229 24.0342 69.3379C24.0032 69.8638 24 70.5903 24 72.0127V184.817L24.0059 186.51C24.0106 186.94 24.0193 187.256 24.0352 187.522C24.0361 187.538 24.0372 187.553 24.0381 187.567C24.0498 187.575 24.0624 187.583 24.0752 187.592C24.5203 187.885 25.155 188.256 26.4004 188.975L123.615 245.086C124.86 245.805 125.498 246.169 125.975 246.407C125.988 246.414 126.002 246.42 126.015 246.427C126.027 246.421 126.041 246.414 126.055 246.407C126.531 246.169 127.169 245.804 128.414 245.086L225.629 188.975C226.874 188.256 227.509 187.885 227.954 187.592C227.967 187.583 227.979 187.575 227.99 187.567C227.991 187.553 227.993 187.538 227.994 187.522C228.026 186.99 228.029 186.255 228.029 184.817V84.2402C229.303 84.5447 230.631 84.708 231.998 84.708C233.387 84.708 234.737 84.5399 236.029 84.2256V184.817C236.029 187.509 236.029 188.856 235.638 190.061C235.291 191.127 234.724 192.109 233.974 192.942C233.126 193.884 231.96 194.557 229.628 195.902L132.413 252.015C130.082 253.36 128.917 254.033 127.678 254.296C126.581 254.529 125.448 254.529 124.352 254.296L124.12 254.242C122.962 253.946 121.802 253.276 119.616 252.015L22.4014 195.902L20.8574 195.005C19.5062 194.204 18.6916 193.648 18.0557 192.942L17.7822 192.623C17.1664 191.862 16.6948 190.994 16.3916 190.061L16.3223 189.833C15.9996 188.682 16 187.341 16 184.817V72.0127C16 69.3502 15.9997 68.0187 16.3838 66.8242C16.7237 65.7673 17.2805 64.7922 18.0176 63.9619L18.1777 63.7891C18.9984 62.9367 20.1401 62.2618 22.2891 60.9922L119.503 3.55469L121.078 2.63184C122.47 1.83181 123.373 1.38691 124.319 1.18164Z" fill="white"/>
<defs>
<radialGradient id="paint0_radial_1568_52" cx="0" cy="0" r="1" gradientUnits="userSpaceOnUse" gradientTransform="translate(126 128.292) rotate(90) scale(109 111.007)">
<stop offset="0.580645" stop-color="#2400B3"/>
<stop offset="1" stop-color="#8650F1"/>
</radialGradient>
</defs>
</svg>
