<svg width="325" height="326" viewBox="0 0 325 326" fill="none" xmlns="http://www.w3.org/2000/svg">
	<path d="M92.4277 49.4033V36.9033L97.6196 21.5874L99.9277 8.40332" stroke="white" stroke-width="9"
		stroke-linecap="round" stroke-linejoin="round" />
	<path
		d="M158.929 109.504L153.424 119.811L150.964 132.46L149.325 149.676L154.127 163.613L166.441 179.73L181.805 190.113L200.014 201.731L229.32 212.483L258.732 216.5L284.232 214L301.616 202.446L312.732 184.5L316.232 168.5L314.599 146.027"
		stroke="white" stroke-width="8" stroke-linecap="round" stroke-linejoin="round" />
	<path
		d="M145.205 128.688L159.559 76.3923M159.559 76.3923L151.205 127.688L158.613 103.946M159.559 76.3923L147.466 94.0332L148.019 106.828M225.261 31.076L228.113 78.9462L227.113 91.9462L231.113 91.4462L229.066 17.7163M229.066 17.7163L235.613 93.4462H238.113L243.113 83.9462L237.872 34.4229L235.371 20.8028L242.492 38.8792M229.066 17.7163L221.617 25.5576L218.588 39.1465L223.472 91.7747L215.527 88.2786L206.91 45.7799L201.854 10.8505L210.156 35.6688L217.251 80.0199L208.289 59.5678L211.276 81.6285L204.419 89.8341L198.285 21.2237L202.83 93.0707L199.623 95.5128L192.053 31.0441L196.584 95.4109L191.299 93.5887L187.01 40.7451L186.838 94.1794L179.974 36.405L172.602 31.5315L176.997 44.8426M258.009 42.9518L252.429 37.062L244.719 36.1611M258.009 42.9518L259.19 28.1415L266.068 42.592L256.265 88.6182L270.129 44.2827M258.009 42.9518L248.968 92.2443L246.917 92.0371L247.724 53.1948L244.59 24.2434L251.696 46.8172L249.841 67.6603L247.298 40.888M270.129 44.2827L266.434 68.6927L264.945 90.9335L267.292 96.6555L275.015 43.5728M270.129 44.2827L277.458 34.5198L275.015 43.5728M275.015 43.5728L276.865 50.4609L273.653 95.2261L281.46 54.6824L275.522 108.091L277.006 107.875L271.254 17.9742L284.54 103.003L287.276 99.7529L289.161 104.594L285.287 43.458L290.869 72.5373L294.213 110.689L295.842 58.8784L299.755 115.23L306.163 89.8783L303.144 55.065L306.806 116.059L309.809 132.915C309.809 132.915 305.086 89.2036 308.501 69.9755L316.019 148.141L314.297 97.2368L320.381 141.113M176.997 44.8426L176.112 73.1014L175.095 108.343M176.997 44.8426L180.102 89.0188L178.47 103.357L175.095 108.343M160.931 60.5263L163.38 92.2415L166.662 117.025L169.308 81.0297M175.095 108.343L172.223 105.697L169.308 81.0297M169.308 81.0297L170.357 53.2368M134.919 120.848L138.919 125.348L142.919 126.848L145.419 123.848L149.919 117.348L147.419 100.848H143.419L140.141 107.673L134.703 109.321L134.919 120.848Z"
		stroke="white" stroke-width="8" stroke-linecap="round" stroke-linejoin="round" />
	<path d="M204.872 126.316L210.3 129.707L217.761 131.702" stroke="white" stroke-width="8" stroke-linecap="round"
		stroke-linejoin="round" />
	<path
		d="M170.313 146.396L172.036 158.254M208.031 148.072L211.116 160.446M239.116 188.446L229.116 189.946L218.616 192.446L213.819 195.535"
		stroke="white" stroke-width="8" stroke-linecap="round" stroke-linejoin="round" />
	<path
		d="M260.732 255L260.232 264.5L262.232 283L264.732 304.5L262.732 318.5M277.732 218L279.349 242.054L280.349 254.054L281.849 263.554L283.349 277.054L287.849 299.054L289.349 313.054L290.849 321.554M202.116 205.446L206.116 214.446M206.116 214.446L206.024 236.326M206.116 214.446L206.616 204.946M206.024 236.326L206.732 255L209.732 271.5V286.5L210.232 304.5L208.732 318M206.024 236.326L181.335 233.776L154.211 226.227L132.401 221.753L116.531 219.452M108.122 228.441L112.907 224.381L116.531 219.452M116.531 219.452L108.267 212.203"
		stroke="white" stroke-width="8" stroke-linecap="round" stroke-linejoin="round" />
	<path
		d="M31.2324 251.545V278H105.232L105.232 251.545M31.2324 251.545H105.232M31.2324 251.545V225.368M105.232 251.545V225.368M31.2324 225.368V143L105.232 143.006L105.232 225.368M31.2324 225.368H105.232"
		stroke="white" stroke-width="7" />
	<path
		d="M29.1162 261.446H13.6162L6.11621 268.946L3.61621 279.446L4.61621 291.946L6.11621 301.446L6.73242 309.5L6.23242 317.5"
		stroke="white" stroke-width="6" stroke-linecap="round" stroke-linejoin="round" />
	<path
		d="M86.1162 300.946L85.6131 307.948L85.9053 318.614M60.4823 296.259L59.1673 305.61L59.3134 312.039L59.1162 318.446M38.5658 281.795L39.6162 284.946M99.6162 279.446L95.6946 291.876L88.1162 299.946L84.1162 300.946L69.8333 298.889L63.6162 296.946L57.414 295.967L49.1162 294.946L44.1162 291.946L39.6162 284.946M39.6162 284.946L43.2413 281.795"
		stroke="white" stroke-width="5" stroke-linecap="round" stroke-linejoin="round" />
	<path
		d="M54.0908 163.163L56.0908 160.163H59.0908L60.5908 166.163L59.0908 172.163H55.0908L53.5908 168.663L54.0908 163.163Z"
		stroke="white" stroke-width="5" stroke-linecap="round" stroke-linejoin="round" />
	<path
		d="M48.0908 207.163L47.5908 202.663L47.0908 196.663V191.663L47.5908 188.663L48.5908 185.163L51.0908 181.663L55.5908 180.163L60.5908 181.163L65.0908 183.663L67.0908 187.163L66.0908 190.663L62.0908 191.663L62.5908 196.663L67.0908 199.663H69.0908V205.163H63.5908L60.0908 203.163L55.5908 202.163L52.0908 203.163L49.0908 207.163H48.0908ZM48.0908 207.163L50.5908 201.163"
		stroke="white" stroke-width="5" stroke-linecap="round" stroke-linejoin="round" />
	<path d="M58.792 74.6396V71.6396H62.292V80.1396L61.292 79.6396" stroke="white" stroke-width="8"
		stroke-linecap="round" stroke-linejoin="round" />
	<path d="M113.792 65.1396V67.1396" stroke="white" stroke-width="8" stroke-linecap="round" stroke-linejoin="round" />
	<path d="M85.292 63.1396L90.292 68.1396L85.792 70.1396L84.792 67.1396" stroke="white" stroke-width="8"
		stroke-linecap="round" stroke-linejoin="round" />
	<path d="M64.792 47.1396L68.792 31.6396L69.6439 19.9701L72.292 8.13965" stroke="white" stroke-width="8"
		stroke-linecap="round" stroke-linejoin="round" />
	<path d="M123.792 4.63965V8.63965L122.792 31.6396L119.292 32.1396L118.292 45.1396" stroke="white" stroke-width="8"
		stroke-linecap="round" stroke-linejoin="round" />
	<path d="M88.0454 266.893L94.4743 266.163" stroke="white" stroke-width="5" stroke-linecap="round"
		stroke-linejoin="round" />
	<path d="M73.5562 266.754H76.0562" stroke="white" stroke-width="5" stroke-linecap="round" stroke-linejoin="round" />
</svg>