<svg width="349" height="380" viewBox="0 0 349 380" fill="none" xmlns="http://www.w3.org/2000/svg">
	<path
		d="M178.956 238.684C177.073 243.64 179.558 249.222 184.642 250.728C211.507 258.688 240.343 257.634 266.683 247.57C296.022 236.361 320.216 214.756 334.66 186.867C349.104 158.979 352.791 126.753 345.018 96.3223C337.245 65.8919 318.556 39.3813 292.506 21.8358C266.457 4.29026 234.866 -3.0655 203.745 1.16838C172.624 5.40228 144.146 20.9302 123.731 44.7972C103.315 68.6642 92.3873 99.2041 93.0265 130.605C93.6004 158.796 103.461 185.914 120.935 207.818C124.241 211.963 130.347 212.168 134.233 208.56C138.118 204.953 138.305 198.902 135.054 194.714C120.757 176.297 112.7 153.693 112.223 130.214C111.679 103.524 120.968 77.5646 138.321 57.2776C155.674 36.9907 179.881 23.7919 206.333 20.1931C232.786 16.5943 259.638 22.8467 281.78 37.7604C303.923 52.6741 319.809 75.2081 326.416 101.074C333.022 126.94 329.889 154.332 317.611 178.037C305.333 201.743 284.769 220.107 259.831 229.635C237.893 238.016 213.919 239.045 191.479 232.719C186.376 231.28 180.839 233.727 178.956 238.684Z"
		fill="black" fill-opacity="0.75" />
	<circle cx="155.75" cy="225.75" r="13.25" transform="rotate(-180 155.75 225.75)" fill="black" fill-opacity="0.75" />
	<path
		d="M170.044 141.316C171.927 136.36 169.442 130.778 164.358 129.272C137.493 121.312 108.657 122.366 82.317 132.43C52.978 143.639 28.7842 165.244 14.3399 193.133C-0.104442 221.021 -3.79101 253.247 3.98178 283.678C11.7546 314.108 30.4441 340.619 56.4937 358.164C82.5432 375.71 114.134 383.066 145.255 378.832C176.376 374.598 204.854 359.07 225.269 335.203C245.685 311.336 256.613 280.796 255.973 249.395C255.4 221.204 245.539 194.086 228.065 172.182C224.759 168.037 218.653 167.832 214.768 171.44C210.882 175.047 210.695 181.098 213.946 185.286C228.243 203.703 236.3 226.307 236.777 249.786C237.321 276.477 228.032 302.435 210.679 322.722C193.326 343.009 169.119 356.208 142.667 359.807C116.214 363.406 89.3617 357.153 67.2196 342.24C45.0775 327.326 29.1914 304.792 22.5845 278.926C15.9776 253.06 19.1112 225.668 31.3889 201.963C43.6666 178.257 64.2313 159.893 89.1695 150.365C111.107 141.984 135.081 140.955 157.521 147.282C162.624 148.72 168.161 146.273 170.044 141.316Z"
		fill="black" />
	<circle cx="193.25" cy="154.25" r="13.25" fill="black" />
	<path fill-rule="evenodd" clip-rule="evenodd"
		d="M85.1936 191.775H70V310.775H94.99V270.485C94.99 259.265 94.7067 249.632 94.14 241.585C93.9992 239.085 93.8146 236.607 93.5862 234.151L122.7 280.005H134.09L147.728 258.917C141.669 255.518 135.87 251.712 130.368 247.534L128.921 249.85L124.75 243.052C108.109 229.116 94.537 211.637 85.1936 191.775ZM187.64 274.277C179.008 272.317 170.659 269.612 162.663 266.233C162.654 267.631 162.65 269.048 162.65 270.485V310.775H187.64V274.277Z"
		fill="black" />
	<path fill-rule="evenodd" clip-rule="evenodd"
		d="M162 105.87C170.233 107.778 178.206 110.363 185.857 113.565C185.775 112.498 185.685 111.435 185.586 110.376L188.267 114.598C198.674 119.17 208.463 124.888 217.473 131.595C220.364 133.747 223.176 136.001 225.902 138.351C228.43 140.532 230.886 142.795 233.263 145.137L256.083 109.851C255.787 112.829 255.536 115.822 255.33 118.83C254.877 127.103 254.65 136.397 254.65 146.71V171.592C257.797 176.539 260.663 181.682 263.223 187H279.64V68.0001H257.2L220.921 126.075L185.29 68.0001H162V105.87Z"
		fill="black" fill-opacity="0.75" />
</svg>