<svg width="256" height="256" viewBox="0 0 256 256" fill="none" xmlns="http://www.w3.org/2000/svg">
	<path
		d="M170.044 17.3163C171.927 12.3599 169.442 6.77835 164.358 5.2722C137.493 -2.6876 108.657 -1.63368 82.317 8.42966C52.978 19.6389 28.7842 41.2437 14.3399 69.1325C-0.104442 97.0213 -3.79101 129.247 3.98178 159.678C11.7546 190.108 30.4441 216.619 56.4937 234.164C82.5432 251.71 114.134 259.066 145.255 254.832C176.376 250.598 204.854 235.07 225.269 211.203C245.685 187.336 256.613 156.796 255.973 125.395C255.4 97.2042 245.539 70.0861 228.065 48.1816C224.759 44.0369 218.653 43.8322 214.767 47.4397V47.4397C210.882 51.0472 210.695 57.0978 213.946 61.2859C228.243 79.703 236.3 102.307 236.777 125.786C237.321 152.477 228.032 178.435 210.679 198.722C193.326 219.009 169.119 232.208 142.667 235.807C116.214 239.406 89.3617 233.153 67.2196 218.24C45.0775 203.326 29.1914 180.792 22.5845 154.926C15.9776 129.06 19.1112 101.668 31.3889 77.9626C43.6666 54.2571 64.2313 35.8931 89.1695 26.3652C111.107 17.9838 135.081 16.9548 157.521 23.2815C162.624 24.7202 168.161 22.2727 170.044 17.3163V17.3163Z"
		fill="black" fill-opacity="0.85" />
	<circle cx="193.25" cy="30.2502" r="13.25" fill="black" fill-opacity="0.85" />
</svg>