<svg width="257" height="257" viewBox="0 0 257 257" fill="none" xmlns="http://www.w3.org/2000/svg">
	<circle cx="212.378" cy="44.4756" r="13.25" fill="#D51F30" />
	<path
		d="M70.511 188V69H93.801L136.981 139.38L121.851 139.21L165.711 69H188.151V188H163.161V147.71C163.161 137.397 163.388 128.103 163.841 119.83C164.408 111.557 165.314 103.397 166.561 95.35L169.451 103.34L134.601 157.23H123.211L89.211 103.68L91.931 95.35C93.291 102.943 94.1977 110.763 94.651 118.81C95.2177 126.857 95.501 136.49 95.501 147.71V188H70.511Z"
		fill="black" />
	<path
		d="M196.115 28.8586C200.02 24.9534 200.02 18.6217 196.115 14.7165L184.888 3.48959C183.012 1.61422 180.469 0.560654 177.817 0.560654H80.0623C77.4101 0.560654 74.8665 1.61423 72.9912 3.48959L3.86839 72.6124C1.99302 74.4878 0.939453 77.0313 0.939453 79.6835L0.939461 177.438C0.939461 180.09 1.99303 182.634 3.8684 184.509L72.9912 253.632C74.8666 255.507 77.4101 256.561 80.0623 256.561H177.817C180.469 256.561 183.012 255.507 184.888 253.632L254.011 184.509C255.886 182.634 256.939 180.09 256.939 177.438V79.6835C256.939 77.0313 255.886 74.4878 254.011 72.6124L242.784 61.3855C238.878 57.4803 232.547 57.4803 228.642 61.3855C224.736 65.2907 224.736 71.6224 228.642 75.5276L234.011 80.8967C235.886 82.772 236.939 85.3156 236.939 87.9677L236.939 169.154C236.939 171.806 235.886 174.349 234.011 176.225L176.604 233.632C174.728 235.507 172.185 236.56 169.533 236.56L88.3466 236.561C85.6944 236.561 83.1509 235.507 81.2755 233.632L23.8684 176.225C21.9931 174.349 20.9395 171.806 20.9395 169.154L20.9396 87.9675C20.9396 85.3154 21.9932 82.7718 23.8686 80.8965L81.2755 23.4896C83.1508 21.6142 85.6944 20.5606 88.3465 20.5606L169.532 20.5607C172.185 20.5607 174.728 21.6142 176.603 23.4896L181.972 28.8586C185.878 32.7638 192.209 32.7638 196.115 28.8586Z"
		fill="#D51F30" />
</svg>