<svg width="278" height="492" viewBox="0 0 278 492" fill="none" xmlns="http://www.w3.org/2000/svg">
	<path
		d="M65.2188 103.578L64.2178 59.5443L68.7217 51.3713L80.7309 56.8756L96.076 66.0493M217 69.0838L233.528 66.3793L255.383 62.8587L256.968 85.3112L257.268 106.647L257.869 123.475"
		stroke="white" stroke-width="8" stroke-linecap="round" stroke-linejoin="round" />
	<path
		d="M237.84 231.765L221.022 240.96L210.195 246.659L194.717 252.643L173.252 255.18H146.324L127.982 254.009L114.128 251.668L92.6419 241.856L77.7503 229.995L68.2727 211.666L61.0766 188.986L59.473 165.894M59.473 165.894L62.0676 146.178L76.0368 118.502L66.5974 117.056L52.8425 141.641L50.9736 152.905L53.3788 187.863L62.5194 208.55M59.473 165.894L54.9824 150.178L68.4527 122.436"
		stroke="white" stroke-width="8" stroke-linecap="round" stroke-linejoin="round" />
	<path d="M45.04 152.263L48.1854 190.487L55.1427 204.22L68.3194 225.629L87.9012 238.447L114.07 251.442"
		stroke="white" stroke-width="8" stroke-linecap="round" stroke-linejoin="round" />
	<path
		d="M104.602 307.463L102.103 335.697L103.102 356.686L109.214 384.111M109.214 384.111L106.158 385.663L105.953 418.928L104.105 445.417L104.31 462.05M109.214 384.111L123.407 379.503L152.565 370.878L197.124 369.03M197.124 369.03L195.935 356.222L188.906 323.666L183.356 296.66M197.124 369.03L198.374 388.628L206.141 396.256L219.593 399.862M197.124 369.03L203.357 364.264L212.975 359.539H224.619L237.9 363.388M197.124 369.03L205.294 371.46M183.356 296.66L182.34 281.35M183.356 296.66L179.465 302.911L173.715 306.812L163.654 307.428L159.958 307.223M219.593 399.862L222.257 419.108L229.229 444.061L232.876 459.676L237.799 478.875M219.593 399.862L232.888 398.183L236.221 391.435L237.108 377.09L237.9 363.388M237.9 363.388L234.499 341.111L232.28 324.703L229.282 304.964L226.034 282.727L223.285 260.989L221.286 242.249"
		stroke="white" stroke-width="8" stroke-linecap="round" stroke-linejoin="round" />
	<path
		d="M113.084 461.576L89.7847 461.437L82.9895 466.985L82.4346 485.152L86.4561 487.926L115.917 486.306L162.34 484.646M162.34 484.646L157.06 476.766L155.985 472.781L156.219 460.408L168.645 458.903L173.382 458.992M162.34 484.646L180.102 483.347L194.29 479.556H210.644L236.096 479.123M193.937 463.656L182.517 459.276L173.382 458.992M173.382 458.992L171.47 443.824L167.864 432.313L164.952 418.584L162.871 406.241L161.995 395.16"
		stroke="white" stroke-width="8" stroke-linecap="round" stroke-linejoin="round" />
	<path
		d="M19.86 167.194L18.1719 171.999L18.3479 210.841L25.6968 227.088L34.3537 242.179L47.339 256.101L60.1895 267.544L71.4733 275.277L90.3778 278.985L100.97 280.299"
		stroke="white" stroke-width="8" stroke-linecap="round" stroke-linejoin="round" />
	<path
		d="M4.90778 147.849L16.0268 132.836L26.755 127.327L37.7737 127.327L43.8975 135.195L43.6909 151.309L36.0339 162.413L20.3757 165.022L7.61716 162.703L4.61914 155.348L4.90778 147.849Z"
		stroke="white" stroke-width="8" stroke-linejoin="round" />
	<path d="M111.281 269.359L100.924 280.731L98.2236 293.387L99.6406 302.848L120.156 305.695" stroke="white"
		stroke-width="8" stroke-linecap="round" stroke-linejoin="round" />
	<path
		d="M100.12 161.402V173.483M173.921 157.397L174.624 171.79M170.109 129.558L174.272 127.382L180.065 127.558L182.195 129.778L179.538 128.786"
		stroke="white" stroke-width="8" stroke-linecap="round" stroke-linejoin="round" />
	<path
		d="M161.438 205.098L179.056 205.296M179.056 205.296L194.695 198.763L197.971 191.492L203.405 202.524L206.968 215.59L204.197 220.143L190.142 221.33L182.619 215.392M179.056 205.296L182.619 215.392M182.619 215.392L176.485 210.267L175.8 207.713L199.248 203.514L185.985 214.006L201.064 205.624"
		stroke="white" stroke-width="8" stroke-linecap="round" stroke-linejoin="round" />
	<path
		d="M225.466 249.687L229.413 263.841L232.264 244.148L231.761 238.525L234.417 267.109L237.132 234.863L244.308 265.222L243.924 229.756L252.914 257.544M252.914 257.544L258.635 264.899M252.914 257.544L259.439 248.931M252.914 257.544L256.148 210.32L260.837 213.296L267.266 214.057M259.439 248.931L265.189 247.104M259.439 248.931L260.276 225.489M265.189 247.104L272.408 258.939M265.189 247.104L267.266 214.057M267.266 214.057L273.535 240.699L272.9 215.501M267.266 214.057L265.755 211.382L266.443 206.311L270.032 204.875L267.64 201.765L269.147 178.01L261.22 208.395L268.545 140.697L254.505 205.997L266.147 129.429L262.239 133.409L249.132 230.177L256.968 125.175L241.072 226.147L250.923 108.384L235.699 210.699L245.561 99.7729L233.601 205.835L229.006 193.886L230.231 185.716L227.474 188.269L223.368 181.79L225.047 163.746M225.047 163.746L230.434 171.18L239.114 86.7388L225.047 163.746ZM225.047 163.746L232.091 76.7054M225.047 163.746L217.772 161.002L224.581 75.0194L214.496 159.261L217.778 62.8043L208.183 146.131L212.224 52.9566L201.619 151.433L200.011 136.913L204.901 47.4014L195.558 122.143L196.064 48.4114L189.499 122.648L190.508 45.6339L182.428 36.2912L183.046 44.7835L186.968 49.5585L183.046 57.7444L183.284 110.754L175.889 52.2794L177.036 110.375L167.53 48.9164L169.937 110.28L160.85 45.8191M160.85 45.8191L163.995 34.2711L164.752 17.3534L157.935 11.0408L154.147 4.98066L147.496 4.35352M160.85 45.8191L163.216 110.943L153.369 44.6706M153.369 44.6706L149.842 32.0123L142.786 24.5419L133.448 22.8818L125.77 25.9945M153.369 44.6706C154.338 66.5978 156.357 110.66 156.689 111.49C157.021 112.32 149.634 69.503 145.899 47.9908L152.047 114.361L146.403 108.717L139.466 48.8209L141.249 103.732L132.825 48.8209L134.839 108.934L126.6 46.9533L128.797 113.452L124.552 116.751L120.582 45.9157M120.582 45.9157L111.965 45.3941M120.582 45.9157L117.56 109.247L112.955 55.8685L114.349 111.088L108.149 112.926L106.305 58.4266L103.746 105.495L99.995 63.5427L98.8008 105.495L92.4911 66.9535L92.7213 113.288L85.3283 75.3099L86.7119 115.27L79.1892 82.1314L82.0879 113.34L73.3905 88.4413L75.6076 113.169L68.445 93.2164L70.155 112.633M70.155 112.633L60.48 107.45L52.8779 113.324L61.7051 111.193L70.155 112.633Z"
		stroke="white" stroke-width="8" stroke-linecap="round" stroke-linejoin="round" />
</svg>