<svg width="512" height="512" viewBox="0 0 512 512" fill="none" xmlns="http://www.w3.org/2000/svg">
	<g clip-path="url(#clip0_1068_36)">
		<path
			d="M316.294 31.3119C319.588 19.0208 312.301 6.27763 299.764 4.1021C248.344 -4.82049 195.218 2.1617 147.607 24.4137C93.0127 49.9296 49.1696 93.8876 23.7967 148.549C-1.57618 203.21 -6.85227 265.07 8.8973 323.239C24.6469 381.407 60.4124 432.155 109.897 466.548C159.382 500.941 219.414 516.774 279.424 511.26C339.435 505.746 395.576 479.238 437.965 436.403C480.353 393.568 506.272 337.152 511.157 277.088C515.418 224.706 503.444 172.478 477.158 127.394C470.748 116.401 456.264 114.014 445.892 121.385V121.385C435.52 128.756 433.212 143.089 439.402 154.206C459.525 190.341 468.61 231.788 465.229 273.352C461.223 322.605 439.97 368.866 405.211 403.991C370.452 439.115 324.416 460.852 275.208 465.373C226 469.895 176.773 456.912 136.196 428.71C95.6181 400.507 66.2904 358.894 53.3758 311.196C40.4611 263.498 44.7875 212.772 65.5933 167.95C86.3991 123.128 122.35 87.0824 167.118 66.1593C204.897 48.5025 246.911 42.5705 287.794 48.8352C300.372 50.7626 313.001 43.603 316.294 31.3119V31.3119Z"
			fill="white" />
		<path
			d="M138.927 373V138.5H189.847L275.272 277.525L238.757 277.19L325.187 138.5H374.097V373H318.822V299.97C318.822 279.87 319.268 261.78 320.162 245.7C321.278 229.62 323.065 213.652 325.522 197.795L331.887 215.215L266.897 316.05H244.787L181.137 215.885L187.502 197.795C189.958 212.758 191.633 228.168 192.527 244.025C193.643 259.658 194.202 278.307 194.202 299.97V373H138.927Z"
			fill="white" />
		<circle cx="383" cy="68" r="40" fill="white" />
	</g>
	<defs>
		<clipPath id="clip0_1068_36">
			<rect width="512" height="512" fill="white" transform="translate(0 0.333984)" />
		</clipPath>
	</defs>
</svg>