<!-- Thanks, Alonso! -->
<svg width="335" height="323" viewBox="0 0 335 323" fill="none" xmlns="http://www.w3.org/2000/svg">
	<path
		d="M236.757 52.4786V39.9786H246.757L252.257 31.9786L256.257 23.9786L256.757 13.9786L258.757 7.47864L253.757 5.47864L249.257 9.97864L244.257 11.4786"
		stroke="white" stroke-width="8" stroke-linecap="round" stroke-linejoin="round" />
	<path
		d="M164.757 109.979L169.757 120.979L174.257 132.479L174.757 153.979L171.257 161.979L158.757 179.479L142.257 190.979L123.257 200.979L93.7574 212.479L65.2574 216.979L40.7574 213.979L22.7574 202.979L10.7574 184.479L7.25741 170.479L7.08155 155.407"
		stroke="white" stroke-width="8" stroke-linecap="round" stroke-linejoin="round" />
	<path
		d="M24.2573 60.4786L4.75732 152.979L5.75732 126.479L8.25732 111.979L12.2573 99.9786L13.2573 75.9786L14.7573 74.9786L15.7573 59.9786L19.2573 63.4786L24.2573 60.4786ZM24.2573 60.4786L10.7573 151.979L23.2573 104.479L42.2573 12.9786L29.7573 99.4786V124.479L36.5073 78.2286M43.2005 31.9181L36.5073 78.2286M39.2573 116.979L43.2573 112.479L46.7573 98.4786L48.2573 76.7286L49.7573 54.9786M39.2573 116.979L36.7573 113.979L36.5073 78.2286M39.2573 116.979L45.7573 62.4786L49.7573 54.9786M125.757 45.9786L124.257 49.4786M135.757 48.4786L135.257 42.9786L127.757 40.9786M135.757 48.4786L146.257 46.9786L138.757 56.9786L126.757 82.4786L149.257 54.9786M135.757 48.4786L118.757 86.4786L116.757 85.9786L129.257 52.4786L124.257 49.4786M149.257 54.9786L135.257 81.4786L134.757 87.4786L136.257 93.4786L154.757 58.9786M149.257 54.9786L164.757 55.9786L154.757 58.9786M154.757 58.9786L153.257 66.4786L142.757 92.9786L153.757 71.9786L142.757 105.979H144.257L160.257 76.4786L150.257 100.979L153.757 98.9786L156.757 104.479L164.757 82.9786L169.757 87.4786L158.257 109.979L171.757 92.9786M171.757 92.9786L169.257 109.479L173.757 115.979L176.257 118.979L180.257 117.479L184.257 112.979L184.757 104.479L180.757 99.9786L175.757 92.9786H171.757ZM49.7573 54.9786L60.7573 26.4786L52.7573 104.479L68.7573 22.9786L57.2573 104.479L62.2573 106.979L75.7573 15.4786L65.2573 107.479L68.7573 105.479L82.7573 13.4786L88.7573 4.97864L88.2573 10.4786L81.7573 25.9786L83.2573 37.4786L70.7573 102.479L75.7573 95.9786L91.7573 26.9786L97.7573 14.4786L80.218 90.5051L88.0073 71.9786L95.2573 52.4786L106.757 27.9786L92.7573 79.4786L91.7573 92.4786L95.7573 91.9786L115.257 24.9786L100.257 93.9786H102.757L107.757 84.4786L117.757 37.9786L134.757 26.9786L122.257 43.9786L112.257 80.4786L124.257 49.4786"
		stroke="white" stroke-width="8" stroke-linecap="round" stroke-linejoin="round" />
	<path d="M106.136 128.608L112.257 130.479L119.98 130.475" stroke="white" stroke-width="8" stroke-linecap="round"
		stroke-linejoin="round" />
	<path
		d="M154.048 147.898L152.337 158.787M116.257 149.479L113.257 160.979M85.2573 188.979L95.2573 190.479L105.757 192.979L114.257 193.979"
		stroke="white" stroke-width="8" stroke-linecap="round" stroke-linejoin="round" />
	<path
		d="M62.7573 257.979L61.2573 264.479V283.979L59.2573 304.479L57.2573 317.979M44.7573 218.479L40.7573 242.479L39.2573 253.979L36.7573 260.979L34.7573 275.479L30.2573 297.479L27.7573 310.479L25.7573 318.479M122.257 205.979L118.257 214.979M118.257 214.979L117.257 233.979L116.757 243.979M118.257 214.979L117.757 205.479M110.257 318.479L111.257 304.979L112.757 286.979L115.757 260.479L116.757 243.979M116.757 243.979L122.257 240.979L126.257 231.479L133.257 221.979L137.757 210.979L144.757 197.479M149.757 186.479L148.257 191.479L144.757 197.479M144.757 197.479L138.257 194.979"
		stroke="white" stroke-width="8" stroke-linecap="round" stroke-linejoin="round" />
	<path d="M226.257 262.979H179.757V278.979H303.757V192.479H226.257V262.979Z" stroke="white" stroke-width="7" />
	<path d="M306.257 271.979H321.757L329.257 279.479L331.757 289.979L330.757 302.479L329.257 311.979L328.757 318.979"
		stroke="white" stroke-width="6" stroke-linecap="round" stroke-linejoin="round" />
	<path
		d="M244.257 301.479L244.757 307.979L245.257 318.979M270.257 296.979L271.257 304.979V318.979M291.257 282.479L290.757 285.479M207.757 279.979L213.257 292.979L219.257 300.479H226.757L236.757 301.479H246.257L260.257 298.479L266.757 297.479L273.257 296.479L281.257 295.479L286.257 292.479L290.757 285.479M290.757 285.479L287.757 281.979"
		stroke="white" stroke-width="5" stroke-linecap="round" stroke-linejoin="round" />
	<path d="M213.757 272.479L219.757 270.979" stroke="white" stroke-width="5" stroke-linecap="round"
		stroke-linejoin="round" />
	<path d="M199.257 271.479H201.757" stroke="white" stroke-width="5" stroke-linecap="round" stroke-linejoin="round" />
	<path
		d="M276.257 213.479L278.257 210.479H281.257L282.757 216.479L281.257 222.479H277.257L275.757 218.979L276.257 213.479Z"
		stroke="white" stroke-width="5" stroke-linecap="round" stroke-linejoin="round" />
	<path
		d="M270.257 257.479L269.757 252.979L269.257 246.979V241.979L269.757 238.979L270.757 235.479L273.257 231.979L277.757 230.479L282.757 231.479L287.257 233.979L289.257 237.479L288.257 240.979L284.257 241.979L284.757 246.979L289.257 249.979H291.257V255.479H285.757L282.257 253.479L277.757 252.479L274.257 253.479L271.257 257.479H270.257ZM270.257 257.479L272.757 251.479"
		stroke="white" stroke-width="6" stroke-linecap="round" stroke-linejoin="round" />
	<path
		d="M194.257 74.9786V71.9786H197.757V80.4786L196.757 79.9786M230.757 63.4786L235.757 68.4786L231.257 70.4786L230.257 67.4786M269.257 65.4786V67.4786"
		stroke="white" stroke-width="8" stroke-linecap="round" stroke-linejoin="round" />
	<path
		d="M200.257 47.4786L204.257 31.9786L210.257 34.9786L214.257 34.4786L221.757 24.4786L224.808 18L225.251 9.15507L221.257 4.97864L212.757 5.47864L207.757 8.47864M279.257 4.97864V8.97864L291.757 8.47864L300.757 6.97864L299.257 13.9786L295.257 22.4786L291.257 29.9786L286.257 36.9786L281.257 37.4786L278.257 31.9786L274.757 32.4786L273.757 45.4786"
		stroke="white" stroke-width="8" stroke-linecap="round" stroke-linejoin="round" />
</svg>