<svg width="169" height="291" viewBox="0 0 169 291" fill="none" xmlns="http://www.w3.org/2000/svg">
	<path d="M42.5 281L44.5 282L60 282.5M60 282.5L59 285L57 284.5M60 282.5L61 272L65.5 255" stroke="white"
		stroke-width="9" stroke-linecap="round" stroke-linejoin="round" />
	<path
		d="M47.5 192.5L49.8032 183.616C50.4732 181.032 53.0547 179.43 55.6675 179.977L72.1508 183.427C72.3833 183.476 72.612 183.541 72.8352 183.622L89 189.5L90.5093 190.255C91.4769 190.738 92.2615 191.523 92.7454 192.491L97.3376 201.675C97.4457 201.891 97.5694 202.1 97.7077 202.298L108.587 217.907C108.861 218.3 109.077 218.731 109.228 219.185L110.743 223.73C110.913 224.24 111 224.774 111 225.311V235.093C111 235.693 110.892 236.288 110.682 236.849L107.221 246.077C106.759 247.309 105.83 248.309 104.635 248.861L100 251L90.826 255.128C90.2798 255.374 89.6938 255.52 89.0961 255.558L75.254 256.451C74.7542 256.484 74.2523 256.441 73.7653 256.324L62.7815 253.688C62.2638 253.563 61.7693 253.357 61.3166 253.077L52.2855 247.486C51.7662 247.165 51.3102 246.751 50.9401 246.265L44.372 237.645C43.8022 236.897 43.4548 236.003 43.3697 235.067L42.0657 220.722C42.0221 220.243 42.0479 219.761 42.1422 219.289L47.5 192.5Z"
		fill="white" />
	<path d="M78.5 282.5L90 286L89.5 281L88.5 281.5V279.5V255.5" stroke="white" stroke-width="9" stroke-linecap="round"
		stroke-linejoin="round" />
	<path
		d="M48.5 191H18.5L14.5 190.5M14.5 190.5V195L13.5 196H6.5L5 191L8.5 187.5M14.5 190.5L14 187.5H8.5M8.5 187.5V175.5"
		stroke="white" stroke-width="9" stroke-linecap="round" stroke-linejoin="round" />
	<path
		d="M24 158.5L24.375 159M24.375 159L31.5 168.5L40 176L48 181L54 183L67.5 186L86.5 185L99 179L110.5 168L120 153.5L127 141L131.5 127L132.5 114.5L130 108.5L122.5 98L111 89.5L98.5 83L88 75L78 65L68 62.5H57L47 65L36.5 70L32 74.5L27.5 79L23.5 85L19 95.5L14.5 117.5V133.5L19 149L24.375 159ZM90.5 180.5L95 189L99.5 198.5L104.5 205.5L109 213L114.5 219.5L119.5 227L116.5 230.5V241L122 244.5M122 244.5L129 236.5L129.5 231.5L121 228.5L122 244.5Z"
		stroke="white" stroke-width="9" stroke-linecap="round" stroke-linejoin="round" />
	<path d="M66.5 102.5L74.5 99" stroke="white" stroke-width="9" stroke-linecap="round" stroke-linejoin="round" />
	<path d="M44.5 119V124L45.5 126" stroke="white" stroke-width="9" stroke-linecap="round" stroke-linejoin="round" />
	<path d="M71.5 119V124.5L73 127" stroke="white" stroke-width="9" stroke-linecap="round" stroke-linejoin="round" />
	<path d="M49.5 158H52L55.5 156.5L63 159H67.5H89.5" stroke="white" stroke-width="9" stroke-linecap="round"
		stroke-linejoin="round" />
	<path
		d="M36.5 70.5V52L40 31L43.5 19L46.5 15L47 7.5L54 6L66.5 5L77 10.5L88 20L91 26V42.5L88 45H81L77 42.5L70 28.5L63 40L61.5 46L57.5 54.5V64"
		stroke="white" stroke-width="9" stroke-linecap="round" stroke-linejoin="round" />
	<path fill-rule="evenodd" clip-rule="evenodd"
		d="M40.2694 42.9024C40.1044 44.7991 41.0309 46.6248 42.6591 47.6115L50.5697 52.4058C53.4876 54.1743 57.2806 52.5651 58.0368 49.238L61.43 34.3081C61.4753 34.1089 61.4501 33.9001 61.3587 33.7174L61.3269 33.6538C61.002 33.0039 61.5889 32.2722 62.2937 32.4484V32.4484C62.4292 32.4823 62.5708 32.4823 62.7063 32.4484L67.5021 31.2495C69.3394 30.7901 71.2785 31.4083 72.5111 32.8462L80.4301 42.0851C81.6931 43.5586 83.6947 44.1681 85.5646 43.6487L87.3987 43.1392C89.7626 42.4826 91.3009 40.2079 91.0299 37.7695L89.255 21.7953C89.0932 20.339 88.3008 19.027 87.0872 18.206L73.1165 8.75531C72.3852 8.2606 71.536 7.96836 70.6551 7.9083L53.3669 6.72956C51.3323 6.59084 49.4174 7.70163 48.5277 9.53661L42.4023 22.1703C42.1363 22.7188 41.9729 23.3113 41.9201 23.9186L40.2694 42.9024ZM62.1655 16.9138C62.0656 16.6639 61.8235 16.5 61.5543 16.5V16.5C60.9138 16.5 60.6505 17.3218 61.1716 17.694V17.694C61.7067 18.0762 62.4097 17.5243 62.1655 16.9138V16.9138Z"
		fill="white" />
	<path d="M79 62L83 65.5L98.5 69.5L110.5 75" stroke="white" stroke-width="9" stroke-linecap="round"
		stroke-linejoin="round" />
	<path
		d="M124 99.5L128.5 95M128.5 95L133 81.5L134.5 66.5L136.5 61.5L141 56.5L151.5 68.5L154 70H160L163.5 65.5L164 55.5L160 44L153 33L145 28.5M128.5 95L126 101.5M144.5 25.5L145 28.5M145 28.5L138 27.5L129 32L126 41.5L125 55.5L123.5 71.5L121 85L117 92"
		stroke="white" stroke-width="9" stroke-linecap="round" stroke-linejoin="round" />
	<path
		d="M135.271 59.7478L132.214 76.9754C131.832 79.128 129.672 80.4777 127.57 79.8771C125.808 79.3736 124.682 77.6524 124.928 75.8363L130.414 35.329C130.75 32.8496 132.866 31 135.369 31H146.053C147.871 31 149.547 31.9874 150.427 33.5784L162.428 55.2574C163.481 57.1585 162.466 59.5424 160.367 60.1022C158.531 60.5918 157.473 62.5121 158.039 64.3257L158.818 66.8163C159.192 68.0136 158.506 69.2839 157.3 69.6285C156.501 69.8569 155.641 69.6222 155.069 69.0196L143.819 57.1775C140.994 54.2038 135.987 55.7092 135.271 59.7478Z"
		fill="white" stroke="white" stroke-width="9" stroke-linecap="round" stroke-linejoin="round" />
</svg>