<svg width="357" height="386" viewBox="0 0 357 386" fill="none" xmlns="http://www.w3.org/2000/svg">
	<path d="M8.04688 110.36L9.01416 107.297" stroke="white" stroke-width="10" stroke-linecap="round"
		stroke-linejoin="round" />
	<path
		d="M6 83.6337L10.0723 72.4357L18.5556 63.9524L30.4321 62.7647L33.0005 49.5L29.4142 34.9395L20.2523 23.9112L8.0363 20.3481"
		stroke="white" stroke-width="12" stroke-linecap="round" stroke-linejoin="round" />
	<path
		d="M151 378.5L148.157 362.489L141.666 339.166L135.719 315.993L130.597 300.532M130.597 300.532L151.242 315.419L163.451 329.31L170.408 339.83L175.609 350.034L181.945 360.359L199.9 342.641L218.166 326.745L234.399 315.85M130.597 300.532L122.03 279.891L117 268L123.177 264.309L137.318 274.469L152 282.5L168 288L208 287.5L229.388 284.227L247.022 276.849L272.753 268.276M234.399 315.85L238.498 311.925L249.731 300.347L261.292 286.308L266.454 274.54L272.753 268.276M234.399 315.85L232.444 327.822L229.292 339.366L222.686 354.231L215.047 371.573L211.467 379.362M295.5 312.5L292 300.5L287.101 279.218L279.051 262.012L272.753 268.276M295.5 312.5L303.607 336.685L309.415 355.943L315.223 366.03L319.197 375.201L320.732 379.192M295.5 312.5L288.323 330.266L283.738 345.244L277.93 357.777L273.956 370.616L271.28 378.674"
		stroke="white" stroke-width="13" stroke-linecap="round" stroke-linejoin="round" />
	<path
		d="M137.781 167.021L135.608 172.018L129.525 179.622L128.223 195.481M133 132L139.521 129.436L149.08 130.739L148.645 139.212L146.426 136.122"
		stroke="white" stroke-width="12" stroke-linecap="round" stroke-linejoin="round" />
	<path
		d="M209.775 139.709L206.918 143.637L206.739 158.635L219.238 161.848L229.593 162.384M206.218 182.058L206.701 202.678L203.083 201.955L214.297 206.055L226.477 207.743"
		stroke="white" stroke-width="12" stroke-linecap="round" stroke-linejoin="round" />
	<path d="M183.5 231.5L213.851 231.502L232 235.5L247.794 240.839" stroke="white" stroke-width="12"
		stroke-linecap="round" stroke-linejoin="round" />
	<path d="M102.5 93.5L100.908 75.676L96.0508 34.4697L110.805 47.7853L128.979 62.7203" stroke="white"
		stroke-width="13" stroke-linecap="round" stroke-linejoin="round" />
	<path
		d="M294.922 74.7649L322.073 64.2552L338.056 59.0003L349.88 58.1244L345.063 79.1439L339.589 104.105L333.896 133.007"
		stroke="white" stroke-width="13" stroke-linecap="round" stroke-linejoin="round" />
	<path
		d="M100 292.5L95.7777 255.5M89.5005 200.5L84.5005 169M89.5005 200.5L112 292M89.5005 200.5L95.7777 255.5M84.5005 169L77.0005 199M84.5005 169L81.5005 164L80.5005 155L85.0005 133.5M81.5005 112.5L94.5005 190.5M81.5005 112.5L94.0005 99.5M81.5005 112.5V125L85.0005 133.5M85.0005 133.5L66.5005 156.5M112 292L104 235.5M112 292L122 292.5M104 235.5L116.5 261L127.5 272M104 235.5L96.5005 216L94.5005 190.5M94.5005 190.5L94.0005 99.5M94.0005 99.5L98.0005 164L103 91L112.5 148L111 81L122 123.5M122 123.5L120.5 76.5L131 107.5M122 123.5L116 143.5M122 123.5L131 107.5M131 107.5L132.5 69L140.5 95L143 59.5L151 111L154 55.5L169.5 101.5M169.5 101.5L170.5 122.5M169.5 101.5L165.5 51.5L180 106.5L172.5 33M172.5 33L191.5 109L180 25.5M172.5 33L158 25L149.5 32.5L141.5 42.5M172.5 33L165 35.5M180 25.5L202.5 95M180 25.5L194 30L202.5 95M202.5 95L209 123.5L206 26.5M206 26.5L201.5 15L187.5 10L171.5 7H162.5L159 9.5M206 26.5L218.5 114.5L217.5 26.5L232.5 121.5L237.5 130L236.934 125M265.5 136L245.5 34M265.5 136L269 162L272 161L278.5 144.5L260 44L266.5 43.5L283 65L271 62L284 149L286 72.5L295 150.5L299.5 152.5V157.5L296 61.5L326.5 137M265.5 136L262 129.5L257.5 115L233.5 32.5L243.5 112.5L226 28.5L236.934 125M326.5 137L303.5 101L303 172M326.5 137L344 133L344.5 136L341.5 138.5L340 148M303 172L311.5 128.5L340 148M303 172L306 182.5L298.5 205L282.5 239L272 261.5L312 188.5L284 261L321 181L291.5 271L331 185.5L296 282L335 201L334.5 269L327 233.5L322.5 279.5M340 148L350.5 155M350.5 155L317 145.5L345.5 161M350.5 155L350 151M345.5 161L315 154.5L339.5 169.5M345.5 161L339.5 169.5M339.5 169.5L313.5 166.5M313.5 166.5L334 178M313.5 166.5L311 179.5M322.5 279.5L317.5 254.5L305.5 287M322.5 279.5L316.5 276M95.7777 255.5L93.0005 255M236.934 125H239V129.5"
		stroke="white" stroke-width="13" stroke-linecap="round" stroke-linejoin="round" />
</svg>