<svg width="256" height="256" viewBox="0 0 256 256" fill="none" xmlns="http://www.w3.org/2000/svg">
	<path
		d="M160.14 17.6855C162.112 10.8969 158.212 3.72701 151.26 2.44226C125.602 -2.29983 98.9925 0.898309 75.0514 11.7761C47.2096 24.4262 24.8168 46.6264 11.9266 74.3579C-0.963594 102.089 -3.49931 133.52 4.77848 162.959C13.0563 192.398 31.6005 217.901 57.0543 234.851C82.5081 251.801 113.189 259.078 143.544 255.364C173.898 251.65 201.92 237.192 222.537 214.605C243.154 192.019 255.003 162.798 255.94 132.231C256.745 105.947 249.436 80.1622 235.167 58.3164C231.301 52.3978 223.182 51.5639 217.679 56.0012V56.0012C212.176 60.4385 211.39 68.4625 215.107 74.4759C225.616 91.4805 230.97 111.28 230.352 131.447C229.603 155.901 220.123 179.278 203.63 197.347C187.136 215.416 164.719 226.983 140.435 229.953C116.151 232.924 91.6064 227.103 71.2434 213.543C50.8804 199.983 36.045 179.581 29.4228 156.029C22.8006 132.478 24.8291 107.334 35.1413 85.1486C45.4534 62.9634 63.3677 45.2032 85.6412 35.0831C104.01 26.7369 124.343 24.042 144.085 27.1823C151.067 28.2929 158.168 24.474 160.14 17.6855V17.6855Z"
		fill="white" />
	<circle cx="190.5" cy="34.334" r="18.25" fill="white" />
	<path
		d="M70.8271 182.311V70.3113H98.5071L139.307 136.711L117.707 136.551L158.987 70.3113H185.707V182.311H155.147V152.391C155.147 142.791 155.36 134.151 155.787 126.471C156.32 118.791 157.174 111.165 158.347 103.591L161.867 113.031L133.227 157.351H122.667L94.6671 113.031L98.1871 103.591C99.3605 110.738 100.16 118.098 100.587 125.671C101.12 133.138 101.387 142.045 101.387 152.391V182.311H70.8271Z"
		fill="white" />
</svg>