{
  "accessors": [
    {
      "name": "moon-Mesh_0_positions",
      "componentType": 5126,
      "count": 588,
      "min": [
        -50.02000045776367,
        -50.02000045776367,
        -50.02000045776367
      ],
      "max": [
        50.02000045776367,
        50.02000045776367,
        50.02000045776367
      ],
      "type": "VEC3",
      "bufferView": 0,
      "byteOffset": 0
    },
    {
      "name": "moon-Mesh_0_normals",
      "componentType": 5126,
      "count": 588,
      "min": [
        -1,
        -1,
        -1
      ],
      "max": [
        1,
        1,
        1
      ],
      "type": "VEC3",
      "bufferView": 1,
      "byteOffset": 0
    },
    {
      "name": "moon-Mesh_0_texcoords",
      "componentType": 5126,
      "count": 588,
      "min": [
        0,
        0
      ],
      "max": [
        323.8609924316406,
        248.97900390625
      ],
      "type": "VEC2",
      "bufferView": 2,
      "byteOffset": 0
    },
    {
      "name": "moon-Mesh_0_indices",
      "componentType": 5123,
      "count": 2592,
      "min": [
        0
      ],
      "max": [
        587
      ],
      "type": "SCALAR",
      "bufferView": 3,
      "byteOffset": 0
    }
  ],
  "asset": {
    "generator": "obj2gltf",
    "version": "2.0"
  },
  "buffers": [
    {
      "name": "moon",
      "byteLength": 76548,
      "uri": "data:application/octet-stream;base64,"
    }
  ],
  "bufferViews": [
    {
      "name": "bufferView_0",
      "buffer": 0,
      "byteLength": 7056,
      "byteOffset": 0,
      "byteStride": 12,
      "target": 34962
    },
    {
      "name": "bufferView_1",
      "buffer": 0,
      "byteLength": 7056,
      "byteOffset": 7056,
      "byteStride": 12,
      "target": 34962
    },
    {
      "name": "bufferView_2",
      "buffer": 0,
      "byteLength": 4704,
      "byteOffset": 14112,
      "byteStride": 8,
      "target": 34962
    },
    {
      "name": "bufferView_3",
      "buffer": 0,
      "byteLength": 5184,
      "byteOffset": 18816,
      "target": 34963
    },
    {
      "buffer": 0,
      "byteOffset": 24000,
      "byteLength": 52546
    }
  ],
  "images": [
    {
      "name": "Moon2_diff",
      "mimeType": "image/png",
      "bufferView": 4
    }
  ],
  "materials": [
    {
      "name": "Moon2Mtl",
      "pbrMetallicRoughness": {
        "baseColorTexture": {
          "index": 0
        },
        "baseColorFactor": [
          1,
          1,
          1,
          1
        ],
        "metallicFactor": 0,
        "roughnessFactor": 0.937255
      },
      "emissiveFactor": [
        0,
        0,
        0
      ],
      "alphaMode": "BLEND",
      "doubleSided": true
    }
  ],
  "meshes": [
    {
      "name": "moon-Mesh",
      "primitives": [
        {
          "attributes": {
            "POSITION": 0,
            "NORMAL": 1,
            "TEXCOORD_0": 2
          },
          "indices": 3,
          "material": 0,
          "mode": 4
        }
      ]
    }
  ],
  "nodes": [
    {
      "name": "moon",
      "mesh": 0
    }
  ],
  "samplers": [
    {
      "wrapS": 10497,
      "wrapT": 10497
    }
  ],
  "scene": 0,
  "scenes": [
    {
      "nodes": [
        0
      ]
    }
  ],
  "textures": [
    {
      "name": "Moon2_diff",
      "sampler": 0,
      "source": 0
    }
  ]
}
