<svg width="257" height="257" viewBox="0 0 257 257" fill="none" xmlns="http://www.w3.org/2000/svg">
	<path
		d="M194.542 30.1601C197.508 25.766 196.367 19.764 191.763 17.1346C167.431 3.23882 139.119 -2.33323 111.175 1.43631C80.0499 5.63508 51.5545 21.1309 31.1121 44.9748C10.6697 68.8188 -0.292731 99.3463 0.311028 130.748C0.91479 162.15 13.0426 192.233 34.3865 215.274C55.7303 238.314 84.8003 252.703 116.064 255.702C147.328 258.702 178.603 250.102 203.938 231.539C229.273 212.977 246.899 185.747 253.462 155.033C259.354 127.459 255.959 98.804 243.961 73.4826C241.691 68.6912 235.794 67.0949 231.186 69.7176C226.578 72.3404 225.012 78.1876 227.218 83.0085C236.922 104.208 239.593 128.056 234.686 151.021C229.107 177.128 214.125 200.273 192.591 216.051C171.056 231.829 144.472 239.139 117.898 236.59C91.3234 234.041 66.6139 221.81 48.4716 202.226C30.3293 182.641 20.0207 157.07 19.5075 130.379C18.9943 103.687 28.3124 77.739 45.6884 57.4717C63.0645 37.2044 87.2855 24.0329 113.742 20.464C137.015 17.3244 160.589 21.8083 180.986 33.1018C185.625 35.6699 191.575 34.5542 194.542 30.1601Z"
		fill="url(#paint0_radial_835_4)" />
	<g filter="url(#filter0_d_835_4)">
		<path
			d="M226.513 57.0062C226.554 56.9565 226.58 56.922 226.617 56.8696C228.045 54.8549 229.003 52.464 229.311 49.8386C230.293 41.4737 224.308 33.8964 215.944 32.9142C209.659 32.1762 203.818 35.3712 200.886 40.5537C200.825 40.6619 200.768 40.7543 200.695 40.8551C198.935 43.2879 174.352 77.3199 159.287 100.787C145.098 122.891 131.103 149.274 124.243 165.199C123.324 167.332 120.392 167.804 118.779 166.134C103.739 150.566 67.5439 126.167 62.7872 123.287C60.7299 121.769 58.278 120.755 55.5798 120.438C47.0778 119.44 39.3502 125.745 38.3196 134.521C37.6019 140.633 40.3219 146.332 44.9115 149.566C44.9413 149.587 44.9588 149.599 44.9894 149.619C45.9458 150.238 67.4065 164.144 80.479 174.209C96.4505 186.505 117.639 206.724 125.345 214.191C126.813 215.614 129.222 215.229 130.136 213.399C137.456 198.746 165.15 143.88 184.287 113.787C198.969 90.7008 225.245 58.5545 226.513 57.0062Z"
			fill="#1DAC57" />
	</g>
	<defs>
		<filter id="filter0_d_835_4" x="26.2053" y="20.8087" width="215.211" height="206.246"
			filterUnits="userSpaceOnUse" color-interpolation-filters="sRGB">
			<feFlood flood-opacity="0" result="BackgroundImageFix" />
			<feColorMatrix in="SourceAlpha" type="matrix" values="0 0 0 0 0 0 0 0 0 0 0 0 0 0 0 0 0 0 127 0"
				result="hardAlpha" />
			<feOffset />
			<feGaussianBlur stdDeviation="6" />
			<feComposite in2="hardAlpha" operator="out" />
			<feColorMatrix type="matrix" values="0 0 0 0 0.113725 0 0 0 0 0.67451 0 0 0 0 0.341176 0 0 0 1 0" />
			<feBlend mode="normal" in2="BackgroundImageFix" result="effect1_dropShadow_835_4" />
			<feBlend mode="normal" in="SourceGraphic" in2="effect1_dropShadow_835_4" result="shape" />
		</filter>
		<radialGradient id="paint0_radial_835_4" cx="0" cy="0" r="1" gradientUnits="userSpaceOnUse"
			gradientTransform="translate(215.287 45.7869) rotate(-147.231) scale(103.465 173.806)">
			<stop stop-color="#D9D9D9" stop-opacity="0" />
			<stop offset="1" stop-color="#D9D9D9" />
		</radialGradient>
	</defs>
</svg>