# Blender v3.1.2 OBJ File: 'roblox_.blend'
# www.blender.org
mtllib torso.mtl
o Model8
v -0.98 0.93 0.47
v -0.98 -0.93 0.47
v 0.88 -0.93 0.47
v 0.88 0.93 0.47
v -0.98 1 0.41
v -1.05 0.93 0.41
v -1.05 -0.93 0.41
v -0.98 -1 0.41
v 0.88 -1 0.41
v 0.95 -0.93 0.41
v 0.95 0.93 0.41
v 0.88 1 0.41
v -0.98 1 0.41
v -0.98 1 -0.45
v -1.05 0.93 -0.45
v -1.05 -0.93 -0.45
v -0.98 -1 -0.45
v -0.98 -1 0.41
v -0.98 -1 0.41
v -0.98 -1 -0.45
v 0.88 -1 -0.45
v 0.88 -1 0.41
v 0.88 -1 0.41
v 0.88 -1 -0.45
v 0.95 -0.93 -0.45
v 0.95 -0.93 0.41
v 0.95 0.93 -0.45
v 0.95 0.93 0.41
v 0.88 1 -0.45
v 0.88 1 0.41
v 0.88 1 0.41
v 0.88 1 -0.45
v -0.98 1 -0.45
v -0.98 1 0.41
v -0.98 1 -0.45
v -0.98 0.93 -0.52
v -0.98 -0.93 -0.52
v -0.98 -1 -0.45
v 0.88 -0.93 -0.52
v 0.88 -1 -0.45
v 0.88 0.93 -0.52
v 0.88 1 -0.45
vt 0.11 0.49
vt 0.02 0.49
vt 0.02 0.25
vt 0.11 0.25
vt 0.11 0.49
vt 0.11 0.50
vt 0.02 0.50
vt 0.02 0.49
vt 0.02 0.25
vt 0.02 0.24
vt 0.11 0.24
vt 0.11 0.25
vt 0.11 0.50
vt 0.11 0.62
vt 0.11 0.62
vt 0.02 0.62
vt 0.02 0.62
vt 0.02 0.50
vt 0.33 0.24
vt 0.33 0.35
vt 0.24 0.35
vt 0.24 0.24
vt 0.02 0.99
vt 0.02 0.87
vt 0.02 0.87
vt 0.02 0.99
vt 0.11 0.87
vt 0.11 0.99
vt 0.11 0.87
vt 0.11 0.99
vt 0.14 0.35
vt 0.14 0.24
vt 0.23 0.24
vt 0.23 0.35
vt 0.11 0.62
vt 0.11 0.62
vt 0.02 0.62
vt 0.02 0.62
vt 0.02 0.87
vt 0.02 0.87
vt 0.11 0.87
vt 0.11 0.87
vn -0 -0 1
vn 0 1 0
vn -1 0 0
vn 0 -1 0
vn 1 0 0
vn 0 0 -1
usemtl None
s 1
f 1/1/1 2/2/1 3/3/1
f 1/1/1 3/3/1 4/4/1
f 1/1/1 5/5/2 6/6/3
f 1/1/1 6/6/3 7/7/3
f 1/1/1 7/7/3 2/2/1
f 2/2/1 7/7/3 8/8/4
f 2/2/1 8/8/4 9/9/4
f 2/2/1 9/9/4 3/3/1
f 3/3/1 9/9/4 10/10/5
f 3/3/1 10/10/5 11/11/5
f 3/3/1 11/11/5 4/4/1
f 4/4/1 11/11/5 12/12/2
f 4/4/1 12/12/2 5/5/2
f 4/4/1 5/5/2 1/1/1
f 13/13/2 14/14/2 15/15/3
f 13/13/2 15/15/3 6/6/3
f 6/6/3 15/15/3 16/16/3
f 6/6/3 16/16/3 7/7/3
f 7/7/3 16/16/3 17/17/4
f 7/7/3 17/17/4 18/18/4
f 19/19/4 20/20/4 21/21/4
f 19/19/4 21/21/4 22/22/4
f 23/23/4 24/24/4 25/25/5
f 23/23/4 25/25/5 26/26/5
f 26/26/5 25/25/5 27/27/5
f 26/26/5 27/27/5 28/28/5
f 28/28/5 27/27/5 29/29/2
f 28/28/5 29/29/2 30/30/2
f 31/31/2 32/32/2 33/33/2
f 31/31/2 33/33/2 34/34/2
f 35/35/2 36/36/6 15/15/3
f 15/15/3 36/36/6 37/37/6
f 15/15/3 37/37/6 16/16/3
f 16/16/3 37/37/6 38/38/4
f 38/38/4 37/37/6 39/39/6
f 38/38/4 39/39/6 40/40/4
f 40/40/4 39/39/6 25/25/5
f 25/25/5 39/39/6 41/41/6
f 25/25/5 41/41/6 27/27/5
f 27/27/5 41/41/6 42/42/2
f 42/42/2 41/41/6 36/36/6
f 42/42/2 36/36/6 35/35/2
f 41/41/6 39/39/6 37/37/6
f 41/41/6 37/37/6 36/36/6
