<svg width="16" height="15" viewBox="0 0 16 15" fill="none" xmlns="http://www.w3.org/2000/svg">
<path d="M0.492188 6.5499L6.11719 0.924904C6.35156 0.713966 6.62109 0.608498 6.92578 0.608498C7.23047 0.608498 7.5 0.713966 7.73438 0.924904C7.94531 1.15928 8.05078 1.42881 8.05078 1.7335C8.05078 2.03819 7.94531 2.30772 7.73438 2.54209L4.00781 6.2335H14.8008C15.1289 6.2335 15.3984 6.33897 15.6094 6.5499C15.8203 6.76084 15.9258 7.03037 15.9258 7.3585C15.9258 7.68662 15.8203 7.95615 15.6094 8.16709C15.3984 8.37803 15.1289 8.4835 14.8008 8.4835H4.00781L7.73438 12.1749C7.94531 12.4093 8.05078 12.6788 8.05078 12.9835C8.05078 13.2882 7.94531 13.5577 7.73438 13.7921C7.5 14.003 7.23047 14.1085 6.92578 14.1085C6.62109 14.1085 6.35156 14.003 6.11719 13.7921L0.492188 8.16709C0.28125 7.93272 0.175781 7.66318 0.175781 7.3585C0.175781 7.05381 0.28125 6.78428 0.492188 6.5499Z" fill="white"/>
</svg>
