<svg width="14" height="17" viewBox="0 0 14 17" fill="none" xmlns="http://www.w3.org/2000/svg">
<path d="M7.83594 0.799904L13.4609 6.4249C13.6719 6.65928 13.7773 6.92881 13.7773 7.2335C13.7773 7.53819 13.6719 7.80772 13.4609 8.04209C13.2266 8.25303 12.957 8.3585 12.6523 8.3585C12.3477 8.3585 12.0781 8.25303 11.8438 8.04209L8.15234 4.31553V15.1085C8.15234 15.4366 8.04688 15.7062 7.83594 15.9171C7.625 16.128 7.35547 16.2335 7.02734 16.2335C6.69922 16.2335 6.42969 16.128 6.21875 15.9171C6.00781 15.7062 5.90234 15.4366 5.90234 15.1085V4.31553L2.21094 8.04209C1.97656 8.25303 1.70703 8.3585 1.40234 8.3585C1.09766 8.3585 0.828125 8.25303 0.59375 8.04209C0.382812 7.80772 0.277344 7.53819 0.277344 7.2335C0.277344 6.92881 0.382812 6.65928 0.59375 6.4249L6.21875 0.799904C6.45312 0.588966 6.72266 0.483498 7.02734 0.483498C7.33203 0.483498 7.60156 0.588966 7.83594 0.799904Z" fill="white"/>
</svg>
