<svg width="37" height="37" viewBox="0 0 37 37" fill="none" xmlns="http://www.w3.org/2000/svg">
<path d="M35.5703 19.6359L26.5703 28.6359C26.1016 29.0578 25.5625 29.2688 24.9531 29.2688C24.3438 29.2688 23.8047 29.0578 23.3359 28.6359C22.9141 28.1672 22.7031 27.6281 22.7031 27.0188C22.7031 26.4094 22.9141 25.8703 23.3359 25.4016L28.5391 20.2688H13.7031C13.0469 20.2688 12.5078 20.0578 12.0859 19.6359C11.6641 19.2141 11.4531 18.675 11.4531 18.0188C11.4531 17.3625 11.6641 16.8234 12.0859 16.4016C12.5078 15.9797 13.0469 15.7688 13.7031 15.7688H28.5391L23.3359 10.6359C22.9141 10.1672 22.7031 9.62813 22.7031 9.01875C22.7031 8.40938 22.9141 7.87032 23.3359 7.40157C23.8047 6.97969 24.3438 6.76875 24.9531 6.76875C25.5625 6.76875 26.1016 6.97969 26.5703 7.40157L35.5703 16.4016C35.9922 16.8703 36.2031 17.4094 36.2031 18.0188C36.2031 18.6281 35.9922 19.1672 35.5703 19.6359ZM11.4531 6.76875H6.95312C6.29688 6.76875 5.75781 6.97969 5.33594 7.40157C4.91406 7.82344 4.70312 8.3625 4.70312 9.01875V27.0188C4.70312 27.675 4.91406 28.2141 5.33594 28.6359C5.75781 29.0578 6.29688 29.2688 6.95312 29.2688H11.4531C12.1094 29.2688 12.6484 29.4797 13.0703 29.9016C13.4922 30.3234 13.7031 30.8625 13.7031 31.5188C13.7031 32.175 13.4922 32.7141 13.0703 33.1359C12.6484 33.5578 12.1094 33.7688 11.4531 33.7688H6.95312C5.03125 33.7219 3.4375 33.0656 2.17188 31.8C0.90625 30.5344 0.25 28.9406 0.203125 27.0188V9.01875C0.25 7.09688 0.90625 5.50313 2.17188 4.2375C3.4375 2.97188 5.03125 2.31563 6.95312 2.26875H11.4531C12.1094 2.26875 12.6484 2.47969 13.0703 2.90157C13.4922 3.32344 13.7031 3.8625 13.7031 4.51875C13.7031 5.175 13.4922 5.71407 13.0703 6.13594C12.6484 6.55782 12.1094 6.76875 11.4531 6.76875Z" fill="white"/>
</svg>
