<svg width="19" height="17" viewBox="0 0 19 17" fill="none" xmlns="http://www.w3.org/2000/svg">
<path d="M18.2852 9.16709L13.7852 13.6671C13.5508 13.878 13.2812 13.9835 12.9766 13.9835C12.6719 13.9835 12.4023 13.878 12.168 13.6671C11.957 13.4327 11.8516 13.1632 11.8516 12.8585C11.8516 12.5538 11.957 12.2843 12.168 12.0499L14.7695 9.4835H7.35156C7.02344 9.4835 6.75391 9.37803 6.54297 9.16709C6.33203 8.95615 6.22656 8.68662 6.22656 8.3585C6.22656 8.03037 6.33203 7.76084 6.54297 7.5499C6.75391 7.33897 7.02344 7.2335 7.35156 7.2335H14.7695L12.168 4.66709C11.957 4.43272 11.8516 4.16319 11.8516 3.8585C11.8516 3.55381 11.957 3.28428 12.168 3.0499C12.4023 2.83897 12.6719 2.7335 12.9766 2.7335C13.2812 2.7335 13.5508 2.83897 13.7852 3.0499L18.2852 7.5499C18.4961 7.78428 18.6016 8.05381 18.6016 8.3585C18.6016 8.66319 18.4961 8.93272 18.2852 9.16709ZM6.22656 2.7335H3.97656C3.64844 2.7335 3.37891 2.83897 3.16797 3.0499C2.95703 3.26084 2.85156 3.53037 2.85156 3.8585V12.8585C2.85156 13.1866 2.95703 13.4562 3.16797 13.6671C3.37891 13.878 3.64844 13.9835 3.97656 13.9835H6.22656C6.55469 13.9835 6.82422 14.089 7.03516 14.2999C7.24609 14.5108 7.35156 14.7804 7.35156 15.1085C7.35156 15.4366 7.24609 15.7062 7.03516 15.9171C6.82422 16.128 6.55469 16.2335 6.22656 16.2335H3.97656C3.01562 16.2101 2.21875 15.8819 1.58594 15.2491C0.953125 14.6163 0.625 13.8194 0.601562 12.8585V3.8585C0.625 2.89756 0.953125 2.10069 1.58594 1.46787C2.21875 0.83506 3.01562 0.506935 3.97656 0.483498H6.22656C6.55469 0.483498 6.82422 0.588966 7.03516 0.799904C7.24609 1.01084 7.35156 1.28037 7.35156 1.6085C7.35156 1.93662 7.24609 2.20615 7.03516 2.41709C6.82422 2.62803 6.55469 2.7335 6.22656 2.7335Z" fill="white"/>
</svg>
