<svg width="17" height="17" viewBox="0 0 17 17" fill="none" xmlns="http://www.w3.org/2000/svg">
<path d="M3.14453 6.49522C3.02734 6.77647 2.83984 6.9874 2.58203 7.12803C2.30078 7.24522 2.00781 7.25694 1.70312 7.16319C1.42188 7.046 1.21094 6.8585 1.07031 6.60069C0.953125 6.31944 0.941406 6.02647 1.03516 5.72178C1.41016 4.64365 2.03125 3.671 2.89844 2.80381C3.92969 1.77256 5.11328 1.08115 6.44922 0.729591C7.78516 0.401466 9.12109 0.401466 10.457 0.729591C11.793 1.08115 12.9766 1.77256 14.0078 2.80381L14.6406 3.40147V2.171C14.6406 1.84287 14.7461 1.57334 14.957 1.3624C15.168 1.15147 15.4375 1.046 15.7656 1.046C16.0938 1.046 16.3633 1.15147 16.5742 1.3624C16.7852 1.57334 16.8906 1.84287 16.8906 2.171V6.1085C16.8906 6.43662 16.7852 6.70615 16.5742 6.91709C16.3633 7.12803 16.0938 7.2335 15.7656 7.2335H11.8281C11.5 7.2335 11.2305 7.12803 11.0195 6.91709C10.8086 6.70615 10.7031 6.43662 10.7031 6.1085C10.7031 5.78037 10.8086 5.51084 11.0195 5.2999C11.2305 5.08897 11.5 4.9835 11.8281 4.9835H13.0234L12.4258 4.38584C11.2773 3.28428 9.95312 2.7335 8.45312 2.7335C6.95312 2.7335 5.62891 3.28428 4.48047 4.38584C3.87109 4.99522 3.42578 5.69834 3.14453 6.49522ZM0.824219 9.51865C0.871094 9.51865 0.929688 9.50694 1 9.4835C1.04688 9.4835 1.09375 9.4835 1.14062 9.4835H5.07812C5.40625 9.4835 5.67578 9.58897 5.88672 9.7999C6.09766 10.0108 6.20312 10.2804 6.20312 10.6085C6.20312 10.9366 6.09766 11.2062 5.88672 11.4171C5.67578 11.628 5.40625 11.7335 5.07812 11.7335H3.88281L4.48047 12.3312C5.62891 13.4327 6.95312 13.9835 8.45312 13.9835C9.95312 13.9835 11.2773 13.4327 12.4258 12.3312C13.0352 11.6983 13.4805 10.9952 13.7617 10.2218C13.8789 9.94053 14.0664 9.72959 14.3242 9.58897C14.6055 9.47178 14.8984 9.46006 15.2031 9.55381C15.4844 9.671 15.6953 9.8585 15.8359 10.1163C15.9531 10.3976 15.9648 10.6905 15.8711 10.9952C15.4961 12.0733 14.875 13.046 14.0078 13.9132C12.9766 14.9444 11.793 15.6358 10.457 15.9874C9.12109 16.3155 7.78516 16.3155 6.44922 15.9874C5.11328 15.6358 3.92969 14.9444 2.89844 13.9132L2.26562 13.3155V14.546C2.26562 14.8741 2.16016 15.1437 1.94922 15.3546C1.73828 15.5655 1.46875 15.671 1.14062 15.671C0.8125 15.671 0.542969 15.5655 0.332031 15.3546C0.121094 15.1437 0.015625 14.8741 0.015625 14.546V10.6085C0.015625 10.5616 0.015625 10.503 0.015625 10.4327C0.0390625 10.3858 0.0507812 10.3507 0.0507812 10.3272C0.0976562 10.1397 0.191406 9.97569 0.332031 9.83506C0.472656 9.69444 0.636719 9.58897 0.824219 9.51865Z" fill="white"/>
</svg>
