<svg width="36" height="36" viewBox="0 0 36 36" fill="none" xmlns="http://www.w3.org/2000/svg">
<path d="M20.1172 2.63281L31.3672 13.8828C31.7891 14.3516 32 14.8906 32 15.5C32 16.1094 31.7891 16.6484 31.3672 17.1172C30.8984 17.5391 30.3594 17.75 29.75 17.75C29.1406 17.75 28.6016 17.5391 28.1328 17.1172L20.75 9.66406V31.25C20.75 31.9062 20.5391 32.4453 20.1172 32.8672C19.6953 33.2891 19.1562 33.5 18.5 33.5C17.8438 33.5 17.3047 33.2891 16.8828 32.8672C16.4609 32.4453 16.25 31.9062 16.25 31.25V9.66406L8.86719 17.1172C8.39844 17.5391 7.85938 17.75 7.25 17.75C6.64062 17.75 6.10156 17.5391 5.63281 17.1172C5.21094 16.6484 5 16.1094 5 15.5C5 14.8906 5.21094 14.3516 5.63281 13.8828L16.8828 2.63281C17.3516 2.21094 17.8906 2 18.5 2C19.1094 2 19.6484 2.21094 20.1172 2.63281Z" fill="white"/>
</svg>
