<svg width="37" height="37" viewBox="0 0 37 37" fill="none" xmlns="http://www.w3.org/2000/svg">
<path d="M2.98438 16.4016L14.2344 5.15157C14.7031 4.72969 15.2422 4.51875 15.8516 4.51875C16.4609 4.51875 17 4.72969 17.4688 5.15157C17.8906 5.62032 18.1016 6.15938 18.1016 6.76875C18.1016 7.37813 17.8906 7.91719 17.4688 8.38594L10.0156 15.7688H31.6016C32.2578 15.7688 32.7969 15.9797 33.2188 16.4016C33.6406 16.8234 33.8516 17.3625 33.8516 18.0188C33.8516 18.675 33.6406 19.2141 33.2188 19.6359C32.7969 20.0578 32.2578 20.2688 31.6016 20.2688H10.0156L17.4688 27.6516C17.8906 28.1203 18.1016 28.6594 18.1016 29.2688C18.1016 29.8781 17.8906 30.4172 17.4688 30.8859C17 31.3078 16.4609 31.5188 15.8516 31.5188C15.2422 31.5188 14.7031 31.3078 14.2344 30.8859L2.98438 19.6359C2.5625 19.1672 2.35156 18.6281 2.35156 18.0188C2.35156 17.4094 2.5625 16.8703 2.98438 16.4016Z" fill="white"/>
</svg>
