<svg width="36" height="36" viewBox="0 0 36 36" fill="none" xmlns="http://www.w3.org/2000/svg">
<path d="M18.0082 0C18.6645 0 19.2035 0.210938 19.6254 0.632812C20.0473 1.05469 20.2582 1.59375 20.2582 2.25V3.58594C22.8832 4.14844 25.016 5.4375 26.6567 7.45312C28.3442 9.46875 29.2114 11.8594 29.2582 14.625V15.9609C29.3051 19.3828 30.4535 22.3594 32.7035 24.8906L33.1957 25.5234C33.8051 26.2266 33.9223 27.0234 33.5473 27.9141C33.1254 28.7578 32.4457 29.2031 31.5082 29.25H4.50823C3.57073 29.2031 2.89104 28.7578 2.46917 27.9141C2.09417 27.0234 2.21136 26.2266 2.82073 25.5234L3.38323 24.8906C5.58636 22.3125 6.71136 19.3359 6.75823 15.9609V14.625C6.80511 11.8594 7.67229 9.46875 9.35979 7.45312C11.0004 5.4375 13.1332 4.14844 15.7582 3.58594V2.25C15.7582 1.59375 15.9692 1.05469 16.391 0.632812C16.8129 0.210938 17.352 0 18.0082 0ZM21.1723 34.6641C20.2817 35.5547 19.227 36 18.0082 36C16.7895 36 15.7348 35.5547 14.8442 34.6641C13.9535 33.7734 13.5082 32.7188 13.5082 31.5H22.5082C22.5082 32.7188 22.0629 33.7734 21.1723 34.6641Z" fill="white"/>
</svg>
