<svg width="36" height="37" viewBox="0 0 36 37" fill="none" xmlns="http://www.w3.org/2000/svg">
<path d="M18.0082 0.0187531C18.6645 0.0187531 19.2035 0.229691 19.6254 0.651566C20.0473 1.07344 20.2582 1.6125 20.2582 2.26875V3.60469C22.8832 4.16719 25.016 5.45625 26.6567 7.47188C28.3442 9.4875 29.2114 11.8781 29.2582 14.6438V15.9797C29.3051 19.4016 30.4535 22.3781 32.7035 24.9094L33.1957 25.5422C33.8051 26.2453 33.9223 27.0422 33.5473 27.9328C33.1254 28.7766 32.4457 29.2219 31.5082 29.2688H4.50823C3.57073 29.2219 2.89104 28.7766 2.46917 27.9328C2.09417 27.0422 2.21136 26.2453 2.82073 25.5422L3.38323 24.9094C5.58636 22.3313 6.71136 19.3547 6.75823 15.9797V14.6438C6.80511 11.8781 7.67229 9.4875 9.35979 7.47188C11.0004 5.45625 13.1332 4.16719 15.7582 3.60469V2.26875C15.7582 1.6125 15.9692 1.07344 16.391 0.651566C16.8129 0.229691 17.352 0.0187531 18.0082 0.0187531ZM21.1723 34.6828C20.2817 35.5734 19.227 36.0188 18.0082 36.0188C16.7895 36.0188 15.7348 35.5734 14.8442 34.6828C13.9535 33.7922 13.5082 32.7375 13.5082 31.5188H22.5082C22.5082 32.7375 22.0629 33.7922 21.1723 34.6828Z" fill="white"/>
</svg>
