<svg width="16" height="19" viewBox="0 0 16 19" fill="none" xmlns="http://www.w3.org/2000/svg">
<path d="M8.00412 0.358498C8.33224 0.358498 8.60177 0.463966 8.81271 0.674904C9.02365 0.885841 9.12912 1.15537 9.12912 1.4835V2.15147C10.4416 2.43272 11.508 3.07725 12.3283 4.08506C13.1721 5.09287 13.6057 6.28819 13.6291 7.671V8.33897C13.6526 10.0499 14.2268 11.5382 15.3518 12.8038L15.5979 13.1202C15.9026 13.4718 15.9611 13.8702 15.7736 14.3155C15.5627 14.7374 15.2229 14.9601 14.7541 14.9835H1.25412C0.785365 14.9601 0.445522 14.7374 0.234584 14.3155C0.0470843 13.8702 0.105678 13.4718 0.410366 13.1202L0.691616 12.8038C1.79318 11.5147 2.35568 10.0265 2.37912 8.33897V7.671C2.40255 6.28819 2.83615 5.09287 3.6799 4.08506C4.50021 3.07725 5.56662 2.43272 6.87912 2.15147V1.4835C6.87912 1.15537 6.98458 0.885841 7.19552 0.674904C7.40646 0.463966 7.67599 0.358498 8.00412 0.358498ZM9.58615 17.6905C9.14083 18.1358 8.61349 18.3585 8.00412 18.3585C7.39474 18.3585 6.8674 18.1358 6.42208 17.6905C5.97677 17.2452 5.75412 16.7179 5.75412 16.1085H10.2541C10.2541 16.7179 10.0315 17.2452 9.58615 17.6905Z" fill="white"/>
</svg>
