<svg width="24" height="19" viewBox="0 0 24 19" fill="none" xmlns="http://www.w3.org/2000/svg">
<path d="M11.2422 1.48349V14.7022L3.92969 13.296V1.58896C3.95312 1.21396 4.08203 0.920995 4.31641 0.710057C4.57422 0.49912 4.87891 0.417089 5.23047 0.463964L11.2422 1.48349ZM3.71875 14.5968L11.8047 16.214L19.8906 14.5968C20.4531 14.4562 20.7578 14.0929 20.8047 13.5069V1.37803L21.7188 1.20224C22.0703 1.13193 22.375 1.20224 22.6328 1.41318C22.8906 1.62412 23.0312 1.91709 23.0547 2.29209V15.1944C23.0078 15.7804 22.7031 16.1437 22.1406 16.2843L11.8047 18.3585L1.46875 16.2843C0.90625 16.1437 0.601562 15.7804 0.554688 15.1944V2.29209C0.578125 1.91709 0.71875 1.62412 0.976562 1.41318C1.23438 1.20224 1.53906 1.13193 1.89062 1.20224L2.80469 1.37803V13.5069C2.85156 14.0929 3.15625 14.4562 3.71875 14.5968ZM12.3672 14.7022V1.48349L18.3789 0.463964C18.7305 0.417089 19.0352 0.49912 19.293 0.710057C19.5273 0.920995 19.6562 1.21396 19.6797 1.58896V13.296L12.3672 14.7022Z" fill="white"/>
</svg>
