<svg width="46" height="37" viewBox="0 0 46 37" fill="none" xmlns="http://www.w3.org/2000/svg">
<path d="M21.4844 2.26875V28.7062L6.85938 25.8937V2.47969C6.90625 1.72969 7.16406 1.14375 7.63281 0.721873C8.14844 0.299998 8.75781 0.135935 9.46094 0.229685L21.4844 2.26875ZM6.4375 28.4953L22.6094 31.7297L38.7812 28.4953C39.9062 28.2141 40.5156 27.4875 40.6094 26.3156V2.05781L42.4375 1.70625C43.1406 1.56562 43.75 1.70625 44.2656 2.12812C44.7812 2.55 45.0625 3.13594 45.1094 3.88594V29.6906C45.0156 30.8625 44.4062 31.5891 43.2812 31.8703L22.6094 36.0187L1.9375 31.8703C0.8125 31.5891 0.203125 30.8625 0.109375 29.6906V3.88594C0.15625 3.13594 0.4375 2.55 0.953125 2.12812C1.46875 1.70625 2.07812 1.56562 2.78125 1.70625L4.60938 2.05781V26.3156C4.70312 27.4875 5.3125 28.2141 6.4375 28.4953ZM23.7344 28.7062V2.26875L35.7578 0.229685C36.4609 0.135935 37.0703 0.299998 37.5859 0.721873C38.0547 1.14375 38.3125 1.72969 38.3594 2.47969V25.8937L23.7344 28.7062Z" fill="white"/>
</svg>
