<svg width="44" height="36" viewBox="0 0 44 36" fill="none" xmlns="http://www.w3.org/2000/svg">
<path d="M35.25 4.58906L33.2812 9.72188L21.9609 11.1984L21.4688 11.1281C21.7969 10.4719 21.9609 9.76875 21.9609 9.01875C21.9141 7.75313 21.4688 6.69844 20.625 5.85469C19.7812 5.01094 18.7266 4.56563 17.4609 4.51875C16.1953 4.56563 15.1406 5.01094 14.2969 5.85469C13.4531 6.69844 13.0078 7.75313 12.9609 9.01875C12.9609 9.39375 13.0078 9.74531 13.1016 10.0734L8.46094 9.51094C8.46094 9.46406 8.46094 9.44063 8.46094 9.44063C8.46094 9.3 8.46094 9.15938 8.46094 9.01875C8.50781 6.4875 9.375 4.35469 11.0625 2.62031C12.7969 0.932812 14.9297 0.065625 17.4609 0.01875C19.9922 0.065625 22.0781 0.909375 23.7188 2.55C25.4062 4.2375 26.3203 6.32344 26.4609 8.80781L28.9219 2.19844C29.2969 1.30781 29.8828 0.675 30.6797 0.3C31.5234 -0.075 32.3906 -0.0984375 33.2812 0.229687C34.1719 0.604688 34.8047 1.19062 35.1797 1.9875C35.5547 2.83125 35.5781 3.69844 35.25 4.58906ZM39.9609 23.7844V29.6906C39.9141 30.8156 39.3516 31.5422 38.2734 31.8703L23.0859 35.6672C22.3359 35.8547 21.6094 35.8547 20.9062 35.6672L5.64844 31.8703C4.57031 31.5422 4.00781 30.8156 3.96094 29.6906V23.7844L12.9609 26.3859C13.9453 26.6672 14.9062 26.6203 15.8438 26.2453C16.7344 25.8703 17.4609 25.2375 18.0234 24.3469L21.9609 17.8078L25.8984 24.3469C26.4609 25.2375 27.1875 25.8703 28.0781 26.2453C29.0156 26.5734 29.9766 26.6203 30.9609 26.3859L39.9609 23.7844ZM3.60938 11.9016C3.84375 11.4328 4.21875 11.2219 4.73438 11.2688L21.9609 13.4484L39.1875 11.2688C39.7031 11.2219 40.0781 11.4328 40.3125 11.9016L43.2656 17.7375C43.5469 18.3937 43.5469 19.0266 43.2656 19.6359C43.0312 20.2922 42.5625 20.7141 41.8594 20.9016L30.3984 24.2062C29.3203 24.4406 28.4531 24.1125 27.7969 23.2219L21.9609 13.4484L16.125 23.2219C15.4688 24.1125 14.6016 24.4406 13.5234 24.2062L2.0625 20.9016C1.35938 20.7141 0.890625 20.2922 0.65625 19.6359C0.375 19.0266 0.375 18.3937 0.65625 17.7375L3.60938 11.9016Z" fill="white"/>
</svg>
