<svg width="22" height="19" viewBox="0 0 22 19" fill="none" xmlns="http://www.w3.org/2000/svg">
<path d="M17.625 2.64365L16.6406 5.21006L10.9805 5.94834L10.7344 5.91318C10.8984 5.58506 10.9805 5.2335 10.9805 4.8585C10.957 4.22568 10.7344 3.69834 10.3125 3.27646C9.89062 2.85459 9.36328 2.63193 8.73047 2.6085C8.09766 2.63193 7.57031 2.85459 7.14844 3.27646C6.72656 3.69834 6.50391 4.22568 6.48047 4.8585C6.48047 5.046 6.50391 5.22178 6.55078 5.38584L4.23047 5.10459C4.23047 5.08115 4.23047 5.06943 4.23047 5.06943C4.23047 4.99912 4.23047 4.92881 4.23047 4.8585C4.25391 3.59287 4.6875 2.52646 5.53125 1.65928C6.39844 0.815527 7.46484 0.381934 8.73047 0.358496C9.99609 0.381934 11.0391 0.803809 11.8594 1.62412C12.7031 2.46787 13.1602 3.51084 13.2305 4.75303L14.4609 1.44834C14.6484 1.00303 14.9414 0.686621 15.3398 0.499121C15.7617 0.311621 16.1953 0.299902 16.6406 0.463965C17.0859 0.651465 17.4023 0.944434 17.5898 1.34287C17.7773 1.76475 17.7891 2.19834 17.625 2.64365ZM19.9805 12.2413V15.1944C19.957 15.7569 19.6758 16.1202 19.1367 16.2843L11.543 18.1827C11.168 18.2765 10.8047 18.2765 10.4531 18.1827L2.82422 16.2843C2.28516 16.1202 2.00391 15.7569 1.98047 15.1944V12.2413L6.48047 13.5421C6.97266 13.6827 7.45312 13.6593 7.92188 13.4718C8.36719 13.2843 8.73047 12.9679 9.01172 12.5226L10.9805 9.25303L12.9492 12.5226C13.2305 12.9679 13.5938 13.2843 14.0391 13.4718C14.5078 13.6358 14.9883 13.6593 15.4805 13.5421L19.9805 12.2413ZM1.80469 6.2999C1.92188 6.06553 2.10938 5.96006 2.36719 5.9835L10.9805 7.07334L19.5937 5.9835C19.8516 5.96006 20.0391 6.06553 20.1562 6.2999L21.6328 9.21787C21.7734 9.546 21.7734 9.8624 21.6328 10.1671C21.5156 10.4952 21.2812 10.7062 20.9297 10.7999L15.1992 12.4522C14.6602 12.5694 14.2266 12.4054 13.8984 11.9601L10.9805 7.07334L8.0625 11.9601C7.73438 12.4054 7.30078 12.5694 6.76172 12.4522L1.03125 10.7999C0.679688 10.7062 0.445312 10.4952 0.328125 10.1671C0.1875 9.8624 0.1875 9.546 0.328125 9.21787L1.80469 6.2999Z" fill="white"/>
</svg>
