<svg width="19" height="19" viewBox="0 0 19 19" fill="none" xmlns="http://www.w3.org/2000/svg">
<path d="M13.8086 14.878L4.42188 5.45615C3.60156 6.58115 3.17969 7.88194 3.15625 9.3585C3.20312 11.2804 3.85938 12.8741 5.125 14.1397C6.39062 15.4054 7.98438 16.0616 9.90625 16.1085C11.3828 16.0851 12.6836 15.6749 13.8086 14.878ZM15.4258 13.2608C16.2227 12.1358 16.6328 10.8351 16.6563 9.3585C16.6094 7.43662 15.9531 5.84287 14.6875 4.57725C13.4219 3.31162 11.8281 2.65537 9.90625 2.6085C8.42969 2.63194 7.12891 3.05381 6.00391 3.87412L15.4258 13.2608ZM0.90625 9.3585C0.929688 7.71787 1.32812 6.21787 2.10156 4.8585C2.89844 3.49912 4 2.39756 5.40625 1.55381C6.83594 0.756935 8.33594 0.358498 9.90625 0.358498C11.4766 0.358498 12.9766 0.756935 14.4063 1.55381C15.8125 2.39756 16.9141 3.49912 17.7109 4.8585C18.4844 6.21787 18.8828 7.71787 18.9063 9.3585C18.8828 10.9991 18.4844 12.4991 17.7109 13.8585C16.9141 15.2179 15.8125 16.3194 14.4063 17.1632C12.9766 17.9601 11.4766 18.3585 9.90625 18.3585C8.33594 18.3585 6.83594 17.9601 5.40625 17.1632C4 16.3194 2.89844 15.2179 2.10156 13.8585C1.32812 12.4991 0.929688 10.9991 0.90625 9.3585Z" fill="white"/>
</svg>
