<svg width="37" height="37" viewBox="0 0 37 37" fill="none" xmlns="http://www.w3.org/2000/svg">
<path d="M26.6172 29.0578L7.84375 10.2141C6.20312 12.4641 5.35938 15.0656 5.3125 18.0188C5.40625 21.8625 6.71875 25.05 9.25 27.5813C11.7812 30.1125 14.9688 31.425 18.8125 31.5188C21.7656 31.4719 24.3672 30.6516 26.6172 29.0578ZM29.8516 25.8234C31.4453 23.5734 32.2656 20.9719 32.3125 18.0188C32.2188 14.175 30.9063 10.9875 28.375 8.45625C25.8438 5.925 22.6562 4.6125 18.8125 4.51875C15.8594 4.56563 13.2578 5.40938 11.0078 7.05L29.8516 25.8234ZM0.8125 18.0188C0.859375 14.7375 1.65625 11.7375 3.20312 9.01875C4.79688 6.3 7 4.09688 9.8125 2.40938C12.6719 0.815628 15.6719 0.0187531 18.8125 0.0187531C21.9531 0.0187531 24.9531 0.815628 27.8125 2.40938C30.625 4.09688 32.8281 6.3 34.4219 9.01875C35.9688 11.7375 36.7656 14.7375 36.8125 18.0188C36.7656 21.3 35.9688 24.3 34.4219 27.0188C32.8281 29.7375 30.625 31.9406 27.8125 33.6281C24.9531 35.2219 21.9531 36.0188 18.8125 36.0188C15.6719 36.0188 12.6719 35.2219 9.8125 33.6281C7 31.9406 4.79688 29.7375 3.20312 27.0188C1.65625 24.3 0.859375 21.3 0.8125 18.0188Z" fill="white"/>
</svg>
