<svg width="36" height="36" viewBox="0 0 36 36" fill="none" xmlns="http://www.w3.org/2000/svg">
<path d="M25.8047 29.0391L7.03125 10.1953C5.39062 12.4453 4.54688 15.0469 4.5 18C4.59375 21.8438 5.90625 25.0312 8.4375 27.5625C10.9688 30.0938 14.1562 31.4062 18 31.5C20.9531 31.4531 23.5547 30.6328 25.8047 29.0391ZM29.0391 25.8047C30.6328 23.5547 31.4531 20.9531 31.5 18C31.4063 14.1562 30.0938 10.9688 27.5625 8.4375C25.0313 5.90625 21.8438 4.59375 18 4.5C15.0469 4.54688 12.4453 5.39062 10.1953 7.03125L29.0391 25.8047ZM0 18C0.046875 14.7188 0.84375 11.7188 2.39062 9C3.98438 6.28125 6.1875 4.07812 9 2.39062C11.8594 0.796875 14.8594 0 18 0C21.1406 0 24.1406 0.796875 27 2.39062C29.8125 4.07812 32.0156 6.28125 33.6094 9C35.1563 11.7188 35.9531 14.7188 36 18C35.9531 21.2812 35.1563 24.2812 33.6094 27C32.0156 29.7188 29.8125 31.9219 27 33.6094C24.1406 35.2031 21.1406 36 18 36C14.8594 36 11.8594 35.2031 9 33.6094C6.1875 31.9219 3.98438 29.7188 2.39062 27C0.84375 24.2812 0.046875 21.2812 0 18Z" fill="white"/>
</svg>
