<svg width="37" height="37" viewBox="0 0 37 37" fill="none" xmlns="http://www.w3.org/2000/svg">
<path d="M18.0156 36.0188C14.7344 35.9719 11.7344 35.175 9.01562 33.6281C6.29688 32.0344 4.09375 29.8313 2.40625 27.0188C0.8125 24.1594 0.015625 21.1594 0.015625 18.0188C0.015625 14.8781 0.8125 11.8781 2.40625 9.01875C4.09375 6.20625 6.29688 4.00313 9.01562 2.40938C11.7344 0.862503 14.7344 0.0656281 18.0156 0.0187531C21.2969 0.0656281 24.2969 0.862503 27.0156 2.40938C29.7344 4.00313 31.9375 6.20625 33.625 9.01875C35.2188 11.8781 36.0156 14.8781 36.0156 18.0188C36.0156 21.1594 35.2188 24.1594 33.625 27.0188C31.9375 29.8313 29.7344 32.0344 27.0156 33.6281C24.2969 35.175 21.2969 35.9719 18.0156 36.0188ZM25.9609 14.7141C26.6172 13.9172 26.6172 13.1203 25.9609 12.3234C25.1641 11.6672 24.3672 11.6672 23.5703 12.3234L15.7656 20.1281L12.4609 16.8234C11.6641 16.1672 10.8672 16.1672 10.0703 16.8234C9.41406 17.6203 9.41406 18.4172 10.0703 19.2141L14.5703 23.7141C15.3672 24.3703 16.1641 24.3703 16.9609 23.7141L25.9609 14.7141Z" fill="white"/>
</svg>
