<svg width="17" height="12" viewBox="0 0 17 12" fill="none" xmlns="http://www.w3.org/2000/svg">
<path d="M16.0156 1.0499C16.2266 1.28428 16.332 1.55381 16.332 1.8585C16.332 2.16319 16.2266 2.43272 16.0156 2.66709L7.01562 11.6671C6.78125 11.878 6.51172 11.9835 6.20703 11.9835C5.90234 11.9835 5.63281 11.878 5.39844 11.6671L0.898438 7.16709C0.6875 6.93272 0.582031 6.66318 0.582031 6.3585C0.582031 6.05381 0.6875 5.78428 0.898438 5.5499C1.13281 5.33897 1.40234 5.2335 1.70703 5.2335C2.01172 5.2335 2.28125 5.33897 2.51562 5.5499L6.20703 9.27647L14.3984 1.0499C14.6328 0.838966 14.9023 0.733498 15.207 0.733498C15.5117 0.733498 15.7812 0.838966 16.0156 1.0499Z" fill="white"/>
</svg>
