<svg width="36" height="36" viewBox="0 0 36 36" fill="none" xmlns="http://www.w3.org/2000/svg">
<path d="M18 36C14.7188 35.9531 11.7188 35.1562 9 33.6094C6.28125 32.0156 4.07812 29.8125 2.39062 27C0.796875 24.1406 0 21.1406 0 18C0 14.8594 0.796875 11.8594 2.39062 9C4.07812 6.1875 6.28125 3.98438 9 2.39062C11.7188 0.84375 14.7188 0.046875 18 0C21.2812 0.046875 24.2812 0.84375 27 2.39062C29.7188 3.98438 31.9219 6.1875 33.6094 9C35.2031 11.8594 36 14.8594 36 18C36 21.1406 35.2031 24.1406 33.6094 27C31.9219 29.8125 29.7188 32.0156 27 33.6094C24.2812 35.1562 21.2812 35.9531 18 36ZM25.9453 14.6953C26.6016 13.8984 26.6016 13.1016 25.9453 12.3047C25.1484 11.6484 24.3516 11.6484 23.5547 12.3047L15.75 20.1094L12.4453 16.8047C11.6484 16.1484 10.8516 16.1484 10.0547 16.8047C9.39844 17.6016 9.39844 18.3984 10.0547 19.1953L14.5547 23.6953C15.3516 24.3516 16.1484 24.3516 16.9453 23.6953L25.9453 14.6953Z" fill="white"/>
</svg>
