<svg width="36" height="36" viewBox="0 0 36 36" fill="none" xmlns="http://www.w3.org/2000/svg">
<path d="M33.0312 7.40157C33.4531 7.87032 33.6641 8.40938 33.6641 9.01875C33.6641 9.62813 33.4531 10.1672 33.0312 10.6359L15.0312 28.6359C14.5625 29.0578 14.0234 29.2688 13.4141 29.2688C12.8047 29.2688 12.2656 29.0578 11.7969 28.6359L2.79688 19.6359C2.375 19.1672 2.16406 18.6281 2.16406 18.0188C2.16406 17.4094 2.375 16.8703 2.79688 16.4016C3.26562 15.9797 3.80469 15.7688 4.41406 15.7688C5.02344 15.7688 5.5625 15.9797 6.03125 16.4016L13.4141 23.8547L29.7969 7.40157C30.2656 6.97969 30.8047 6.76875 31.4141 6.76875C32.0234 6.76875 32.5625 6.97969 33.0312 7.40157Z" fill="white"/>
</svg>
