<svg width="18" height="19" viewBox="0 0 18 19" fill="none" xmlns="http://www.w3.org/2000/svg">
<path d="M9.00781 18.3585C7.36719 18.3351 5.86719 17.9366 4.50781 17.1632C3.14844 16.3663 2.04688 15.2647 1.20312 13.8585C0.40625 12.4288 0.0078125 10.9288 0.0078125 9.3585C0.0078125 7.78819 0.40625 6.28819 1.20312 4.8585C2.04688 3.45225 3.14844 2.35069 4.50781 1.55381C5.86719 0.780373 7.36719 0.381935 9.00781 0.358498C10.6484 0.381935 12.1484 0.780373 13.5078 1.55381C14.8672 2.35069 15.9688 3.45225 16.8125 4.8585C17.6094 6.28819 18.0078 7.78819 18.0078 9.3585C18.0078 10.9288 17.6094 12.4288 16.8125 13.8585C15.9688 15.2647 14.8672 16.3663 13.5078 17.1632C12.1484 17.9366 10.6484 18.3351 9.00781 18.3585ZM12.9805 7.70615C13.3086 7.30772 13.3086 6.90928 12.9805 6.51084C12.582 6.18272 12.1836 6.18272 11.7852 6.51084L7.88281 10.4132L6.23047 8.76084C5.83203 8.43272 5.43359 8.43272 5.03516 8.76084C4.70703 9.15928 4.70703 9.55772 5.03516 9.95615L7.28516 12.2062C7.68359 12.5343 8.08203 12.5343 8.48047 12.2062L12.9805 7.70615Z" fill="white"/>
</svg>
