<svg width="36" height="37" viewBox="0 0 36 37" fill="none" xmlns="http://www.w3.org/2000/svg">
<path d="M18 36.0188C14.7188 35.9719 11.7188 35.175 9 33.6281C6.28125 32.0344 4.07812 29.8313 2.39062 27.0188C0.796875 24.1594 0 21.1594 0 18.0188C0 14.8781 0.796875 11.8781 2.39062 9.01875C4.07812 6.20625 6.28125 4.00313 9 2.40938C11.7188 0.862503 14.7188 0.0656281 18 0.0187531C21.2812 0.0656281 24.2812 0.862503 27 2.40938C29.7188 4.00313 31.9219 6.20625 33.6094 9.01875C35.2031 11.8781 36 14.8781 36 18.0188C36 21.1594 35.2031 24.1594 33.6094 27.0188C31.9219 29.8313 29.7188 32.0344 27 33.6281C24.2812 35.175 21.2812 35.9719 18 36.0188ZM11.25 15.7688C10.5938 15.7688 10.0547 15.9797 9.63281 16.4016C9.21094 16.8234 9 17.3625 9 18.0188C9 18.675 9.21094 19.2141 9.63281 19.6359C10.0547 20.0578 10.5938 20.2688 11.25 20.2688C11.9062 20.2688 12.4453 20.0578 12.8672 19.6359C13.2891 19.2141 13.5 18.675 13.5 18.0188C13.5 17.3625 13.2891 16.8234 12.8672 16.4016C12.4453 15.9797 11.9062 15.7688 11.25 15.7688ZM15.75 18.0188C15.75 18.675 15.9609 19.2141 16.3828 19.6359C16.8047 20.0578 17.3438 20.2688 18 20.2688C18.6562 20.2688 19.1953 20.0578 19.6172 19.6359C20.0391 19.2141 20.25 18.675 20.25 18.0188C20.25 17.3625 20.0391 16.8234 19.6172 16.4016C19.1953 15.9797 18.6562 15.7688 18 15.7688C17.3438 15.7688 16.8047 15.9797 16.3828 16.4016C15.9609 16.8234 15.75 17.3625 15.75 18.0188ZM24.75 15.7688C24.0938 15.7688 23.5547 15.9797 23.1328 16.4016C22.7109 16.8234 22.5 17.3625 22.5 18.0188C22.5 18.675 22.7109 19.2141 23.1328 19.6359C23.5547 20.0578 24.0938 20.2688 24.75 20.2688C25.4062 20.2688 25.9453 20.0578 26.3672 19.6359C26.7891 19.2141 27 18.675 27 18.0188C27 17.3625 26.7891 16.8234 26.3672 16.4016C25.9453 15.9797 25.4062 15.7688 24.75 15.7688Z" fill="white"/>
</svg>
