<svg width="19" height="19" viewBox="0 0 19 19" fill="none" xmlns="http://www.w3.org/2000/svg">
<path d="M9.68359 18.3585C8.04297 18.3351 6.54297 17.9366 5.18359 17.1632C3.82422 16.3663 2.72266 15.2647 1.87891 13.8585C1.08203 12.4288 0.683594 10.9288 0.683594 9.3585C0.683594 7.78819 1.08203 6.28819 1.87891 4.8585C2.72266 3.45225 3.82422 2.35069 5.18359 1.55381C6.54297 0.780373 8.04297 0.381935 9.68359 0.358498C11.3242 0.381935 12.8242 0.780373 14.1836 1.55381C15.543 2.35069 16.6445 3.45225 17.4883 4.8585C18.2852 6.28819 18.6836 7.78819 18.6836 9.3585C18.6836 10.9288 18.2852 12.4288 17.4883 13.8585C16.6445 15.2647 15.543 16.3663 14.1836 17.1632C12.8242 17.9366 11.3242 18.3351 9.68359 18.3585ZM6.30859 8.2335C5.98047 8.2335 5.71094 8.33897 5.5 8.5499C5.28906 8.76084 5.18359 9.03037 5.18359 9.3585C5.18359 9.68662 5.28906 9.95615 5.5 10.1671C5.71094 10.378 5.98047 10.4835 6.30859 10.4835C6.63672 10.4835 6.90625 10.378 7.11719 10.1671C7.32812 9.95615 7.43359 9.68662 7.43359 9.3585C7.43359 9.03037 7.32812 8.76084 7.11719 8.5499C6.90625 8.33897 6.63672 8.2335 6.30859 8.2335ZM8.55859 9.3585C8.55859 9.68662 8.66406 9.95615 8.875 10.1671C9.08594 10.378 9.35547 10.4835 9.68359 10.4835C10.0117 10.4835 10.2812 10.378 10.4922 10.1671C10.7031 9.95615 10.8086 9.68662 10.8086 9.3585C10.8086 9.03037 10.7031 8.76084 10.4922 8.5499C10.2812 8.33897 10.0117 8.2335 9.68359 8.2335C9.35547 8.2335 9.08594 8.33897 8.875 8.5499C8.66406 8.76084 8.55859 9.03037 8.55859 9.3585ZM13.0586 8.2335C12.7305 8.2335 12.4609 8.33897 12.25 8.5499C12.0391 8.76084 11.9336 9.03037 11.9336 9.3585C11.9336 9.68662 12.0391 9.95615 12.25 10.1671C12.4609 10.378 12.7305 10.4835 13.0586 10.4835C13.3867 10.4835 13.6562 10.378 13.8672 10.1671C14.0781 9.95615 14.1836 9.68662 14.1836 9.3585C14.1836 9.03037 14.0781 8.76084 13.8672 8.5499C13.6562 8.33897 13.3867 8.2335 13.0586 8.2335Z" fill="white"/>
</svg>
