<svg width="37" height="37" viewBox="0 0 37 37" fill="none" xmlns="http://www.w3.org/2000/svg">
<path d="M18.7188 5.57344V5.50313V30.5344L31.2344 18.0188L18.7188 5.57344ZM20.6875 0.862503L35.875 16.05C36.4375 16.6125 36.7188 17.2688 36.7188 18.0188C36.7188 18.7688 36.4375 19.425 35.875 19.9875L20.6875 35.175C20.125 35.7375 19.4688 36.0188 18.7188 36.0188C17.9688 36.0188 17.3125 35.7375 16.75 35.175L1.5625 19.9875C1 19.425 0.71875 18.7688 0.71875 18.0188C0.71875 17.2688 1 16.6125 1.5625 16.05L16.75 0.862503C17.3125 0.300003 17.9688 0.0187531 18.7188 0.0187531C19.4688 0.0187531 20.125 0.300003 20.6875 0.862503Z" fill="white"/>
</svg>
