<svg width="19" height="19" viewBox="0 0 19 19" fill="none" xmlns="http://www.w3.org/2000/svg">
<path d="M9.35938 3.13584V3.10069V15.6163L15.6172 9.3585L9.35938 3.13584ZM10.3438 0.780373L17.9375 8.37412C18.2188 8.65537 18.3594 8.9835 18.3594 9.3585C18.3594 9.7335 18.2188 10.0616 17.9375 10.3429L10.3438 17.9366C10.0625 18.2179 9.73438 18.3585 9.35938 18.3585C8.98438 18.3585 8.65625 18.2179 8.375 17.9366L0.78125 10.3429C0.5 10.0616 0.359375 9.7335 0.359375 9.3585C0.359375 8.9835 0.5 8.65537 0.78125 8.37412L8.375 0.780373C8.65625 0.499123 8.98438 0.358498 9.35938 0.358498C9.73438 0.358498 10.0625 0.499123 10.3438 0.780373Z" fill="white"/>
</svg>
