<svg width="16" height="5" viewBox="0 0 16 5" fill="none" xmlns="http://www.w3.org/2000/svg">
<path d="M0.316406 2.3585C0.339844 1.6085 0.667969 1.046 1.30078 0.670998C1.95703 0.295998 2.61328 0.295998 3.26953 0.670998C3.90234 1.046 4.23047 1.6085 4.25391 2.3585C4.23047 3.1085 3.90234 3.671 3.26953 4.046C2.61328 4.421 1.95703 4.421 1.30078 4.046C0.667969 3.671 0.339844 3.1085 0.316406 2.3585ZM5.94141 2.3585C5.96484 1.6085 6.29297 1.046 6.92578 0.670998C7.58203 0.295998 8.23828 0.295998 8.89453 0.670998C9.52734 1.046 9.85547 1.6085 9.87891 2.3585C9.85547 3.1085 9.52734 3.671 8.89453 4.046C8.23828 4.421 7.58203 4.421 6.92578 4.046C6.29297 3.671 5.96484 3.1085 5.94141 2.3585ZM13.5352 0.389748C14.2852 0.413185 14.8477 0.74131 15.2227 1.37412C15.5977 2.03037 15.5977 2.68662 15.2227 3.34287C14.8477 3.97568 14.2852 4.30381 13.5352 4.32725C12.7852 4.30381 12.2227 3.97568 11.8477 3.34287C11.4727 2.68662 11.4727 2.03037 11.8477 1.37412C12.2227 0.74131 12.7852 0.413185 13.5352 0.389748Z" fill="white"/>
</svg>
