<svg width="36" height="36" viewBox="0 0 36 36" fill="none" xmlns="http://www.w3.org/2000/svg">
<path d="M2.8125 18.0188C2.85938 16.5188 3.51562 15.3938 4.78125 14.6438C6.09375 13.8938 7.40625 13.8938 8.71875 14.6438C9.98438 15.3938 10.6406 16.5188 10.6875 18.0188C10.6406 19.5188 9.98438 20.6438 8.71875 21.3938C7.40625 22.1438 6.09375 22.1438 4.78125 21.3938C3.51562 20.6438 2.85938 19.5188 2.8125 18.0188ZM14.0625 18.0188C14.1094 16.5188 14.7656 15.3938 16.0312 14.6438C17.3438 13.8938 18.6562 13.8938 19.9688 14.6438C21.2344 15.3938 21.8906 16.5188 21.9375 18.0188C21.8906 19.5188 21.2344 20.6438 19.9688 21.3938C18.6562 22.1438 17.3438 22.1438 16.0312 21.3938C14.7656 20.6438 14.1094 19.5188 14.0625 18.0188ZM29.25 14.0813C30.75 14.1281 31.875 14.7844 32.625 16.05C33.375 17.3625 33.375 18.675 32.625 19.9875C31.875 21.2531 30.75 21.9094 29.25 21.9563C27.75 21.9094 26.625 21.2531 25.875 19.9875C25.125 18.675 25.125 17.3625 25.875 16.05C26.625 14.7844 27.75 14.1281 29.25 14.0813Z" fill="white"/>
</svg>
