<svg width="37" height="36" viewBox="0 0 37 36" fill="none" xmlns="http://www.w3.org/2000/svg">
<path d="M3.63281 18.0188C3.67969 16.5188 4.33594 15.3938 5.60156 14.6438C6.91406 13.8938 8.22656 13.8938 9.53906 14.6438C10.8047 15.3938 11.4609 16.5188 11.5078 18.0188C11.4609 19.5188 10.8047 20.6438 9.53906 21.3938C8.22656 22.1438 6.91406 22.1438 5.60156 21.3938C4.33594 20.6438 3.67969 19.5188 3.63281 18.0188ZM14.8828 18.0188C14.9297 16.5188 15.5859 15.3938 16.8516 14.6438C18.1641 13.8938 19.4766 13.8938 20.7891 14.6438C22.0547 15.3938 22.7109 16.5188 22.7578 18.0188C22.7109 19.5188 22.0547 20.6438 20.7891 21.3938C19.4766 22.1438 18.1641 22.1438 16.8516 21.3938C15.5859 20.6438 14.9297 19.5188 14.8828 18.0188ZM30.0703 14.0813C31.5703 14.1281 32.6953 14.7844 33.4453 16.05C34.1953 17.3625 34.1953 18.675 33.4453 19.9875C32.6953 21.2531 31.5703 21.9094 30.0703 21.9563C28.5703 21.9094 27.4453 21.2531 26.6953 19.9875C25.9453 18.675 25.9453 17.3625 26.6953 16.05C27.4453 14.7844 28.5703 14.1281 30.0703 14.0813Z" fill="white"/>
</svg>
