<svg width="36" height="36" viewBox="0 0 36 36" fill="none" xmlns="http://www.w3.org/2000/svg">
<path d="M6.75 2.25V3.375L11.6016 2.17969C14.3672 1.52344 17.0391 1.80469 19.6172 3.02344C21.2578 3.82031 22.9688 4.21875 24.75 4.21875C26.5312 4.21875 28.2656 3.82031 29.9531 3.02344L30.5859 2.67188C31.3828 2.34375 32.0859 2.39062 32.6953 2.8125C33.3516 3.1875 33.7031 3.79688 33.75 4.64062V22.0781C33.7031 23.0625 33.2109 23.7656 32.2734 24.1875L29.8828 25.1016C26.4609 26.3203 23.1328 26.1328 19.8984 24.5391C17.1328 23.2266 14.25 22.9219 11.25 23.625L6.75 24.75V33.75C6.75 34.4062 6.53906 34.9453 6.11719 35.3672C5.69531 35.7891 5.15625 36 4.5 36C3.84375 36 3.30469 35.7891 2.88281 35.3672C2.46094 34.9453 2.25 34.4062 2.25 33.75V2.25C2.25 1.59375 2.46094 1.05469 2.88281 0.632812C3.30469 0.210938 3.84375 0 4.5 0C5.15625 0 5.69531 0.210938 6.11719 0.632812C6.53906 1.05469 6.75 1.59375 6.75 2.25Z" fill="white"/>
</svg>
