<svg width="37" height="37" viewBox="0 0 37 37" fill="none" xmlns="http://www.w3.org/2000/svg">
<path d="M7.42188 2.26875V3.39375L12.2734 2.19844C15.0391 1.54219 17.7109 1.82344 20.2891 3.04219C21.9297 3.83907 23.6406 4.2375 25.4219 4.2375C27.2031 4.2375 28.9375 3.83907 30.625 3.04219L31.2578 2.69063C32.0547 2.3625 32.7578 2.40938 33.3672 2.83125C34.0234 3.20625 34.375 3.81563 34.4219 4.65938V22.0969C34.375 23.0813 33.8828 23.7844 32.9453 24.2063L30.5547 25.1203C27.1328 26.3391 23.8047 26.1516 20.5703 24.5578C17.8047 23.2453 14.9219 22.9406 11.9219 23.6438L7.42188 24.7688V33.7688C7.42188 34.425 7.21094 34.9641 6.78906 35.3859C6.36719 35.8078 5.82812 36.0188 5.17188 36.0188C4.51562 36.0188 3.97656 35.8078 3.55469 35.3859C3.13281 34.9641 2.92188 34.425 2.92188 33.7688V2.26875C2.92188 1.6125 3.13281 1.07344 3.55469 0.651566C3.97656 0.229691 4.51562 0.0187531 5.17188 0.0187531C5.82812 0.0187531 6.36719 0.229691 6.78906 0.651566C7.21094 1.07344 7.42188 1.6125 7.42188 2.26875Z" fill="white"/>
</svg>
