<svg width="17" height="19" viewBox="0 0 17 19" fill="none" xmlns="http://www.w3.org/2000/svg">
<path d="M2.71094 1.4835V2.046L5.13672 1.44834C6.51953 1.12022 7.85547 1.26084 9.14453 1.87022C9.96484 2.26865 10.8203 2.46787 11.7109 2.46787C12.6016 2.46787 13.4688 2.26865 14.3125 1.87022L14.6289 1.69444C15.0273 1.53037 15.3789 1.55381 15.6836 1.76475C16.0117 1.95225 16.1875 2.25694 16.2109 2.67881V11.3976C16.1875 11.8897 15.9414 12.2413 15.4727 12.4522L14.2773 12.9093C12.5664 13.5187 10.9023 13.4249 9.28516 12.628C7.90234 11.9718 6.46094 11.8194 4.96094 12.171L2.71094 12.7335V17.2335C2.71094 17.5616 2.60547 17.8312 2.39453 18.0421C2.18359 18.253 1.91406 18.3585 1.58594 18.3585C1.25781 18.3585 0.988281 18.253 0.777344 18.0421C0.566406 17.8312 0.460938 17.5616 0.460938 17.2335V1.4835C0.460938 1.15537 0.566406 0.885841 0.777344 0.674904C0.988281 0.463966 1.25781 0.358498 1.58594 0.358498C1.91406 0.358498 2.18359 0.463966 2.39453 0.674904C2.60547 0.885841 2.71094 1.15537 2.71094 1.4835Z" fill="white"/>
</svg>
