<svg width="19" height="19" viewBox="0 0 19 19" fill="none" xmlns="http://www.w3.org/2000/svg">
<path d="M12.1016 0.674904L12.6641 1.2374C12.875 1.47178 12.9805 1.74131 12.9805 2.046C12.9805 2.35069 12.875 2.62022 12.6641 2.85459L12.5234 2.99522L16.25 6.72178L16.3906 6.58115C16.625 6.37022 16.8945 6.26475 17.1992 6.26475C17.5039 6.26475 17.7734 6.37022 18.0078 6.58115L18.5703 7.14365C18.7812 7.37803 18.8867 7.64756 18.8867 7.95225C18.8867 8.25694 18.7812 8.52647 18.5703 8.76084L14.3516 12.9796C14.1172 13.1905 13.8477 13.296 13.543 13.296C13.2383 13.296 12.9688 13.1905 12.7344 12.9796L12.1719 12.4171C11.9609 12.1827 11.8555 11.9132 11.8555 11.6085C11.8555 11.3038 11.9609 11.0343 12.1719 10.7999L12.3125 10.6593L8.58594 6.93272L8.44531 7.07334C8.21094 7.28428 7.94141 7.38975 7.63672 7.38975C7.33203 7.38975 7.0625 7.28428 6.82812 7.07334L6.26562 6.51084C6.05469 6.27647 5.94922 6.00694 5.94922 5.70225C5.94922 5.39756 6.05469 5.12803 6.26562 4.89365L10.4844 0.674904C10.7188 0.463966 10.9883 0.358498 11.293 0.358498C11.5977 0.358498 11.8672 0.463966 12.1016 0.674904ZM6.75781 10.7999L6.79297 10.8702L8.86719 8.796L10.4492 10.378L8.375 12.4522L8.44531 12.4874C8.65625 12.7218 8.76172 12.9913 8.76172 13.296C8.76172 13.6007 8.65625 13.8702 8.44531 14.1046L4.50781 18.0421C4.27344 18.253 4.00391 18.3585 3.69922 18.3585C3.39453 18.3585 3.125 18.253 2.89062 18.0421L1.20312 16.3546C0.992188 16.1202 0.886719 15.8507 0.886719 15.546C0.886719 15.2413 0.992188 14.9718 1.20312 14.7374L5.14062 10.7999C5.375 10.589 5.64453 10.4835 5.94922 10.4835C6.25391 10.4835 6.52344 10.589 6.75781 10.7999Z" fill="white"/>
</svg>
