<svg width="36" height="36" viewBox="0 0 36 36" fill="none" xmlns="http://www.w3.org/2000/svg">
<path d="M22.4297 0.632812L23.5547 1.75781C23.9766 2.22656 24.1875 2.76562 24.1875 3.375C24.1875 3.98438 23.9766 4.52344 23.5547 4.99219L23.2734 5.27344L30.7266 12.7266L31.0078 12.4453C31.4766 12.0234 32.0156 11.8125 32.625 11.8125C33.2344 11.8125 33.7734 12.0234 34.2422 12.4453L35.3672 13.5703C35.7891 14.0391 36 14.5781 36 15.1875C36 15.7969 35.7891 16.3359 35.3672 16.8047L26.9297 25.2422C26.4609 25.6641 25.9219 25.875 25.3125 25.875C24.7031 25.875 24.1641 25.6641 23.6953 25.2422L22.5703 24.1172C22.1484 23.6484 21.9375 23.1094 21.9375 22.5C21.9375 21.8906 22.1484 21.3516 22.5703 20.8828L22.8516 20.6016L15.3984 13.1484L15.1172 13.4297C14.6484 13.8516 14.1094 14.0625 13.5 14.0625C12.8906 14.0625 12.3516 13.8516 11.8828 13.4297L10.7578 12.3047C10.3359 11.8359 10.125 11.2969 10.125 10.6875C10.125 10.0781 10.3359 9.53906 10.7578 9.07031L19.1953 0.632812C19.6641 0.210938 20.2031 0 20.8125 0C21.4219 0 21.9609 0.210938 22.4297 0.632812ZM11.7422 20.8828L11.8125 21.0234L15.9609 16.875L19.125 20.0391L14.9766 24.1875L15.1172 24.2578C15.5391 24.7266 15.75 25.2656 15.75 25.875C15.75 26.4844 15.5391 27.0234 15.1172 27.4922L7.24219 35.3672C6.77344 35.7891 6.23438 36 5.625 36C5.01562 36 4.47656 35.7891 4.00781 35.3672L0.632812 31.9922C0.210938 31.5234 0 30.9844 0 30.375C0 29.7656 0.210938 29.2266 0.632812 28.7578L8.50781 20.8828C8.97656 20.4609 9.51562 20.25 10.125 20.25C10.7344 20.25 11.2734 20.4609 11.7422 20.8828Z" fill="white"/>
</svg>
