<svg width="37" height="36" viewBox="0 0 37 36" fill="none" xmlns="http://www.w3.org/2000/svg">
<path d="M23.3271 0.632812L24.4521 1.75781C24.874 2.22656 25.085 2.76562 25.085 3.375C25.085 3.98438 24.874 4.52344 24.4521 4.99219L24.1709 5.27344L31.624 12.7266L31.9053 12.4453C32.374 12.0234 32.9131 11.8125 33.5225 11.8125C34.1318 11.8125 34.6709 12.0234 35.1396 12.4453L36.2646 13.5703C36.6865 14.0391 36.8975 14.5781 36.8975 15.1875C36.8975 15.7969 36.6865 16.3359 36.2646 16.8047L27.8271 25.2422C27.3584 25.6641 26.8193 25.875 26.21 25.875C25.6006 25.875 25.0615 25.6641 24.5928 25.2422L23.4678 24.1172C23.0459 23.6484 22.835 23.1094 22.835 22.5C22.835 21.8906 23.0459 21.3516 23.4678 20.8828L23.749 20.6016L16.2959 13.1484L16.0146 13.4297C15.5459 13.8516 15.0068 14.0625 14.3975 14.0625C13.7881 14.0625 13.249 13.8516 12.7803 13.4297L11.6553 12.3047C11.2334 11.8359 11.0225 11.2969 11.0225 10.6875C11.0225 10.0781 11.2334 9.53906 11.6553 9.07031L20.0928 0.632812C20.5615 0.210938 21.1006 0 21.71 0C22.3193 0 22.8584 0.210938 23.3271 0.632812ZM12.6396 20.8828L12.71 21.0234L16.8584 16.875L20.0225 20.0391L15.874 24.1875L16.0146 24.2578C16.4365 24.7266 16.6475 25.2656 16.6475 25.875C16.6475 26.4844 16.4365 27.0234 16.0146 27.4922L8.13965 35.3672C7.6709 35.7891 7.13184 36 6.52246 36C5.91309 36 5.37402 35.7891 4.90527 35.3672L1.53027 31.9922C1.1084 31.5234 0.897461 30.9844 0.897461 30.375C0.897461 29.7656 1.1084 29.2266 1.53027 28.7578L9.40527 20.8828C9.87402 20.4609 10.4131 20.25 11.0225 20.25C11.6318 20.25 12.1709 20.4609 12.6396 20.8828Z" fill="white"/>
</svg>
