<svg width="23" height="19" viewBox="0 0 23 19" fill="none" xmlns="http://www.w3.org/2000/svg">
<path d="M11.4257 5.10459H11.3906L10.6171 5.80772C10.664 6.04209 10.6874 6.28819 10.6874 6.546C10.6874 6.80381 10.664 7.0499 10.6171 7.28428L11.3906 7.9874C11.6718 8.22178 11.7538 8.51475 11.6367 8.86631C11.5429 9.05381 11.4492 9.22959 11.3554 9.39365L11.2499 9.60459C11.1328 9.76865 11.0156 9.93272 10.8984 10.0968C10.664 10.378 10.371 10.4601 10.0195 10.3429L9.0351 10.0265C8.6601 10.3312 8.23822 10.5772 7.76947 10.7647L7.55854 11.7843C7.46479 12.1358 7.24213 12.3468 6.89057 12.4171C6.65619 12.4405 6.42182 12.4522 6.18744 12.4522C5.95307 12.4522 5.71869 12.4405 5.48432 12.4171C5.13276 12.3468 4.9101 12.1358 4.81635 11.7843L4.60541 10.7647C4.13666 10.5772 3.71479 10.3312 3.33979 10.0265L2.35541 10.3429C2.00385 10.4601 1.71088 10.378 1.47651 10.0968C1.33588 9.93272 1.21869 9.76865 1.12494 9.60459L1.01947 9.39365C0.925724 9.22959 0.831974 9.05381 0.738224 8.86631C0.621036 8.51475 0.703068 8.22178 0.984318 7.9874L1.75776 7.28428C1.71088 7.0499 1.68744 6.80381 1.68744 6.546C1.68744 6.28819 1.71088 6.04209 1.75776 5.80772L0.984318 5.10459C0.703068 4.87022 0.621036 4.57725 0.738224 4.22569C0.831974 4.03819 0.925724 3.8624 1.01947 3.69834L1.12494 3.52256C1.24213 3.33506 1.35932 3.15928 1.47651 2.99522C1.71088 2.71397 2.00385 2.63194 2.35541 2.74912L3.33979 3.06553C3.71479 2.76084 4.13666 2.51475 4.60541 2.32725L4.81635 1.30772C4.9101 0.956154 5.13276 0.745216 5.48432 0.674904C5.71869 0.651466 5.95307 0.639748 6.18744 0.639748C6.44526 0.639748 6.69135 0.651466 6.92572 0.674904C7.25385 0.745216 7.46479 0.956154 7.55854 1.30772L7.76947 2.32725C8.23822 2.51475 8.6601 2.76084 9.0351 3.06553L10.0546 2.74912C10.3828 2.63194 10.664 2.71397 10.8984 2.99522C11.0156 3.15928 11.1328 3.32334 11.2499 3.4874L11.3554 3.69834C11.4492 3.8624 11.5429 4.03819 11.6367 4.22569C11.7538 4.57725 11.6835 4.87022 11.4257 5.10459ZM4.49994 6.546C4.52338 7.17881 4.80463 7.671 5.34369 8.02256C5.90619 8.30381 6.46869 8.30381 7.03119 8.02256C7.57026 7.671 7.85151 7.17881 7.87494 6.546C7.85151 5.91319 7.57026 5.421 7.03119 5.06944C6.46869 4.78819 5.90619 4.78819 5.34369 5.06944C4.80463 5.421 4.52338 5.91319 4.49994 6.546ZM18.3163 17.9718V17.9366L17.6132 17.1632C17.3788 17.2101 17.1328 17.2335 16.8749 17.2335C16.6171 17.2335 16.371 17.2101 16.1367 17.1632L15.4335 17.9366C15.1992 18.2179 14.9062 18.2999 14.5546 18.1827C14.3671 18.089 14.1913 17.9952 14.0273 17.9015L13.8515 17.796C13.664 17.6788 13.4882 17.5616 13.3242 17.4444C13.0429 17.2101 12.9609 16.9171 13.0781 16.5655L13.3945 15.5812C13.0898 15.2062 12.8437 14.7843 12.6562 14.3155L11.6367 14.1046C11.2851 14.0108 11.0742 13.7882 11.0038 13.4366C10.9804 13.2022 10.9687 12.9679 10.9687 12.7335C10.9687 12.4991 10.9804 12.2647 11.0038 12.0304C11.0742 11.6788 11.2851 11.4562 11.6367 11.3624L12.6562 11.1515C12.8437 10.6827 13.0898 10.2608 13.3945 9.88584L13.0781 8.90147C12.9609 8.5499 13.0429 8.25694 13.3242 8.02256C13.4882 7.90537 13.664 7.78819 13.8515 7.671L14.0273 7.56553C14.1913 7.47178 14.3671 7.37803 14.5546 7.28428C14.9062 7.16709 15.1992 7.24912 15.4335 7.53037L16.1367 8.30381C16.371 8.25694 16.6171 8.2335 16.8749 8.2335C17.1328 8.2335 17.3788 8.25694 17.6132 8.30381L18.3163 7.53037C18.5507 7.24912 18.8437 7.16709 19.1953 7.28428C19.3828 7.37803 19.5585 7.47178 19.7226 7.56553L19.9335 7.671C20.0976 7.78819 20.2617 7.90537 20.4257 8.02256C20.707 8.25694 20.789 8.5499 20.6718 8.90147L20.3554 9.88584C20.6601 10.2608 20.9062 10.6827 21.0937 11.1515L22.1132 11.3624C22.4648 11.4562 22.6757 11.6788 22.746 12.0304C22.7695 12.2647 22.7812 12.4991 22.7812 12.7335C22.7812 12.9679 22.7695 13.2022 22.746 13.4366C22.6757 13.7882 22.4648 14.0108 22.1132 14.1046L21.0937 14.3155C20.9062 14.7843 20.6601 15.2062 20.3554 15.5812L20.6718 16.6007C20.789 16.9288 20.707 17.2101 20.4257 17.4444C20.2617 17.5616 20.0976 17.6788 19.9335 17.796L19.7226 17.9015C19.5585 17.9952 19.3828 18.089 19.1953 18.1827C18.8437 18.2999 18.5507 18.2296 18.3163 17.9718ZM16.8749 11.046C16.2421 11.0694 15.7499 11.3507 15.3984 11.8897C15.1171 12.4522 15.1171 13.0147 15.3984 13.5772C15.7499 14.1163 16.2421 14.3976 16.8749 14.421C17.5078 14.3976 17.9999 14.1163 18.3515 13.5772C18.6328 13.0147 18.6328 12.4522 18.3515 11.8897C17.9999 11.3507 17.5078 11.0694 16.8749 11.046Z" fill="white"/>
</svg>
