<svg width="21" height="19" viewBox="0 0 21 19" fill="none" xmlns="http://www.w3.org/2000/svg">
<path d="M15.293 8.72569C14.2383 8.88975 13.3008 8.58506 12.4805 7.81162L11.1094 6.47569C10.5703 5.91319 10.3008 5.25694 10.3008 4.50694V4.08506L7.48828 2.53819C7.30078 2.421 7.20703 2.24522 7.20703 2.01084C7.23047 1.7999 7.34766 1.63584 7.55859 1.51865L9.21094 0.780373C9.86719 0.499123 10.5469 0.358498 11.25 0.358498H11.8828C13.2188 0.381935 14.3789 0.838966 15.3633 1.72959L16.9453 3.20615C17.7891 4.07334 18.0938 5.08115 17.8594 6.22959L18.4219 6.79209L18.7031 6.51084C19.1016 6.18272 19.5 6.18272 19.8984 6.51084L20.7422 7.35459C21.0703 7.75303 21.0703 8.15147 20.7422 8.5499L17.6484 11.6437C17.25 11.9718 16.8516 11.9718 16.4531 11.6437L15.6094 10.7999C15.2812 10.4015 15.2812 10.003 15.6094 9.60459L15.8906 9.32334L15.293 8.72569ZM1.6875 13.6124L9.91406 6.79209C10.0312 6.95615 10.1719 7.12022 10.3359 7.28428L11.6719 8.62022C11.8828 8.83115 12.1055 9.00694 12.3398 9.14756L5.48438 17.4093C4.94531 18.0187 4.25391 18.3351 3.41016 18.3585C2.66016 18.3351 2.02734 18.0772 1.51172 17.5851C1.01953 17.0694 0.761719 16.4366 0.738281 15.6866C0.761719 14.8429 1.07812 14.1515 1.6875 13.6124Z" fill="white"/>
</svg>
