<svg width="41" height="36" viewBox="0 0 41 36" fill="none" xmlns="http://www.w3.org/2000/svg">
<path d="M29.5859 16.7344C27.4766 17.0625 25.6016 16.4531 23.9609 14.9062L21.2188 12.2344C20.1406 11.1094 19.6016 9.79688 19.6016 8.29688V7.45312L13.9766 4.35938C13.6016 4.125 13.4141 3.77344 13.4141 3.30469C13.4609 2.88281 13.6953 2.55469 14.1172 2.32031L17.4219 0.84375C18.7344 0.28125 20.0938 0 21.5 0H22.7656C25.4375 0.046875 27.7578 0.960938 29.7266 2.74219L32.8906 5.69531C34.5781 7.42969 35.1875 9.44531 34.7188 11.7422L35.8438 12.8672L36.4062 12.3047C37.2031 11.6484 38 11.6484 38.7969 12.3047L40.4844 13.9922C41.1406 14.7891 41.1406 15.5859 40.4844 16.3828L34.2969 22.5703C33.5 23.2266 32.7031 23.2266 31.9062 22.5703L30.2188 20.8828C29.5625 20.0859 29.5625 19.2891 30.2188 18.4922L30.7812 17.9297L29.5859 16.7344ZM2.375 26.5078L18.8281 12.8672C19.0625 13.1953 19.3438 13.5234 19.6719 13.8516L22.3438 16.5234C22.7656 16.9453 23.2109 17.2969 23.6797 17.5781L9.96875 34.1016C8.89062 35.3203 7.50781 35.9531 5.82031 36C4.32031 35.9531 3.05469 35.4375 2.02344 34.4531C1.03906 33.4219 0.523438 32.1562 0.476562 30.6562C0.523438 28.9688 1.15625 27.5859 2.375 26.5078Z" fill="white"/>
</svg>
