<svg width="41" height="37" viewBox="0 0 41 37" fill="none" xmlns="http://www.w3.org/2000/svg">
<path d="M29.5859 16.7531C27.4766 17.0813 25.6016 16.4719 23.9609 14.925L21.2188 12.2531C20.1406 11.1281 19.6016 9.81563 19.6016 8.31563V7.47188L13.9766 4.37813C13.6016 4.14375 13.4141 3.79219 13.4141 3.32344C13.4609 2.90157 13.6953 2.57344 14.1172 2.33907L17.4219 0.862503C18.7344 0.300003 20.0938 0.0187531 21.5 0.0187531H22.7656C25.4375 0.0656281 27.7578 0.979691 29.7266 2.76094L32.8906 5.71407C34.5781 7.44844 35.1875 9.46407 34.7188 11.7609L35.8438 12.8859L36.4062 12.3234C37.2031 11.6672 38 11.6672 38.7969 12.3234L40.4844 14.0109C41.1406 14.8078 41.1406 15.6047 40.4844 16.4016L34.2969 22.5891C33.5 23.2453 32.7031 23.2453 31.9062 22.5891L30.2188 20.9016C29.5625 20.1047 29.5625 19.3078 30.2188 18.5109L30.7812 17.9484L29.5859 16.7531ZM2.375 26.5266L18.8281 12.8859C19.0625 13.2141 19.3438 13.5422 19.6719 13.8703L22.3438 16.5422C22.7656 16.9641 23.2109 17.3156 23.6797 17.5969L9.96875 34.1203C8.89062 35.3391 7.50781 35.9719 5.82031 36.0188C4.32031 35.9719 3.05469 35.4563 2.02344 34.4719C1.03906 33.4406 0.523438 32.175 0.476562 30.675C0.523438 28.9875 1.15625 27.6047 2.375 26.5266Z" fill="white"/>
</svg>
