<svg width="19" height="17" viewBox="0 0 19 17" fill="none" xmlns="http://www.w3.org/2000/svg">
<path d="M2.35156 9.90537C1.25 8.87412 0.6875 7.59678 0.664062 6.07334V5.8624C0.6875 4.59678 1.08594 3.51865 1.85938 2.62803C2.63281 1.71397 3.62891 1.13975 4.84766 0.905373C5.66797 0.788185 6.46484 0.846779 7.23828 1.08115C7.98828 1.31553 8.65625 1.72569 9.24219 2.31162L9.66406 2.7335L10.0859 2.31162C10.6719 1.72569 11.3398 1.31553 12.0898 1.08115C12.8633 0.846779 13.6602 0.788185 14.4805 0.905373C15.6992 1.13975 16.6953 1.71397 17.4688 2.62803C18.2422 3.51865 18.6406 4.59678 18.6641 5.8624V6.07334C18.6406 7.59678 18.0781 8.87412 16.9766 9.90537L10.6484 15.8468C10.3672 16.1046 10.0391 16.2335 9.66406 16.2335C9.28906 16.2335 8.96094 16.1046 8.67969 15.8468L2.35156 9.90537Z" fill="white"/>
</svg>
