<svg width="21" height="19" viewBox="0 0 21 19" fill="none" xmlns="http://www.w3.org/2000/svg">
<path d="M19.4648 10.4835H18.3398V16.1085C18.3398 16.2022 18.3398 16.296 18.3398 16.3897V16.9522C18.3164 17.3507 18.1758 17.6788 17.918 17.9366C17.6602 18.2179 17.332 18.3585 16.9336 18.3585H16.3711C16.3242 18.3585 16.2891 18.3585 16.2656 18.3585C16.2188 18.3585 16.1602 18.3585 16.0898 18.3585H14.1211C13.7227 18.3585 13.3945 18.2179 13.1367 17.9366C12.8555 17.6788 12.7148 17.3507 12.7148 16.9522V13.8585C12.7148 13.5304 12.6094 13.2608 12.3984 13.0499C12.1875 12.839 11.918 12.7335 11.5898 12.7335H9.33984C9.01172 12.7335 8.74219 12.839 8.53125 13.0499C8.32031 13.2608 8.21484 13.5304 8.21484 13.8585V16.9522C8.19141 17.3507 8.05078 17.6788 7.79297 17.9366C7.53516 18.2179 7.20703 18.3585 6.80859 18.3585H4.83984C4.81641 18.3585 4.79297 18.3585 4.76953 18.3585C4.74609 18.3585 4.72266 18.3585 4.69922 18.3585C4.65234 18.3585 4.60547 18.3585 4.55859 18.3585H3.99609C3.59766 18.3585 3.26953 18.2179 3.01172 17.9366C2.73047 17.6788 2.58984 17.3507 2.58984 16.9522V13.0147C2.58984 12.9913 2.58984 12.9562 2.58984 12.9093V10.4835H1.46484C1.13672 10.4601 0.867188 10.3429 0.65625 10.1319C0.445312 9.921 0.339844 9.66318 0.339844 9.3585C0.339844 9.03037 0.457031 8.74912 0.691406 8.51475L9.72656 0.639746C9.98438 0.428809 10.2422 0.335059 10.5 0.358496C10.7578 0.358496 11.0039 0.440527 11.2383 0.60459L14.9648 3.90928V2.6085C14.9648 2.28037 15.0703 2.01084 15.2812 1.7999C15.4922 1.58896 15.7617 1.4835 16.0898 1.4835H17.2148C17.543 1.4835 17.8125 1.58896 18.0234 1.7999C18.2344 2.01084 18.3398 2.28037 18.3398 2.6085V6.8624L20.2031 8.51475C20.4844 8.74912 20.6133 9.03037 20.5898 9.3585C20.5664 9.66318 20.4492 9.921 20.2383 10.1319C20.0273 10.3429 19.7695 10.4601 19.4648 10.4835Z" fill="white"/>
</svg>
