<svg width="42" height="36" viewBox="0 0 42 36" fill="none" xmlns="http://www.w3.org/2000/svg">
<path d="M39.25 20.257H37V31.507C37 31.6945 37 31.882 37 32.0695V33.1945C36.9531 33.9914 36.6719 34.6477 36.1562 35.1633C35.6406 35.7258 34.9844 36.007 34.1875 36.007H33.0625C32.9688 36.007 32.8984 36.007 32.8516 36.007C32.7578 36.007 32.6406 36.007 32.5 36.007H28.5625C27.7656 36.007 27.1094 35.7258 26.5938 35.1633C26.0312 34.6477 25.75 33.9914 25.75 33.1945V27.007C25.75 26.3508 25.5391 25.8117 25.1172 25.3898C24.6953 24.968 24.1562 24.757 23.5 24.757H19C18.3438 24.757 17.8047 24.968 17.3828 25.3898C16.9609 25.8117 16.75 26.3508 16.75 27.007V33.1945C16.7031 33.9914 16.4219 34.6477 15.9062 35.1633C15.3906 35.7258 14.7344 36.007 13.9375 36.007H10C9.95312 36.007 9.90625 36.007 9.85938 36.007C9.8125 36.007 9.76562 36.007 9.71875 36.007C9.625 36.007 9.53125 36.007 9.4375 36.007H8.3125C7.51562 36.007 6.85938 35.7258 6.34375 35.1633C5.78125 34.6477 5.5 33.9914 5.5 33.1945V25.3195C5.5 25.2727 5.5 25.2023 5.5 25.1086V20.257H3.25C2.59375 20.2102 2.05469 19.9758 1.63281 19.5539C1.21094 19.132 1 18.6164 1 18.007C1 17.3508 1.23438 16.7883 1.70312 16.3195L19.7734 0.569531C20.2891 0.147656 20.8047 -0.0398437 21.3203 0.00703125C21.8359 0.00703125 22.3281 0.171094 22.7969 0.499219L30.25 7.10859V4.50703C30.25 3.85078 30.4609 3.31172 30.8828 2.88984C31.3047 2.46797 31.8438 2.25703 32.5 2.25703H34.75C35.4062 2.25703 35.9453 2.46797 36.3672 2.88984C36.7891 3.31172 37 3.85078 37 4.50703V13.0148L40.7266 16.3195C41.2891 16.7883 41.5469 17.3508 41.5 18.007C41.4531 18.6164 41.2188 19.132 40.7969 19.5539C40.375 19.9758 39.8594 20.2102 39.25 20.257Z" fill="white"/>
</svg>
