<svg width="19" height="19" viewBox="0 0 19 19" fill="none" xmlns="http://www.w3.org/2000/svg">
<path d="M3.19141 0.358498H16.6914C17.3242 0.381935 17.8516 0.604591 18.2734 1.02647C18.6953 1.44834 18.918 1.97569 18.9414 2.6085V12.7335C18.918 13.3663 18.6953 13.8937 18.2734 14.3155C17.8516 14.7374 17.3242 14.9601 16.6914 14.9835H11.8047L7.48047 18.253C7.29297 18.3702 7.09375 18.3819 6.88281 18.2882C6.67188 18.1944 6.56641 18.0304 6.56641 17.796V14.9835H3.19141C2.55859 14.9601 2.03125 14.7374 1.60938 14.3155C1.1875 13.8937 0.964844 13.3663 0.941406 12.7335V2.6085C0.964844 1.97569 1.1875 1.44834 1.60938 1.02647C2.03125 0.604591 2.55859 0.381935 3.19141 0.358498Z" fill="white"/>
</svg>
