<svg width="45" height="36" viewBox="0 0 45 36" fill="none" xmlns="http://www.w3.org/2000/svg">
<path d="M4.5 0.0187531H24.75C26.0156 0.0656281 27.0703 0.510941 27.9141 1.35469C28.7578 2.19844 29.2031 3.25313 29.25 4.51875V18.0188C29.2031 19.2844 28.7578 20.3391 27.9141 21.1828C27.0703 22.0266 26.0156 22.4719 24.75 22.5188H14.2734L8.57812 26.8078C8.20312 27.0422 7.80469 27.0656 7.38281 26.8781C6.96094 26.6906 6.75 26.3625 6.75 25.8938V22.5188H4.5C3.23438 22.4719 2.17969 22.0266 1.33594 21.1828C0.492188 20.3391 0.046875 19.2844 0 18.0188V4.51875C0.046875 3.25313 0.492188 2.19844 1.33594 1.35469C2.17969 0.510941 3.23438 0.0656281 4.5 0.0187531ZM24.75 24.7688C26.6719 24.7219 28.2656 24.0656 29.5312 22.8C30.7969 21.5344 31.4531 19.9406 31.5 18.0188V9.01875H40.5C41.7656 9.06563 42.8203 9.51094 43.6641 10.3547C44.5078 11.1984 44.9531 12.2531 45 13.5188V27.0188C44.9531 28.2844 44.5078 29.3391 43.6641 30.1828C42.8203 31.0266 41.7656 31.4719 40.5 31.5188H38.25V34.8938C38.25 35.3625 38.0391 35.6906 37.6172 35.8781C37.1953 36.0656 36.7969 36.0422 36.4219 35.8078L30.7266 31.5188H22.5C21.2344 31.4719 20.1797 31.0266 19.3359 30.1828C18.4922 29.3391 18.0469 28.2844 18 27.0188V24.7688H24.75Z" fill="white"/>
</svg>
