<svg width="24" height="19" viewBox="0 0 24 19" fill="none" xmlns="http://www.w3.org/2000/svg">
	<path
		d="M2.86719 0.358498H12.9922C13.625 0.381935 14.1523 0.604591 14.5742 1.02647C14.9961 1.44834 15.2188 1.97569 15.2422 2.6085V9.3585C15.2188 9.99131 14.9961 10.5187 14.5742 10.9405C14.1523 11.3624 13.625 11.5851 12.9922 11.6085H7.75391L4.90625 13.753C4.71875 13.8702 4.51953 13.8819 4.30859 13.7882C4.09766 13.6944 3.99219 13.5304 3.99219 13.296V11.6085H2.86719C2.23438 11.5851 1.70703 11.3624 1.28516 10.9405C0.863281 10.5187 0.640625 9.99131 0.617188 9.3585V2.6085C0.640625 1.97569 0.863281 1.44834 1.28516 1.02647C1.70703 0.604591 2.23438 0.381935 2.86719 0.358498ZM12.9922 12.7335C13.9531 12.7101 14.75 12.3819 15.3828 11.7491C16.0156 11.1163 16.3438 10.3194 16.3672 9.3585V4.8585H20.8672C21.5 4.88194 22.0273 5.10459 22.4492 5.52647C22.8711 5.94834 23.0938 6.47569 23.1172 7.1085V13.8585C23.0938 14.4913 22.8711 15.0187 22.4492 15.4405C22.0273 15.8624 21.5 16.0851 20.8672 16.1085H19.7422V17.796C19.7422 18.0304 19.6367 18.1944 19.4258 18.2882C19.2148 18.3819 19.0156 18.3702 18.8281 18.253L15.9805 16.1085H11.8672C11.2344 16.0851 10.707 15.8624 10.2852 15.4405C9.86328 15.0187 9.64062 14.4913 9.61719 13.8585V12.7335H12.9922Z"
		fill="white" />
</svg>