<svg width="37" height="36" viewBox="0 0 37 36" fill="none" xmlns="http://www.w3.org/2000/svg">
<path d="M5.38281 0.0187531H32.3828C33.6484 0.0656281 34.7031 0.510941 35.5469 1.35469C36.3906 2.19844 36.8359 3.25313 36.8828 4.51875V24.7688C36.8359 26.0344 36.3906 27.0891 35.5469 27.9328C34.7031 28.7766 33.6484 29.2219 32.3828 29.2688H22.6094L13.9609 35.8078C13.5859 36.0422 13.1875 36.0656 12.7656 35.8781C12.3438 35.6906 12.1328 35.3625 12.1328 34.8938V29.2688H5.38281C4.11719 29.2219 3.0625 28.7766 2.21875 27.9328C1.375 27.0891 0.929688 26.0344 0.882812 24.7688V4.51875C0.929688 3.25313 1.375 2.19844 2.21875 1.35469C3.0625 0.510941 4.11719 0.0656281 5.38281 0.0187531Z" fill="white"/>
</svg>
