<svg width="37" height="37" viewBox="0 0 37 37" fill="none" xmlns="http://www.w3.org/2000/svg">
<path d="M18.0859 0.0187531C20.0078 0.0656281 21.6016 0.721878 22.8672 1.9875C24.1328 3.25313 24.7891 4.84688 24.8359 6.76875V18.0188C24.7891 19.9406 24.1328 21.5344 22.8672 22.8C21.6016 24.0656 20.0078 24.7219 18.0859 24.7688C16.1641 24.7219 14.5703 24.0656 13.3047 22.8C12.0391 21.5344 11.3828 19.9406 11.3359 18.0188V6.76875C11.3828 4.84688 12.0391 3.25313 13.3047 1.9875C14.5703 0.721878 16.1641 0.0656281 18.0859 0.0187531ZM9.08594 15.2063V18.0188C9.13281 20.55 10 22.6828 11.6875 24.4172C13.4219 26.1047 15.5547 26.9719 18.0859 27.0188C20.6172 26.9719 22.75 26.1047 24.4844 24.4172C26.1719 22.6828 27.0391 20.55 27.0859 18.0188V15.2063C27.1797 14.175 27.7422 13.6125 28.7734 13.5188C29.8047 13.6125 30.3672 14.175 30.4609 15.2063V18.0188C30.4141 21.2063 29.3828 23.925 27.3672 26.175C25.3984 28.425 22.8672 29.7844 19.7734 30.2531V32.6438H23.1484C24.1797 32.7375 24.7422 33.3 24.8359 34.3313C24.7422 35.3625 24.1797 35.925 23.1484 36.0188H13.0234C11.9922 35.925 11.4297 35.3625 11.3359 34.3313C11.4297 33.3 11.9922 32.7375 13.0234 32.6438H16.3984V30.2531C13.3047 29.7844 10.7734 28.425 8.80469 26.175C6.78906 23.925 5.75781 21.2063 5.71094 18.0188V15.2063C5.80469 14.175 6.36719 13.6125 7.39844 13.5188C8.42969 13.6125 8.99219 14.175 9.08594 15.2063Z" fill="white"/>
</svg>
