<svg width="13" height="19" viewBox="0 0 13 19" fill="none" xmlns="http://www.w3.org/2000/svg">
<path d="M6.54297 0.358498C7.50391 0.381935 8.30078 0.71006 8.93359 1.34287C9.56641 1.97569 9.89453 2.77256 9.91797 3.7335V9.3585C9.89453 10.3194 9.56641 11.1163 8.93359 11.7491C8.30078 12.3819 7.50391 12.7101 6.54297 12.7335C5.58203 12.7101 4.78516 12.3819 4.15234 11.7491C3.51953 11.1163 3.19141 10.3194 3.16797 9.3585V3.7335C3.19141 2.77256 3.51953 1.97569 4.15234 1.34287C4.78516 0.71006 5.58203 0.381935 6.54297 0.358498ZM2.04297 7.95225V9.3585C2.06641 10.6241 2.5 11.6905 3.34375 12.5577C4.21094 13.4015 5.27734 13.8351 6.54297 13.8585C7.80859 13.8351 8.875 13.4015 9.74219 12.5577C10.5859 11.6905 11.0195 10.6241 11.043 9.3585V7.95225C11.0898 7.43662 11.3711 7.15537 11.8867 7.1085C12.4023 7.15537 12.6836 7.43662 12.7305 7.95225V9.3585C12.707 10.9522 12.1914 12.3116 11.1836 13.4366C10.1992 14.5616 8.93359 15.2413 7.38672 15.4757V16.671H9.07422C9.58984 16.7179 9.87109 16.9991 9.91797 17.5147C9.87109 18.0304 9.58984 18.3116 9.07422 18.3585H4.01172C3.49609 18.3116 3.21484 18.0304 3.16797 17.5147C3.21484 16.9991 3.49609 16.7179 4.01172 16.671H5.69922V15.4757C4.15234 15.2413 2.88672 14.5616 1.90234 13.4366C0.894531 12.3116 0.378906 10.9522 0.355469 9.3585V7.95225C0.402344 7.43662 0.683594 7.15537 1.19922 7.1085C1.71484 7.15537 1.99609 7.43662 2.04297 7.95225Z" fill="white"/>
</svg>
