<svg width="45" height="36" viewBox="0 0 45 36" fill="none" xmlns="http://www.w3.org/2000/svg">
<path d="M37.6172 2.88281C36.9609 2.08594 36.9609 1.28906 37.6172 0.492188C38.4141 -0.164062 39.2109 -0.164062 40.0078 0.492188L44.5078 4.99219C44.8359 5.32031 45 5.71875 45 6.1875C45 6.65625 44.8359 7.05469 44.5078 7.38281L40.0078 11.8828C39.2109 12.5391 38.4141 12.5391 37.6172 11.8828C36.9609 11.0859 36.9609 10.2891 37.6172 9.49219L39.2344 7.875H27C25.9688 7.78125 25.4062 7.21875 25.3125 6.1875C25.4062 5.15625 25.9688 4.59375 27 4.5H39.2344L37.6172 2.88281ZM7.38281 26.5078L5.76562 28.125H18C19.0312 28.2188 19.5938 28.7812 19.6875 29.8125C19.5938 30.8438 19.0312 31.4062 18 31.5H5.76562L7.38281 33.1172C8.03906 33.9141 8.03906 34.7109 7.38281 35.5078C6.58594 36.1641 5.78906 36.1641 4.99219 35.5078L0.492188 31.0078C0.164062 30.6797 0 30.2812 0 29.8125C0 29.3438 0.164062 28.9453 0.492188 28.6172L4.99219 24.1172C5.78906 23.4609 6.58594 23.4609 7.38281 24.1172C8.03906 24.9141 8.03906 25.7109 7.38281 26.5078ZM6.75 4.5H23.7656C23.4844 5.01562 23.3438 5.57812 23.3438 6.1875C23.3906 7.21875 23.7422 8.08594 24.3984 8.78906C25.1016 9.44531 25.9688 9.79688 27 9.84375H35.2266C34.9453 11.1094 35.2734 12.2578 36.2109 13.2891C36.9609 13.9922 37.8281 14.3438 38.8125 14.3438C39.7969 14.3438 40.6641 13.9922 41.4141 13.2891L42.75 11.9531V27C42.7031 28.2656 42.2578 29.3203 41.4141 30.1641C40.5703 31.0078 39.5156 31.4531 38.25 31.5H21.2344C21.5156 30.9844 21.6562 30.4219 21.6562 29.8125C21.6094 28.7812 21.2578 27.9141 20.6016 27.2109C19.8984 26.5547 19.0312 26.2031 18 26.1562H9.77344C10.0547 24.8906 9.72656 23.7422 8.78906 22.7109C8.03906 22.0078 7.17188 21.6562 6.1875 21.6562C5.20312 21.6562 4.33594 22.0078 3.58594 22.7109L2.25 24.1172V9C2.29688 7.73438 2.74219 6.67969 3.58594 5.83594C4.42969 4.99219 5.48438 4.54688 6.75 4.5ZM11.25 9H6.75V13.5C8.01562 13.4531 9.07031 13.0078 9.91406 12.1641C10.7578 11.3203 11.2031 10.2656 11.25 9ZM38.25 22.5C36.9844 22.5469 35.9297 22.9922 35.0859 23.8359C34.2422 24.6797 33.7969 25.7344 33.75 27H38.25V22.5ZM22.5 24.75C23.7188 24.75 24.8438 24.4453 25.875 23.8359C26.9062 23.2266 27.7266 22.4062 28.3359 21.375C28.9453 20.2969 29.25 19.1719 29.25 18C29.25 16.8281 28.9453 15.7031 28.3359 14.625C27.7266 13.5938 26.9062 12.7734 25.875 12.1641C24.8438 11.5547 23.7188 11.25 22.5 11.25C21.2812 11.25 20.1562 11.5547 19.125 12.1641C18.0938 12.7734 17.2734 13.5938 16.6641 14.625C16.0547 15.7031 15.75 16.8281 15.75 18C15.75 19.1719 16.0547 20.2969 16.6641 21.375C17.2734 22.4062 18.0938 23.2266 19.125 23.8359C20.1562 24.4453 21.2812 24.75 22.5 24.75Z" fill="white"/>
</svg>
