<svg width="24" height="19" viewBox="0 0 24 19" fill="none" xmlns="http://www.w3.org/2000/svg">
<path d="M19.7773 1.7999C19.4492 1.40147 19.4492 1.00303 19.7773 0.604591C20.1758 0.276466 20.5742 0.276466 20.9727 0.604591L23.2227 2.85459C23.3867 3.01865 23.4688 3.21787 23.4688 3.45225C23.4688 3.68662 23.3867 3.88584 23.2227 4.0499L20.9727 6.2999C20.5742 6.62803 20.1758 6.62803 19.7773 6.2999C19.4492 5.90147 19.4492 5.50303 19.7773 5.10459L20.5859 4.296H14.4688C13.9531 4.24912 13.6719 3.96787 13.625 3.45225C13.6719 2.93662 13.9531 2.65537 14.4688 2.6085H20.5859L19.7773 1.7999ZM4.66016 13.6124L3.85156 14.421H9.96875C10.4844 14.4679 10.7656 14.7491 10.8125 15.2647C10.7656 15.7804 10.4844 16.0616 9.96875 16.1085H3.85156L4.66016 16.9171C4.98828 17.3155 4.98828 17.714 4.66016 18.1124C4.26172 18.4405 3.86328 18.4405 3.46484 18.1124L1.21484 15.8624C1.05078 15.6983 0.96875 15.4991 0.96875 15.2647C0.96875 15.0304 1.05078 14.8312 1.21484 14.6671L3.46484 12.4171C3.86328 12.089 4.26172 12.089 4.66016 12.4171C4.98828 12.8155 4.98828 13.214 4.66016 13.6124ZM4.34375 2.6085H12.8516C12.7109 2.86631 12.6406 3.14756 12.6406 3.45225C12.6641 3.96787 12.8398 4.40147 13.168 4.75303C13.5195 5.08115 13.9531 5.25694 14.4688 5.28037H18.582C18.4414 5.91319 18.6055 6.4874 19.0742 7.00303C19.4492 7.35459 19.8828 7.53037 20.375 7.53037C20.8672 7.53037 21.3008 7.35459 21.6758 7.00303L22.3438 6.33506V13.8585C22.3203 14.4913 22.0977 15.0187 21.6758 15.4405C21.2539 15.8624 20.7266 16.0851 20.0938 16.1085H11.5859C11.7266 15.8507 11.7969 15.5694 11.7969 15.2647C11.7734 14.7491 11.5977 14.3155 11.2695 13.964C10.918 13.6358 10.4844 13.4601 9.96875 13.4366H5.85547C5.99609 12.8038 5.83203 12.2296 5.36328 11.714C4.98828 11.3624 4.55469 11.1866 4.0625 11.1866C3.57031 11.1866 3.13672 11.3624 2.76172 11.714L2.09375 12.4171V4.8585C2.11719 4.22569 2.33984 3.69834 2.76172 3.27647C3.18359 2.85459 3.71094 2.63194 4.34375 2.6085ZM6.59375 4.8585H4.34375V7.1085C4.97656 7.08506 5.50391 6.8624 5.92578 6.44053C6.34766 6.01865 6.57031 5.49131 6.59375 4.8585ZM20.0938 11.6085C19.4609 11.6319 18.9336 11.8546 18.5117 12.2765C18.0898 12.6983 17.8672 13.2257 17.8438 13.8585H20.0938V11.6085ZM12.2188 12.7335C12.8281 12.7335 13.3906 12.5812 13.9062 12.2765C14.4219 11.9718 14.832 11.5616 15.1367 11.046C15.4414 10.5069 15.5938 9.94444 15.5938 9.3585C15.5938 8.77256 15.4414 8.21006 15.1367 7.671C14.832 7.15537 14.4219 6.74522 13.9062 6.44053C13.3906 6.13584 12.8281 5.9835 12.2188 5.9835C11.6094 5.9835 11.0469 6.13584 10.5312 6.44053C10.0156 6.74522 9.60547 7.15537 9.30078 7.671C8.99609 8.21006 8.84375 8.77256 8.84375 9.3585C8.84375 9.94444 8.99609 10.5069 9.30078 11.046C9.60547 11.5616 10.0156 11.9718 10.5312 12.2765C11.0469 12.5812 11.6094 12.7335 12.2188 12.7335Z" fill="white"/>
</svg>
