<svg width="45" height="36" viewBox="0 0 45 36" fill="none" xmlns="http://www.w3.org/2000/svg">
<path d="M39.375 11.25C37.2656 11.2031 35.6484 10.2656 34.5234 8.4375C33.4922 6.5625 33.4922 4.6875 34.5234 2.8125C35.6484 0.984375 37.2656 0.046875 39.375 0C41.4844 0.046875 43.1016 0.984375 44.2266 2.8125C45.2578 4.6875 45.2578 6.5625 44.2266 8.4375C43.1016 10.2656 41.4844 11.2031 39.375 11.25ZM3.9375 36C2.8125 35.9531 1.875 35.5781 1.125 34.875C0.421875 34.125 0.046875 33.1875 0 32.0625C0 31.3125 0.210938 30.6094 0.632812 29.9531L15.8203 5.69531C16.3359 4.94531 17.0625 4.54688 18 4.5C18.9375 4.54688 19.6641 4.94531 20.1797 5.69531L29.0391 19.8281L32.4141 14.2734C32.7422 13.7578 33.1875 13.5 33.75 13.5C34.3125 13.5 34.7578 13.7578 35.0859 14.2734L44.3672 29.4609C44.7891 30.1641 45 30.9141 45 31.7109C44.9531 32.9297 44.5312 33.9375 43.7344 34.7344C42.9375 35.5312 41.9297 35.9531 40.7109 36H3.9375Z" fill="white"/>
</svg>
