<svg width="23" height="19" viewBox="0 0 23 19" fill="none" xmlns="http://www.w3.org/2000/svg">
<path d="M19.832 5.9835C18.7773 5.96006 17.9688 5.49131 17.4062 4.57725C16.8906 3.63975 16.8906 2.70225 17.4062 1.76475C17.9688 0.850685 18.7773 0.381935 19.832 0.358498C20.8867 0.381935 21.6953 0.850685 22.2578 1.76475C22.7734 2.70225 22.7734 3.63975 22.2578 4.57725C21.6953 5.49131 20.8867 5.96006 19.832 5.9835ZM2.11328 18.3585C1.55078 18.3351 1.08203 18.1476 0.707031 17.796C0.355469 17.421 0.167969 16.9522 0.144531 16.3897C0.144531 16.0147 0.25 15.6632 0.460938 15.3351L8.05469 3.20615C8.3125 2.83115 8.67578 2.63194 9.14453 2.6085C9.61328 2.63194 9.97656 2.83115 10.2344 3.20615L14.6641 10.2726L16.3516 7.49522C16.5156 7.2374 16.7383 7.1085 17.0195 7.1085C17.3008 7.1085 17.5234 7.2374 17.6875 7.49522L22.3281 15.089C22.5391 15.4405 22.6445 15.8155 22.6445 16.214C22.6211 16.8233 22.4102 17.3272 22.0117 17.7257C21.6133 18.1241 21.1094 18.3351 20.5 18.3585H2.11328Z" fill="white"/>
</svg>
