<svg width="19" height="17" viewBox="0 0 19 17" fill="none" xmlns="http://www.w3.org/2000/svg">
<path d="M2.35944 0.62412L17.6524 7.33896C18.0977 7.57334 18.3204 7.91318 18.3204 8.35849C18.3204 8.80381 18.0977 9.14365 17.6524 9.37803L2.35944 16.0929C1.70319 16.3272 1.16413 16.2218 0.742257 15.7765C0.34382 15.3312 0.273507 14.7921 0.53132 14.1593L2.74616 9.90537C2.91023 9.60068 3.16804 9.4249 3.5196 9.37803L9.67194 8.60459C9.81257 8.58115 9.88288 8.49912 9.88288 8.35849C9.88288 8.21787 9.81257 8.13584 9.67194 8.1124L3.5196 7.33896C3.16804 7.29209 2.91023 7.11631 2.74616 6.81162L0.53132 2.55771C0.273507 1.9249 0.34382 1.38584 0.742257 0.940526C1.16413 0.495214 1.70319 0.389745 2.35944 0.62412Z" fill="white"/>
</svg>
