<svg width="37" height="36" viewBox="0 0 37 36" fill="none" xmlns="http://www.w3.org/2000/svg">
<path d="M4.71889 2.55L35.3048 15.9797C36.1955 16.4484 36.6407 17.1281 36.6407 18.0187C36.6407 18.9094 36.1955 19.5891 35.3048 20.0578L4.71889 33.4875C3.40639 33.9562 2.32826 33.7453 1.48451 32.8547C0.68764 31.9641 0.547015 30.8859 1.06264 29.6203L5.49233 21.1125C5.82045 20.5031 6.33608 20.1516 7.0392 20.0578L19.3439 18.5109C19.6251 18.4641 19.7658 18.3 19.7658 18.0187C19.7658 17.7375 19.6251 17.5734 19.3439 17.5266L7.0392 15.9797C6.33608 15.8859 5.82045 15.5344 5.49233 14.925L1.06264 6.41719C0.547015 5.15156 0.68764 4.07344 1.48451 3.18281C2.32826 2.29219 3.40639 2.08125 4.71889 2.55Z" fill="white"/>
</svg>
