<svg width="18" height="19" viewBox="0 0 18 19" fill="none" xmlns="http://www.w3.org/2000/svg">
<path d="M14.4103 8.47959L13.6369 9.28819L6.64076 16.2843C6.26576 16.6593 5.82045 16.9171 5.30483 17.0577L1.08608 18.3233C0.757952 18.3937 0.476702 18.3116 0.242327 18.0772C0.007952 17.8429 -0.0623605 17.5733 0.0313895 17.2687L1.26186 13.0147C1.42592 12.5226 1.69545 12.089 2.07045 11.714L9.06655 4.71787L9.83998 3.90928L10.2619 3.52256L14.8322 8.09287L14.4103 8.47959ZM5.62123 14.3858V14.421H4.49623C4.14467 14.3741 3.95717 14.1866 3.93373 13.8585V12.7335L3.12514 13.0499C3.03139 13.1905 2.94936 13.3429 2.87905 13.5069L2.07045 16.2491L4.8478 15.4405C5.01186 15.3937 5.1642 15.3116 5.30483 15.1944L5.62123 14.3858ZM12.758 1.02647C13.2267 0.581154 13.754 0.358498 14.34 0.358498C14.9494 0.358498 15.4767 0.581154 15.922 1.02647L17.3283 2.39756C17.7502 2.86631 17.9611 3.39365 17.9611 3.97959C17.9611 4.58897 17.7502 5.12803 17.3283 5.59678L16.801 6.08897L15.6056 7.28428L11.0353 2.71397L11.4572 2.32725L12.2306 1.51865L12.758 1.02647ZM11.0705 6.93272C11.3048 6.65147 11.3048 6.38194 11.0705 6.12412C10.8126 5.91319 10.5548 5.91319 10.297 6.12412L5.23451 11.1866C5.00014 11.4444 5.00014 11.714 5.23451 11.9952C5.49233 12.2062 5.75014 12.2062 6.00795 11.9952L11.0705 6.93272Z" fill="white"/>
</svg>
