<svg width="37" height="36" viewBox="0 0 37 36" fill="none" xmlns="http://www.w3.org/2000/svg">
<path d="M29.8206 16.2609L28.2737 17.8781L14.2815 31.8703C13.5315 32.6203 12.6409 33.1359 11.6097 33.4172L3.17215 35.9484C2.5159 36.0891 1.9534 35.925 1.48465 35.4563C1.0159 34.9875 0.875279 34.4484 1.06278 33.8391L3.52372 25.3313C3.85184 24.3469 4.3909 23.4797 5.1409 22.7297L19.1331 8.7375L20.68 7.12032L21.5237 6.34688L30.6643 15.4875L29.8206 16.2609ZM12.2425 28.0734V28.1438H9.99247C9.28934 28.05 8.91434 27.675 8.86747 27.0188V24.7688L7.25028 25.4016C7.06278 25.6828 6.89872 25.9875 6.75809 26.3156L5.1409 31.8L10.6956 30.1828C11.0237 30.0891 11.3284 29.925 11.6097 29.6906L12.2425 28.0734ZM26.5159 1.35469C27.4534 0.464066 28.5081 0.0187531 29.68 0.0187531C30.8987 0.0187531 31.9535 0.464066 32.8441 1.35469L35.6566 4.09688C36.5003 5.03438 36.9222 6.08907 36.9222 7.26094C36.9222 8.47969 36.5003 9.55782 35.6566 10.4953L34.6019 11.4797L32.2113 13.8703L23.0706 4.72969L23.9143 3.95625L25.4612 2.33907L26.5159 1.35469ZM23.1409 13.1672C23.6097 12.6047 23.6097 12.0656 23.1409 11.55C22.6253 11.1281 22.1097 11.1281 21.594 11.55L11.469 21.675C11.0003 22.1906 11.0003 22.7297 11.469 23.2922C11.9847 23.7141 12.5003 23.7141 13.0159 23.2922L23.1409 13.1672Z" fill="white"/>
</svg>
