<svg width="46" height="36" viewBox="0 0 46 36" fill="none" xmlns="http://www.w3.org/2000/svg">
<path d="M5.40625 6.20625C5.45312 4.70625 6.10938 3.58125 7.375 2.83125C8.6875 2.08125 10 2.08125 11.3125 2.83125C12.5781 3.58125 13.2344 4.70625 13.2812 6.20625C13.2344 7.70625 12.5781 8.83125 11.3125 9.58125C10 10.3313 8.6875 10.3313 7.375 9.58125C6.10938 8.83125 5.45312 7.70625 5.40625 6.20625ZM4.84375 17.3156C4.14062 18.1125 3.76562 19.0969 3.71875 20.2688C3.76562 21.4406 4.14062 22.425 4.84375 23.2219V17.3156ZM14.9688 13.8C12.8125 15.7688 11.6875 18.3 11.5938 21.3938C11.6406 23.8313 12.3906 25.9641 13.8438 27.7922V29.2688C13.8438 29.925 13.6328 30.4641 13.2109 30.8859C12.7891 31.3078 12.25 31.5188 11.5938 31.5188H7.09375C6.4375 31.5188 5.89844 31.3078 5.47656 30.8859C5.05469 30.4641 4.84375 29.925 4.84375 29.2688V27.3703C3.48438 26.7141 2.40625 25.7766 1.60938 24.5578C0.765625 23.2922 0.34375 21.8625 0.34375 20.2688C0.390625 18.0188 1.16406 16.1672 2.66406 14.7141C4.11719 13.2141 5.96875 12.4406 8.21875 12.3938H10.4688C12.2031 12.4406 13.7031 12.9094 14.9688 13.8ZM31.8438 29.2688V27.7922C33.2969 25.9641 34.0469 23.8313 34.0938 21.3938C34 18.3 32.875 15.7688 30.7188 13.8C31.9844 12.9094 33.4844 12.4406 35.2188 12.3938H37.4688C39.7188 12.4406 41.5703 13.2141 43.0234 14.7141C44.5234 16.1672 45.2969 18.0188 45.3438 20.2688C45.3438 21.8625 44.9219 23.2922 44.0781 24.5578C43.2812 25.7766 42.2031 26.7141 40.8438 27.3703V29.2688C40.8438 29.925 40.6328 30.4641 40.2109 30.8859C39.7891 31.3078 39.25 31.5188 38.5938 31.5188H34.0938C33.4375 31.5188 32.8984 31.3078 32.4766 30.8859C32.0547 30.4641 31.8438 29.925 31.8438 29.2688ZM32.4062 6.20625C32.4531 4.70625 33.1094 3.58125 34.375 2.83125C35.6875 2.08125 37 2.08125 38.3125 2.83125C39.5781 3.58125 40.2344 4.70625 40.2812 6.20625C40.2344 7.70625 39.5781 8.83125 38.3125 9.58125C37 10.3313 35.6875 10.3313 34.375 9.58125C33.1094 8.83125 32.4531 7.70625 32.4062 6.20625ZM40.8438 17.3156V23.2219C41.5938 22.425 41.9688 21.4406 41.9688 20.2688C41.9688 19.0969 41.5938 18.1125 40.8438 17.3156ZM22.8438 2.26875C24.5312 2.31563 25.8203 3.06563 26.7109 4.51875C27.5547 6.01875 27.5547 7.51875 26.7109 9.01875C25.8203 10.4719 24.5312 11.2219 22.8438 11.2688C21.1562 11.2219 19.8672 10.4719 18.9766 9.01875C18.1328 7.51875 18.1328 6.01875 18.9766 4.51875C19.8672 3.06563 21.1562 2.31563 22.8438 2.26875ZM17.2188 21.3938C17.2656 22.5656 17.6406 23.55 18.3438 24.3469V18.4406C17.6406 19.2375 17.2656 20.2219 17.2188 21.3938ZM27.3438 18.4406V24.3469C28.0938 23.55 28.4688 22.5656 28.4688 21.3938C28.4688 20.2219 28.0938 19.2375 27.3438 18.4406ZM31.8438 21.3938C31.8438 22.9875 31.4219 24.4172 30.5781 25.6828C29.7812 26.9016 28.7031 27.8391 27.3438 28.4953V31.5188C27.3438 32.175 27.1328 32.7141 26.7109 33.1359C26.2891 33.5578 25.75 33.7688 25.0938 33.7688H20.5938C19.9375 33.7688 19.3984 33.5578 18.9766 33.1359C18.5547 32.7141 18.3438 32.175 18.3438 31.5188V28.4953C16.9844 27.8391 15.9062 26.9016 15.1094 25.6828C14.2656 24.4172 13.8438 22.9875 13.8438 21.3938C13.8906 19.1438 14.6641 17.2922 16.1641 15.8391C17.6172 14.3391 19.4688 13.5656 21.7188 13.5188H23.9688C26.2188 13.5656 28.0703 14.3391 29.5234 15.8391C31.0234 17.2922 31.7969 19.1438 31.8438 21.3938Z" fill="white"/>
</svg>
