<svg width="45" height="36" viewBox="0 0 45 36" fill="none" xmlns="http://www.w3.org/2000/svg">
<path d="M5.0625 6.1875C5.10938 4.6875 5.76562 3.5625 7.03125 2.8125C8.34375 2.0625 9.65625 2.0625 10.9688 2.8125C12.2344 3.5625 12.8906 4.6875 12.9375 6.1875C12.8906 7.6875 12.2344 8.8125 10.9688 9.5625C9.65625 10.3125 8.34375 10.3125 7.03125 9.5625C5.76562 8.8125 5.10938 7.6875 5.0625 6.1875ZM4.5 17.2969C3.79688 18.0938 3.42188 19.0781 3.375 20.25C3.42188 21.4219 3.79688 22.4062 4.5 23.2031V17.2969ZM14.625 13.7812C12.4688 15.75 11.3438 18.2812 11.25 21.375C11.2969 23.8125 12.0469 25.9453 13.5 27.7734V29.25C13.5 29.9062 13.2891 30.4453 12.8672 30.8672C12.4453 31.2891 11.9062 31.5 11.25 31.5H6.75C6.09375 31.5 5.55469 31.2891 5.13281 30.8672C4.71094 30.4453 4.5 29.9062 4.5 29.25V27.3516C3.14062 26.6953 2.0625 25.7578 1.26562 24.5391C0.421875 23.2734 0 21.8438 0 20.25C0.046875 18 0.820312 16.1484 2.32031 14.6953C3.77344 13.1953 5.625 12.4219 7.875 12.375H10.125C11.8594 12.4219 13.3594 12.8906 14.625 13.7812ZM31.5 29.25V27.7734C32.9531 25.9453 33.7031 23.8125 33.75 21.375C33.6562 18.2812 32.5312 15.75 30.375 13.7812C31.6406 12.8906 33.1406 12.4219 34.875 12.375H37.125C39.375 12.4219 41.2266 13.1953 42.6797 14.6953C44.1797 16.1484 44.9531 18 45 20.25C45 21.8438 44.5781 23.2734 43.7344 24.5391C42.9375 25.7578 41.8594 26.6953 40.5 27.3516V29.25C40.5 29.9062 40.2891 30.4453 39.8672 30.8672C39.4453 31.2891 38.9062 31.5 38.25 31.5H33.75C33.0938 31.5 32.5547 31.2891 32.1328 30.8672C31.7109 30.4453 31.5 29.9062 31.5 29.25ZM32.0625 6.1875C32.1094 4.6875 32.7656 3.5625 34.0312 2.8125C35.3438 2.0625 36.6562 2.0625 37.9688 2.8125C39.2344 3.5625 39.8906 4.6875 39.9375 6.1875C39.8906 7.6875 39.2344 8.8125 37.9688 9.5625C36.6562 10.3125 35.3438 10.3125 34.0312 9.5625C32.7656 8.8125 32.1094 7.6875 32.0625 6.1875ZM40.5 17.2969V23.2031C41.25 22.4062 41.625 21.4219 41.625 20.25C41.625 19.0781 41.25 18.0938 40.5 17.2969ZM22.5 2.25C24.1875 2.29688 25.4766 3.04688 26.3672 4.5C27.2109 6 27.2109 7.5 26.3672 9C25.4766 10.4531 24.1875 11.2031 22.5 11.25C20.8125 11.2031 19.5234 10.4531 18.6328 9C17.7891 7.5 17.7891 6 18.6328 4.5C19.5234 3.04688 20.8125 2.29688 22.5 2.25ZM16.875 21.375C16.9219 22.5469 17.2969 23.5312 18 24.3281V18.4219C17.2969 19.2188 16.9219 20.2031 16.875 21.375ZM27 18.4219V24.3281C27.75 23.5312 28.125 22.5469 28.125 21.375C28.125 20.2031 27.75 19.2188 27 18.4219ZM31.5 21.375C31.5 22.9688 31.0781 24.3984 30.2344 25.6641C29.4375 26.8828 28.3594 27.8203 27 28.4766V31.5C27 32.1562 26.7891 32.6953 26.3672 33.1172C25.9453 33.5391 25.4062 33.75 24.75 33.75H20.25C19.5938 33.75 19.0547 33.5391 18.6328 33.1172C18.2109 32.6953 18 32.1562 18 31.5V28.4766C16.6406 27.8203 15.5625 26.8828 14.7656 25.6641C13.9219 24.3984 13.5 22.9688 13.5 21.375C13.5469 19.125 14.3203 17.2734 15.8203 15.8203C17.2734 14.3203 19.125 13.5469 21.375 13.5H23.625C25.875 13.5469 27.7266 14.3203 29.1797 15.8203C30.6797 17.2734 31.4531 19.125 31.5 21.375Z" fill="white"/>
</svg>
