<svg width="24" height="17" viewBox="0 0 24 17" fill="none" xmlns="http://www.w3.org/2000/svg">
<path d="M3.20312 2.45225C3.22656 1.70225 3.55469 1.13975 4.1875 0.764748C4.84375 0.389748 5.5 0.389748 6.15625 0.764748C6.78906 1.13975 7.11719 1.70225 7.14062 2.45225C7.11719 3.20225 6.78906 3.76475 6.15625 4.13975C5.5 4.51475 4.84375 4.51475 4.1875 4.13975C3.55469 3.76475 3.22656 3.20225 3.20312 2.45225ZM2.92188 8.00694C2.57031 8.40537 2.38281 8.89756 2.35938 9.4835C2.38281 10.0694 2.57031 10.5616 2.92188 10.9601V8.00694ZM7.98438 6.24912C6.90625 7.2335 6.34375 8.49912 6.29688 10.046C6.32031 11.2647 6.69531 12.3312 7.42188 13.2452V13.9835C7.42188 14.3116 7.31641 14.5812 7.10547 14.7921C6.89453 15.003 6.625 15.1085 6.29688 15.1085H4.04688C3.71875 15.1085 3.44922 15.003 3.23828 14.7921C3.02734 14.5812 2.92188 14.3116 2.92188 13.9835V13.0343C2.24219 12.7062 1.70312 12.2374 1.30469 11.628C0.882812 10.9952 0.671875 10.2804 0.671875 9.4835C0.695312 8.3585 1.08203 7.43272 1.83203 6.70615C2.55859 5.95615 3.48438 5.56944 4.60938 5.546H5.73438C6.60156 5.56944 7.35156 5.80381 7.98438 6.24912ZM16.4219 13.9835V13.2452C17.1484 12.3312 17.5234 11.2647 17.5469 10.046C17.5 8.49912 16.9375 7.2335 15.8594 6.24912C16.4922 5.80381 17.2422 5.56944 18.1094 5.546H19.2344C20.3594 5.56944 21.2852 5.95615 22.0117 6.70615C22.7617 7.43272 23.1484 8.3585 23.1719 9.4835C23.1719 10.2804 22.9609 10.9952 22.5391 11.628C22.1406 12.2374 21.6016 12.7062 20.9219 13.0343V13.9835C20.9219 14.3116 20.8164 14.5812 20.6055 14.7921C20.3945 15.003 20.125 15.1085 19.7969 15.1085H17.5469C17.2188 15.1085 16.9492 15.003 16.7383 14.7921C16.5273 14.5812 16.4219 14.3116 16.4219 13.9835ZM16.7031 2.45225C16.7266 1.70225 17.0547 1.13975 17.6875 0.764748C18.3438 0.389748 19 0.389748 19.6562 0.764748C20.2891 1.13975 20.6172 1.70225 20.6406 2.45225C20.6172 3.20225 20.2891 3.76475 19.6562 4.13975C19 4.51475 18.3438 4.51475 17.6875 4.13975C17.0547 3.76475 16.7266 3.20225 16.7031 2.45225ZM20.9219 8.00694V10.9601C21.2969 10.5616 21.4844 10.0694 21.4844 9.4835C21.4844 8.89756 21.2969 8.40537 20.9219 8.00694ZM11.9219 0.483498C12.7656 0.506935 13.4102 0.881935 13.8555 1.6085C14.2773 2.3585 14.2773 3.1085 13.8555 3.8585C13.4102 4.58506 12.7656 4.96006 11.9219 4.9835C11.0781 4.96006 10.4336 4.58506 9.98828 3.8585C9.56641 3.1085 9.56641 2.3585 9.98828 1.6085C10.4336 0.881935 11.0781 0.506935 11.9219 0.483498ZM9.10938 10.046C9.13281 10.6319 9.32031 11.1241 9.67188 11.5226V8.56944C9.32031 8.96787 9.13281 9.46006 9.10938 10.046ZM14.1719 8.56944V11.5226C14.5469 11.1241 14.7344 10.6319 14.7344 10.046C14.7344 9.46006 14.5469 8.96787 14.1719 8.56944ZM16.4219 10.046C16.4219 10.8429 16.2109 11.5577 15.7891 12.1905C15.3906 12.7999 14.8516 13.2687 14.1719 13.5968V15.1085C14.1719 15.4366 14.0664 15.7062 13.8555 15.9171C13.6445 16.128 13.375 16.2335 13.0469 16.2335H10.7969C10.4688 16.2335 10.1992 16.128 9.98828 15.9171C9.77734 15.7062 9.67188 15.4366 9.67188 15.1085V13.5968C8.99219 13.2687 8.45312 12.7999 8.05469 12.1905C7.63281 11.5577 7.42188 10.8429 7.42188 10.046C7.44531 8.921 7.83203 7.99522 8.58203 7.26865C9.30859 6.51865 10.2344 6.13194 11.3594 6.1085H12.4844C13.6094 6.13194 14.5352 6.51865 15.2617 7.26865C16.0117 7.99522 16.3984 8.921 16.4219 10.046Z" fill="white"/>
</svg>
