<svg width="16" height="15" viewBox="0 0 16 15" fill="none" xmlns="http://www.w3.org/2000/svg">
<path d="M8.84766 1.171V6.2335H13.9102C14.2383 6.2335 14.5078 6.33897 14.7188 6.5499C14.9297 6.76084 15.0352 7.03037 15.0352 7.3585C15.0352 7.68662 14.9297 7.95615 14.7188 8.16709C14.5078 8.37803 14.2383 8.4835 13.9102 8.4835H8.84766V13.546C8.84766 13.8741 8.74219 14.1437 8.53125 14.3546C8.32031 14.5655 8.05078 14.671 7.72266 14.671C7.39453 14.671 7.125 14.5655 6.91406 14.3546C6.70312 14.1437 6.59766 13.8741 6.59766 13.546V8.4835H1.53516C1.20703 8.4835 0.9375 8.37803 0.726562 8.16709C0.515625 7.95615 0.410156 7.68662 0.410156 7.3585C0.410156 7.03037 0.515625 6.76084 0.726562 6.5499C0.9375 6.33897 1.20703 6.2335 1.53516 6.2335H6.59766V1.171C6.59766 0.842873 6.70312 0.573341 6.91406 0.362404C7.125 0.151466 7.39453 0.0459976 7.72266 0.0459976C8.05078 0.0459976 8.32031 0.151466 8.53125 0.362404C8.74219 0.573341 8.84766 0.842873 8.84766 1.171Z" fill="white"/>
</svg>
