<svg width="37" height="36" viewBox="0 0 37 36" fill="none" xmlns="http://www.w3.org/2000/svg">
<path d="M20.6953 5.64375V15.7688H30.8203C31.4766 15.7688 32.0156 15.9797 32.4375 16.4016C32.8594 16.8234 33.0703 17.3625 33.0703 18.0188C33.0703 18.675 32.8594 19.2141 32.4375 19.6359C32.0156 20.0578 31.4766 20.2688 30.8203 20.2688H20.6953V30.3938C20.6953 31.05 20.4844 31.5891 20.0625 32.0109C19.6406 32.4328 19.1016 32.6438 18.4453 32.6438C17.7891 32.6438 17.25 32.4328 16.8281 32.0109C16.4062 31.5891 16.1953 31.05 16.1953 30.3938V20.2688H6.07031C5.41406 20.2688 4.875 20.0578 4.45312 19.6359C4.03125 19.2141 3.82031 18.675 3.82031 18.0188C3.82031 17.3625 4.03125 16.8234 4.45312 16.4016C4.875 15.9797 5.41406 15.7688 6.07031 15.7688H16.1953V5.64375C16.1953 4.9875 16.4062 4.44844 16.8281 4.02657C17.25 3.60469 17.7891 3.39375 18.4453 3.39375C19.1016 3.39375 19.6406 3.60469 20.0625 4.02657C20.4844 4.44844 20.6953 4.9875 20.6953 5.64375Z" fill="white"/>
</svg>
