<svg width="36" height="36" viewBox="0 0 36 36" fill="none" xmlns="http://www.w3.org/2000/svg">
<path d="M20.25 5.64375V15.7688H30.375C31.0312 15.7688 31.5703 15.9797 31.9922 16.4016C32.4141 16.8234 32.625 17.3625 32.625 18.0188C32.625 18.675 32.4141 19.2141 31.9922 19.6359C31.5703 20.0578 31.0312 20.2688 30.375 20.2688H20.25V30.3938C20.25 31.05 20.0391 31.5891 19.6172 32.0109C19.1953 32.4328 18.6562 32.6438 18 32.6438C17.3438 32.6438 16.8047 32.4328 16.3828 32.0109C15.9609 31.5891 15.75 31.05 15.75 30.3938V20.2688H5.625C4.96875 20.2688 4.42969 20.0578 4.00781 19.6359C3.58594 19.2141 3.375 18.675 3.375 18.0188C3.375 17.3625 3.58594 16.8234 4.00781 16.4016C4.42969 15.9797 4.96875 15.7688 5.625 15.7688H15.75V5.64375C15.75 4.9875 15.9609 4.44844 16.3828 4.02657C16.8047 3.60469 17.3438 3.39375 18 3.39375C18.6562 3.39375 19.1953 3.60469 19.6172 4.02657C20.0391 4.44844 20.25 4.9875 20.25 5.64375Z" fill="white"/>
</svg>
