<svg width="19" height="17" viewBox="0 0 19 17" fill="none" xmlns="http://www.w3.org/2000/svg">
<path d="M7.9375 3.08506L12.2617 7.40928C12.5195 7.66709 12.6484 7.9835 12.6484 8.3585C12.6484 8.7335 12.5195 9.0499 12.2617 9.30772L7.9375 13.6319C7.70312 13.8663 7.42188 13.9835 7.09375 13.9835C6.76562 13.9835 6.48438 13.8663 6.25 13.6319C6.01562 13.3976 5.89844 13.1163 5.89844 12.7882V10.6085H1.39844C1.07031 10.6085 0.800781 10.503 0.589844 10.2921C0.378906 10.0812 0.273438 9.81162 0.273438 9.4835V7.2335C0.273438 6.90537 0.378906 6.63584 0.589844 6.4249C0.800781 6.21397 1.07031 6.1085 1.39844 6.1085H5.89844V3.92881C5.89844 3.60069 6.01562 3.31944 6.25 3.08506C6.48438 2.85069 6.76562 2.7335 7.09375 2.7335C7.42188 2.7335 7.70312 2.85069 7.9375 3.08506ZM12.6484 13.9835H14.8984C15.2266 13.9835 15.4961 13.878 15.707 13.6671C15.918 13.4562 16.0234 13.1866 16.0234 12.8585V3.8585C16.0234 3.53037 15.918 3.26084 15.707 3.0499C15.4961 2.83897 15.2266 2.7335 14.8984 2.7335H12.6484C12.3203 2.7335 12.0508 2.62803 11.8398 2.41709C11.6289 2.20615 11.5234 1.93662 11.5234 1.6085C11.5234 1.28037 11.6289 1.01084 11.8398 0.799904C12.0508 0.588966 12.3203 0.483498 12.6484 0.483498H14.8984C15.8594 0.506935 16.6562 0.83506 17.2891 1.46787C17.9219 2.10069 18.25 2.89756 18.2734 3.8585V12.8585C18.25 13.8194 17.9219 14.6163 17.2891 15.2491C16.6562 15.8819 15.8594 16.2101 14.8984 16.2335H12.6484C12.3203 16.2335 12.0508 16.128 11.8398 15.9171C11.6289 15.7062 11.5234 15.4366 11.5234 15.1085C11.5234 14.7804 11.6289 14.5108 11.8398 14.2999C12.0508 14.089 12.3203 13.9835 12.6484 13.9835Z" fill="white"/>
</svg>
