<svg width="46" height="37" viewBox="0 0 46 37" fill="none" xmlns="http://www.w3.org/2000/svg">
<path d="M27.8983 2.26875H36.8983C37.5545 2.26875 38.0936 2.47969 38.5155 2.90157C38.9374 3.32344 39.1483 3.8625 39.1483 4.51875C39.1483 5.175 38.9374 5.71407 38.5155 6.13594C38.0936 6.55782 37.5545 6.76875 36.8983 6.76875H28.8827C28.4608 8.64375 27.3827 9.97969 25.6483 10.7766V31.5188H36.8983C37.5545 31.5188 38.0936 31.7297 38.5155 32.1516C38.9374 32.5734 39.1483 33.1125 39.1483 33.7688C39.1483 34.425 38.9374 34.9641 38.5155 35.3859C38.0936 35.8078 37.5545 36.0188 36.8983 36.0188H9.89829C9.24204 36.0188 8.70297 35.8078 8.2811 35.3859C7.85922 34.9641 7.64829 34.425 7.64829 33.7688C7.64829 33.1125 7.85922 32.5734 8.2811 32.1516C8.70297 31.7297 9.24204 31.5188 9.89829 31.5188H21.1483V10.7766C19.4139 9.97969 18.3358 8.64375 17.9139 6.76875H9.89829C9.24204 6.76875 8.70297 6.55782 8.2811 6.13594C7.85922 5.71407 7.64829 5.175 7.64829 4.51875C7.64829 3.8625 7.85922 3.32344 8.2811 2.90157C8.70297 2.47969 9.24204 2.26875 9.89829 2.26875H18.8983C19.9764 0.815628 21.4764 0.0656281 23.3983 0.0187531C25.3202 0.0656281 26.8202 0.815628 27.8983 2.26875ZM31.8358 22.5188H42.0311L36.8983 13.8L31.8358 22.5188ZM36.8983 29.2688C34.6483 29.2219 32.703 28.6828 31.0623 27.6516C29.4686 26.6203 28.4608 25.3078 28.0389 23.7141C27.8983 22.9172 28.0623 22.1672 28.5311 21.4641L35.2108 10.0031C35.5858 9.34688 36.1483 9.01875 36.8983 9.01875C37.6483 9.06563 38.2108 9.39375 38.5858 10.0031L45.2655 21.4641C45.7342 22.1672 45.8983 22.9172 45.7577 23.7141C45.3358 25.3078 44.328 26.6203 42.7342 27.6516C41.0936 28.6828 39.1483 29.2219 36.8983 29.2688ZM9.82797 13.8L4.69516 22.5188H14.8905L9.82797 13.8ZM0.9686 23.7141C0.827975 22.9172 0.992037 22.1672 1.46079 21.4641L8.14047 10.0031C8.51547 9.34688 9.07797 9.01875 9.82797 9.01875C10.578 9.06563 11.1405 9.39375 11.5155 10.0031L18.1952 21.4641C18.6639 22.1672 18.828 22.9172 18.6873 23.7141C18.2655 25.3078 17.2342 26.6203 15.5936 27.6516C13.9998 28.6828 12.078 29.2219 9.82797 29.2688C7.57797 29.2219 5.63266 28.6828 3.99204 27.6516C2.39829 26.6203 1.39047 25.3078 0.9686 23.7141Z" fill="white"/>
</svg>
