<svg width="24" height="19" viewBox="0 0 24 19" fill="none" xmlns="http://www.w3.org/2000/svg">
<path d="M14.4491 1.4835H18.9491C19.2773 1.4835 19.5468 1.58897 19.7577 1.7999C19.9687 2.01084 20.0741 2.28037 20.0741 2.6085C20.0741 2.93662 19.9687 3.20615 19.7577 3.41709C19.5468 3.62803 19.2773 3.7335 18.9491 3.7335H14.9413C14.7304 4.671 14.1913 5.33897 13.3241 5.7374V16.1085H18.9491C19.2773 16.1085 19.5468 16.214 19.7577 16.4249C19.9687 16.6358 20.0741 16.9054 20.0741 17.2335C20.0741 17.5616 19.9687 17.8312 19.7577 18.0421C19.5468 18.253 19.2773 18.3585 18.9491 18.3585H5.44914C5.12102 18.3585 4.85149 18.253 4.64055 18.0421C4.42961 17.8312 4.32414 17.5616 4.32414 17.2335C4.32414 16.9054 4.42961 16.6358 4.64055 16.4249C4.85149 16.214 5.12102 16.1085 5.44914 16.1085H11.0741V5.7374C10.207 5.33897 9.66789 4.671 9.45696 3.7335H5.44914C5.12102 3.7335 4.85149 3.62803 4.64055 3.41709C4.42961 3.20615 4.32414 2.93662 4.32414 2.6085C4.32414 2.28037 4.42961 2.01084 4.64055 1.7999C4.85149 1.58897 5.12102 1.4835 5.44914 1.4835H9.94914C10.4882 0.756935 11.2382 0.381935 12.1991 0.358498C13.1601 0.381935 13.9101 0.756935 14.4491 1.4835ZM16.4179 11.6085H21.5156L18.9491 7.24912L16.4179 11.6085ZM18.9491 14.9835C17.8241 14.9601 16.8515 14.6905 16.0312 14.1749C15.2343 13.6593 14.7304 13.003 14.5195 12.2062C14.4491 11.8077 14.5312 11.4327 14.7655 11.0812L18.1054 5.35069C18.2929 5.02256 18.5741 4.8585 18.9491 4.8585C19.3241 4.88194 19.6054 5.046 19.7929 5.35069L23.1327 11.0812C23.3671 11.4327 23.4491 11.8077 23.3788 12.2062C23.1679 13.003 22.664 13.6593 21.8671 14.1749C21.0468 14.6905 20.0741 14.9601 18.9491 14.9835ZM5.41399 7.24912L2.84758 11.6085H7.94524L5.41399 7.24912ZM0.9843 12.2062C0.913987 11.8077 0.996019 11.4327 1.23039 11.0812L4.57024 5.35069C4.75774 5.02256 5.03899 4.8585 5.41399 4.8585C5.78899 4.88194 6.07024 5.046 6.25774 5.35069L9.59758 11.0812C9.83196 11.4327 9.91399 11.8077 9.84367 12.2062C9.63274 13.003 9.11711 13.6593 8.2968 14.1749C7.49992 14.6905 6.53899 14.9601 5.41399 14.9835C4.28899 14.9601 3.31633 14.6905 2.49602 14.1749C1.69914 13.6593 1.19524 13.003 0.9843 12.2062Z" fill="white"/>
</svg>
