<svg width="37" height="37" viewBox="0 0 37 37" fill="none" xmlns="http://www.w3.org/2000/svg">
<path d="M30.1113 14.6438C30.0645 17.925 29.127 20.8078 27.2988 23.2922L36.2285 32.1516C36.6504 32.6203 36.8613 33.1594 36.8613 33.7688C36.8613 34.3781 36.6504 34.9172 36.2285 35.3859C35.7598 35.8078 35.2207 36.0188 34.6113 36.0188C34.002 36.0188 33.4629 35.8078 32.9941 35.3859L24.1348 26.4563C21.6504 28.2844 18.7676 29.2219 15.4863 29.2688C11.3613 29.175 7.91602 27.7453 5.15039 24.9797C2.38477 22.2141 0.955078 18.7688 0.861328 14.6438C0.955078 10.5188 2.38477 7.07344 5.15039 4.30782C7.91602 1.54219 11.3613 0.112503 15.4863 0.0187531C19.6113 0.112503 23.0566 1.54219 25.8223 4.30782C28.5879 7.07344 30.0176 10.5188 30.1113 14.6438ZM15.4863 24.7688C17.3145 24.7688 19.002 24.3234 20.5488 23.4328C22.0957 22.5422 23.3379 21.3 24.2754 19.7063C25.166 18.1125 25.6113 16.425 25.6113 14.6438C25.6113 12.8625 25.166 11.175 24.2754 9.58125C23.3379 7.9875 22.0957 6.74532 20.5488 5.85469C19.002 4.96407 17.3145 4.51875 15.4863 4.51875C13.6582 4.51875 11.9707 4.96407 10.4238 5.85469C8.87695 6.74532 7.63477 7.9875 6.69727 9.58125C5.80664 11.175 5.36133 12.8625 5.36133 14.6438C5.36133 16.425 5.80664 18.1125 6.69727 19.7063C7.63477 21.3 8.87695 22.5422 10.4238 23.4328C11.9707 24.3234 13.6582 24.7688 15.4863 24.7688Z" fill="white"/>
</svg>
