<svg width="19" height="19" viewBox="0 0 19 19" fill="none" xmlns="http://www.w3.org/2000/svg">
<path d="M14.75 7.671C14.7266 9.31162 14.2578 10.753 13.3438 11.9952L17.8086 16.4249C18.0195 16.6593 18.125 16.9288 18.125 17.2335C18.125 17.5382 18.0195 17.8077 17.8086 18.0421C17.5742 18.253 17.3047 18.3585 17 18.3585C16.6953 18.3585 16.4258 18.253 16.1914 18.0421L11.7617 13.5772C10.5195 14.4913 9.07812 14.9601 7.4375 14.9835C5.375 14.9366 3.65234 14.2218 2.26953 12.839C0.886719 11.4562 0.171875 9.7335 0.125 7.671C0.171875 5.6085 0.886719 3.88584 2.26953 2.50303C3.65234 1.12022 5.375 0.405373 7.4375 0.358498C9.5 0.405373 11.2227 1.12022 12.6055 2.50303C13.9883 3.88584 14.7031 5.6085 14.75 7.671ZM7.4375 12.7335C8.35156 12.7335 9.19531 12.5108 9.96875 12.0655C10.7422 11.6202 11.3633 10.9991 11.832 10.2022C12.2773 9.40537 12.5 8.56162 12.5 7.671C12.5 6.78037 12.2773 5.93662 11.832 5.13975C11.3633 4.34287 10.7422 3.72178 9.96875 3.27647C9.19531 2.83115 8.35156 2.6085 7.4375 2.6085C6.52344 2.6085 5.67969 2.83115 4.90625 3.27647C4.13281 3.72178 3.51172 4.34287 3.04297 5.13975C2.59766 5.93662 2.375 6.78037 2.375 7.671C2.375 8.56162 2.59766 9.40537 3.04297 10.2022C3.51172 10.9991 4.13281 11.6202 4.90625 12.0655C5.67969 12.5108 6.52344 12.7335 7.4375 12.7335Z" fill="white"/>
</svg>
