<svg width="37" height="36" viewBox="0 0 37 36" fill="none" xmlns="http://www.w3.org/2000/svg">
<path d="M18.6014 0.0187531C18.9295 0.0187531 19.2342 0.0890656 19.5154 0.229691L32.8045 5.85469C33.6014 6.18282 34.2342 6.69844 34.7029 7.40157C35.2185 8.10469 35.4764 8.925 35.4764 9.8625C35.5232 12.2531 35.1248 15.0656 34.281 18.3C33.4373 21.5344 31.9139 24.675 29.7107 27.7219C27.5545 30.8156 24.4607 33.3703 20.4295 35.3859C19.2107 35.9484 17.992 35.9484 16.7732 35.3859C12.742 33.3703 9.64823 30.8156 7.49198 27.7219C5.28886 24.675 3.76542 21.5344 2.92167 18.3C2.07792 15.0656 1.67948 12.2531 1.72636 9.8625C1.72636 8.925 1.98417 8.10469 2.49979 7.40157C2.96854 6.69844 3.60136 6.18282 4.39823 5.85469L17.6873 0.229691C17.9685 0.0890656 18.2732 0.0187531 18.6014 0.0187531ZM18.6014 4.72969V31.3078C21.7889 29.6672 24.2967 27.5813 26.1248 25.05C27.906 22.5188 29.1717 19.9172 29.9217 17.2453C30.6248 14.5266 30.9764 12.0891 30.9764 9.93282L18.6014 4.72969Z" fill="white"/>
</svg>
