<svg width="18" height="19" viewBox="0 0 18 19" fill="none" xmlns="http://www.w3.org/2000/svg">
<path d="M8.80068 0.358498C8.96474 0.358498 9.11708 0.393654 9.25771 0.463966L15.9022 3.27647C16.3007 3.44053 16.6171 3.69834 16.8515 4.0499C17.1093 4.40147 17.2382 4.81162 17.2382 5.28037C17.2616 6.47569 17.0624 7.88194 16.6405 9.49912C16.2186 11.1163 15.4569 12.6866 14.3554 14.2101C13.2772 15.7569 11.7304 17.0343 9.71474 18.0421C9.10537 18.3233 8.49599 18.3233 7.88662 18.0421C5.87099 17.0343 4.32412 15.7569 3.24599 14.2101C2.14443 12.6866 1.38271 11.1163 0.960835 9.49912C0.53896 7.88194 0.339741 6.47569 0.363178 5.28037C0.363178 4.81162 0.492085 4.40147 0.749897 4.0499C0.984272 3.69834 1.30068 3.44053 1.69912 3.27647L8.34365 0.463966C8.48427 0.393654 8.63662 0.358498 8.80068 0.358498ZM8.80068 2.71397V16.003C10.3944 15.1827 11.6483 14.1397 12.5624 12.8741C13.453 11.6085 14.0858 10.3077 14.4608 8.97178C14.8124 7.6124 14.9882 6.39365 14.9882 5.31553L8.80068 2.71397Z" fill="white"/>
</svg>
