<svg width="37" height="37" viewBox="0 0 37 37" fill="none" xmlns="http://www.w3.org/2000/svg">
<path d="M6.90583 2.26875C6.90583 1.6125 7.11677 1.07344 7.53864 0.651566C7.96052 0.229691 8.49958 0.0187531 9.15583 0.0187531H27.1558C27.8121 0.0187531 28.3511 0.229691 28.773 0.651566C29.1949 1.07344 29.4058 1.6125 29.4058 2.26875C29.4058 2.925 29.1949 3.46407 28.773 3.88594C28.3511 4.30782 27.8121 4.51875 27.1558 4.51875H25.1168L25.8902 14.925C28.5621 16.3781 30.4136 18.6047 31.4449 21.6047L31.5152 21.8156C31.7496 22.5188 31.6558 23.1984 31.234 23.8547C30.7652 24.4641 30.1558 24.7688 29.4058 24.7688H6.90583C6.15583 24.7688 5.54646 24.4641 5.07771 23.8547C4.65583 23.1984 4.56208 22.5188 4.79646 21.8156L4.86677 21.6047C5.89802 18.6047 7.74958 16.3781 10.4215 14.925L11.2652 4.51875H9.15583C8.49958 4.51875 7.96052 4.30782 7.53864 3.88594C7.11677 3.46407 6.90583 2.925 6.90583 2.26875ZM15.9058 27.0188H20.4058V33.7688C20.4058 34.425 20.1949 34.9641 19.773 35.3859C19.3511 35.8078 18.8121 36.0188 18.1558 36.0188C17.4996 36.0188 16.9605 35.8078 16.5386 35.3859C16.1168 34.9641 15.9058 34.425 15.9058 33.7688V27.0188Z" fill="white"/>
</svg>
