<svg width="36" height="36" viewBox="0 0 36 36" fill="none" xmlns="http://www.w3.org/2000/svg">
<path d="M22.0078 33.6984C21.0703 33.8859 20.2266 33.7219 19.4766 33.2063C18.7266 32.6906 18.2578 31.9641 18.0703 31.0266L17.9297 30.2531C17.4141 27.8625 16.1953 25.8938 14.2734 24.3469L13.7812 23.925C12.1406 22.5656 11.2969 20.8078 11.25 18.6516V10.8469C11.2969 8.45625 12.3047 6.58125 14.2734 5.22188L16.9453 3.39375C18.0703 2.64375 19.3359 2.26875 20.7422 2.26875H27.5625C28.5 2.31563 29.2969 2.64375 29.9531 3.25313C30.5625 3.90938 30.8906 4.70625 30.9375 5.64375C30.9375 5.87813 30.9141 6.1125 30.8672 6.34688C32.3203 6.90938 33.0938 7.9875 33.1875 9.58125C33.1875 10.2375 33.0234 10.8234 32.6953 11.3391C33.4922 11.4797 34.1484 11.8547 34.6641 12.4641C35.1797 13.0734 35.4375 13.8 35.4375 14.6438C35.3906 15.7219 34.9688 16.5891 34.1719 17.2453C35.3438 17.9016 35.9531 18.9094 36 20.2688C35.9531 21.2063 35.625 22.0031 35.0156 22.6594C34.3594 23.2688 33.5625 23.5969 32.625 23.6438H22.5C23.4844 25.2844 24.1641 27.0422 24.5391 28.9172L24.6797 29.7609C24.8672 30.6984 24.7031 31.5422 24.1875 32.2922C23.6719 33.0422 22.9453 33.5109 22.0078 33.6984ZM2.25 27.0188C1.59375 27.0188 1.05469 26.8078 0.632812 26.3859C0.210938 25.9641 0 25.425 0 24.7688V9.01875C0 8.3625 0.210938 7.82344 0.632812 7.40157C1.05469 6.97969 1.59375 6.76875 2.25 6.76875H6.75C7.40625 6.76875 7.94531 6.97969 8.36719 7.40157C8.78906 7.82344 9 8.3625 9 9.01875V24.7688C9 25.425 8.78906 25.9641 8.36719 26.3859C7.94531 26.8078 7.40625 27.0188 6.75 27.0188H2.25Z" fill="white"/>
</svg>
