<svg width="37" height="36" viewBox="0 0 37 36" fill="none" xmlns="http://www.w3.org/2000/svg">
<path d="M22.9609 33.6984C22.0234 33.8859 21.1797 33.7219 20.4297 33.2063C19.6797 32.6906 19.2109 31.9641 19.0234 31.0266L18.8828 30.2531C18.3672 27.8625 17.1484 25.8938 15.2266 24.3469L14.7344 23.925C13.0938 22.5656 12.25 20.8078 12.2031 18.6516V10.8469C12.25 8.45625 13.2578 6.58125 15.2266 5.22188L17.8984 3.39375C19.0234 2.64375 20.2891 2.26875 21.6953 2.26875H28.5156C29.4531 2.31563 30.25 2.64375 30.9062 3.25313C31.5156 3.90938 31.8438 4.70625 31.8906 5.64375C31.8906 5.87813 31.8672 6.1125 31.8203 6.34688C33.2734 6.90938 34.0469 7.9875 34.1406 9.58125C34.1406 10.2375 33.9766 10.8234 33.6484 11.3391C34.4453 11.4797 35.1016 11.8547 35.6172 12.4641C36.1328 13.0734 36.3906 13.8 36.3906 14.6438C36.3438 15.7219 35.9219 16.5891 35.125 17.2453C36.2969 17.9016 36.9062 18.9094 36.9531 20.2688C36.9062 21.2063 36.5781 22.0031 35.9688 22.6594C35.3125 23.2688 34.5156 23.5969 33.5781 23.6438H23.4531C24.4375 25.2844 25.1172 27.0422 25.4922 28.9172L25.6328 29.7609C25.8203 30.6984 25.6562 31.5422 25.1406 32.2922C24.625 33.0422 23.8984 33.5109 22.9609 33.6984ZM3.20312 27.0188C2.54688 27.0188 2.00781 26.8078 1.58594 26.3859C1.16406 25.9641 0.953125 25.425 0.953125 24.7688V9.01875C0.953125 8.3625 1.16406 7.82344 1.58594 7.40157C2.00781 6.97969 2.54688 6.76875 3.20312 6.76875H7.70312C8.35938 6.76875 8.89844 6.97969 9.32031 7.40157C9.74219 7.82344 9.95312 8.3625 9.95312 9.01875V24.7688C9.95312 25.425 9.74219 25.9641 9.32031 26.3859C8.89844 26.8078 8.35938 27.0188 7.70312 27.0188H3.20312Z" fill="white"/>
</svg>
