<svg width="15" height="19" viewBox="0 0 15 19" fill="none" xmlns="http://www.w3.org/2000/svg">
<path d="M1.95292 1.4835C1.95292 1.15537 2.05838 0.885841 2.26932 0.674904C2.48026 0.463966 2.74979 0.358498 3.07792 0.358498H12.0779C12.406 0.358498 12.6756 0.463966 12.8865 0.674904C13.0974 0.885841 13.2029 1.15537 13.2029 1.4835C13.2029 1.81162 13.0974 2.08115 12.8865 2.29209C12.6756 2.50303 12.406 2.6085 12.0779 2.6085H11.0584L11.4451 7.81162C12.781 8.53819 13.7068 9.65147 14.2224 11.1515L14.2576 11.2569C14.3748 11.6085 14.3279 11.9483 14.117 12.2765C13.8826 12.5812 13.5779 12.7335 13.2029 12.7335H1.95292C1.57792 12.7335 1.27323 12.5812 1.03885 12.2765C0.827916 11.9483 0.781041 11.6085 0.898228 11.2569L0.933384 11.1515C1.44901 9.65147 2.37479 8.53819 3.71073 7.81162L4.1326 2.6085H3.07792C2.74979 2.6085 2.48026 2.50303 2.26932 2.29209C2.05838 2.08115 1.95292 1.81162 1.95292 1.4835ZM6.45292 13.8585H8.70292V17.2335C8.70292 17.5616 8.59745 17.8312 8.38651 18.0421C8.17557 18.253 7.90604 18.3585 7.57792 18.3585C7.24979 18.3585 6.98026 18.253 6.76932 18.0421C6.55838 17.8312 6.45292 17.5616 6.45292 17.2335V13.8585Z" fill="white"/>
</svg>
