<svg width="19" height="17" viewBox="0 0 19 17" fill="none" xmlns="http://www.w3.org/2000/svg">
<path d="M11.4805 16.1983C11.0117 16.2921 10.5898 16.2101 10.2148 15.9522C9.83984 15.6944 9.60547 15.3312 9.51172 14.8624L9.44141 14.4757C9.18359 13.2804 8.57422 12.296 7.61328 11.5226L7.36719 11.3116C6.54688 10.6319 6.125 9.75303 6.10156 8.6749V4.77256C6.125 3.57725 6.62891 2.63975 7.61328 1.96006L8.94922 1.046C9.51172 0.670998 10.1445 0.483498 10.8477 0.483498H14.2578C14.7266 0.506935 15.125 0.670998 15.4531 0.975685C15.7578 1.30381 15.9219 1.70225 15.9453 2.171C15.9453 2.28819 15.9336 2.40537 15.9102 2.52256C16.6367 2.80381 17.0234 3.34287 17.0703 4.13975C17.0703 4.46787 16.9883 4.76084 16.8242 5.01865C17.2227 5.08897 17.5508 5.27647 17.8086 5.58115C18.0664 5.88584 18.1953 6.24912 18.1953 6.671C18.1719 7.21006 17.9609 7.64365 17.5625 7.97178C18.1484 8.2999 18.4531 8.80381 18.4766 9.4835C18.4531 9.95225 18.2891 10.3507 17.9844 10.6788C17.6562 10.9835 17.2578 11.1476 16.7891 11.171H11.7266C12.2188 11.9913 12.5586 12.8702 12.7461 13.8077L12.8164 14.2296C12.9102 14.6983 12.8281 15.1202 12.5703 15.4952C12.3125 15.8702 11.9492 16.1046 11.4805 16.1983ZM1.60156 12.8585C1.27344 12.8585 1.00391 12.753 0.792969 12.5421C0.582031 12.3312 0.476562 12.0616 0.476562 11.7335V3.8585C0.476562 3.53037 0.582031 3.26084 0.792969 3.0499C1.00391 2.83897 1.27344 2.7335 1.60156 2.7335H3.85156C4.17969 2.7335 4.44922 2.83897 4.66016 3.0499C4.87109 3.26084 4.97656 3.53037 4.97656 3.8585V11.7335C4.97656 12.0616 4.87109 12.3312 4.66016 12.5421C4.44922 12.753 4.17969 12.8585 3.85156 12.8585H1.60156Z" fill="white"/>
</svg>
