<svg width="19" height="17" viewBox="0 0 19 17" fill="none" xmlns="http://www.w3.org/2000/svg">
<path d="M11.1562 0.518655C11.625 0.612405 11.9883 0.84678 12.2461 1.22178C12.5039 1.59678 12.5859 2.01866 12.4922 2.48741L12.4219 2.90928C12.2344 3.84678 11.8945 4.72569 11.4023 5.546H16.4648C16.9336 5.56944 17.332 5.7335 17.6602 6.03819C17.9648 6.36631 18.1289 6.76475 18.1523 7.2335C18.1289 7.91319 17.8242 8.41709 17.2383 8.74522C17.6367 9.07334 17.8477 9.50694 17.8711 10.046C17.8711 10.4679 17.7422 10.8312 17.4844 11.1358C17.2266 11.4405 16.8984 11.628 16.5 11.6983C16.6641 11.9562 16.7461 12.2491 16.7461 12.5772C16.6992 13.3741 16.3125 13.9132 15.5859 14.1944C15.6094 14.3116 15.6211 14.4288 15.6211 14.546C15.5977 15.0147 15.4336 15.4132 15.1289 15.7413C14.8008 16.046 14.4023 16.2101 13.9336 16.2335H10.5234C9.82031 16.2335 9.1875 16.046 8.625 15.671L7.28906 14.7569C6.30469 14.0772 5.80078 13.1397 5.77734 11.9444V8.04209C5.80078 6.96397 6.22266 6.08506 7.04297 5.40537L7.28906 5.19444C8.25 4.421 8.85938 3.43662 9.11719 2.24131L9.1875 1.85459C9.28125 1.38584 9.51562 1.02256 9.89062 0.764749C10.2656 0.506937 10.6875 0.424905 11.1562 0.518655ZM1.27734 6.1085H3.52734C3.85547 6.1085 4.125 6.21397 4.33594 6.42491C4.54688 6.63584 4.65234 6.90537 4.65234 7.2335V15.1085C4.65234 15.4366 4.54688 15.7062 4.33594 15.9171C4.125 16.128 3.85547 16.2335 3.52734 16.2335H1.27734C0.949219 16.2335 0.679688 16.128 0.46875 15.9171C0.257812 15.7062 0.152344 15.4366 0.152344 15.1085V7.2335C0.152344 6.90537 0.257812 6.63584 0.46875 6.42491C0.679688 6.21397 0.949219 6.1085 1.27734 6.1085Z" fill="white"/>
</svg>
