<svg width="37" height="37" viewBox="0 0 37 37" fill="none" xmlns="http://www.w3.org/2000/svg">
<path d="M12.5 1.28438C12.9219 0.487503 13.6016 0.0656281 14.5391 0.0187531H22.9766C23.9141 0.0656281 24.5938 0.487503 25.0156 1.28438L25.5078 2.26875H32.2578C32.9141 2.26875 33.4531 2.47969 33.875 2.90157C34.2969 3.32344 34.5078 3.8625 34.5078 4.51875C34.5078 5.175 34.2969 5.71407 33.875 6.13594C33.4531 6.55782 32.9141 6.76875 32.2578 6.76875H5.25781C4.60156 6.76875 4.0625 6.55782 3.64062 6.13594C3.21875 5.71407 3.00781 5.175 3.00781 4.51875C3.00781 3.8625 3.21875 3.32344 3.64062 2.90157C4.0625 2.47969 4.60156 2.26875 5.25781 2.26875H12.0078L12.5 1.28438ZM32.2578 9.01875L30.7812 32.8547C30.6875 33.7453 30.3359 34.4953 29.7266 35.1047C29.0703 35.7141 28.2969 36.0188 27.4062 36.0188H10.1094C9.21875 36.0188 8.44531 35.7141 7.78906 35.1047C7.17969 34.4953 6.82812 33.7453 6.73438 32.8547L5.25781 9.01875H32.2578Z" fill="white"/>
</svg>
