<svg width="16" height="19" viewBox="0 0 16 19" fill="none" xmlns="http://www.w3.org/2000/svg">
<path d="M4.75 0.99131C4.96094 0.592873 5.30078 0.381935 5.76953 0.358498H9.98828C10.457 0.381935 10.7969 0.592873 11.0078 0.99131L11.2539 1.4835H14.6289C14.957 1.4835 15.2266 1.58897 15.4375 1.7999C15.6484 2.01084 15.7539 2.28037 15.7539 2.6085C15.7539 2.93662 15.6484 3.20615 15.4375 3.41709C15.2266 3.62803 14.957 3.7335 14.6289 3.7335H1.12891C0.800781 3.7335 0.53125 3.62803 0.320312 3.41709C0.109375 3.20615 0.00390625 2.93662 0.00390625 2.6085C0.00390625 2.28037 0.109375 2.01084 0.320312 1.7999C0.53125 1.58897 0.800781 1.4835 1.12891 1.4835H4.50391L4.75 0.99131ZM14.6289 4.8585L13.8906 16.7765C13.8438 17.2218 13.668 17.5968 13.3633 17.9015C13.0352 18.2062 12.6484 18.3585 12.2031 18.3585H3.55469C3.10938 18.3585 2.72266 18.2062 2.39453 17.9015C2.08984 17.5968 1.91406 17.2218 1.86719 16.7765L1.12891 4.8585H14.6289Z" fill="white"/>
</svg>
