<svg width="46" height="37" viewBox="0 0 46 37" fill="none" xmlns="http://www.w3.org/2000/svg">
<path d="M15.8125 18.0188C14.1719 18.0188 12.6719 17.6203 11.3125 16.8234C9.95312 16.0266 8.85156 14.925 8.00781 13.5188C7.21094 12.1125 6.8125 10.6125 6.8125 9.01875C6.8125 7.425 7.21094 5.925 8.00781 4.51875C8.85156 3.1125 9.95312 2.01094 11.3125 1.21407C12.6719 0.417191 14.1719 0.0187531 15.8125 0.0187531C17.4531 0.0187531 18.9531 0.417191 20.3125 1.21407C21.6719 2.01094 22.7734 3.1125 23.6172 4.51875C24.4141 5.925 24.8125 7.425 24.8125 9.01875C24.8125 10.6125 24.4141 12.1125 23.6172 13.5188C22.7734 14.925 21.6719 16.0266 20.3125 16.8234C18.9531 17.6203 17.4531 18.0188 15.8125 18.0188ZM12.5781 21.3938H19.0469C22.5156 21.4875 25.4219 22.6594 27.7656 24.9094L24.8828 27.7219C24.3203 28.3313 23.9219 29.0344 23.6875 29.8313L22.6328 34.05C22.4922 34.7531 22.5391 35.4094 22.7734 36.0188H2.17188C1.5625 36.0188 1.07031 35.8078 0.695312 35.3859C0.273438 35.0109 0.0625 34.5188 0.0625 33.9094C0.15625 30.3938 1.375 27.4406 3.71875 25.05C6.10938 22.7063 9.0625 21.4875 12.5781 21.3938ZM43.2344 16.6125L44.2188 17.5969C44.7812 18.1594 45.0625 18.8156 45.0625 19.5656C45.0625 20.3156 44.7812 20.9953 44.2188 21.6047L42.1797 23.6438L37.1875 18.6516L39.2266 16.6125C39.8359 16.05 40.5156 15.7688 41.2656 15.7688C41.9688 15.7688 42.625 16.05 43.2344 16.6125ZM26.5 29.3391L35.5703 20.2688L40.5625 25.2609L31.4922 34.3313C31.2109 34.6125 30.8594 34.8 30.4375 34.8938L26.2188 35.9484C25.7969 36.0422 25.4453 35.9484 25.1641 35.6672C24.8828 35.3859 24.7891 35.0344 24.8828 34.6125L25.9375 30.3938C26.0312 29.9719 26.2188 29.6203 26.5 29.3391Z" fill="white"/>
</svg>
