<svg width="17" height="19" viewBox="0 0 17 19" fill="none" xmlns="http://www.w3.org/2000/svg">
<path d="M8.30469 9.3585C7.48438 9.3585 6.73438 9.15928 6.05469 8.76084C5.375 8.3624 4.82422 7.81162 4.40234 7.1085C4.00391 6.40537 3.80469 5.65537 3.80469 4.8585C3.80469 4.06162 4.00391 3.31162 4.40234 2.6085C4.82422 1.90537 5.375 1.35459 6.05469 0.956154C6.73438 0.557716 7.48438 0.358498 8.30469 0.358498C9.125 0.358498 9.875 0.557716 10.5547 0.956154C11.2344 1.35459 11.7852 1.90537 12.207 2.6085C12.6055 3.31162 12.8047 4.06162 12.8047 4.8585C12.8047 5.65537 12.6055 6.40537 12.207 7.1085C11.7852 7.81162 11.2344 8.3624 10.5547 8.76084C9.875 9.15928 9.125 9.3585 8.30469 9.3585ZM6.6875 11.046H9.92188C11.6797 11.0929 13.1562 11.7022 14.3516 12.8741C15.5234 14.0694 16.1328 15.546 16.1797 17.3038C16.1797 17.6085 16.0742 17.8546 15.8633 18.0421C15.6758 18.253 15.4297 18.3585 15.125 18.3585H1.48438C1.17969 18.3585 0.933594 18.253 0.746094 18.0421C0.535156 17.8546 0.429688 17.6085 0.429688 17.3038C0.476562 15.546 1.08594 14.0694 2.25781 12.8741C3.45312 11.7022 4.92969 11.0929 6.6875 11.046Z" fill="white"/>
</svg>
