<svg width="24" height="19" viewBox="0 0 24 19" fill="none" xmlns="http://www.w3.org/2000/svg">
<path d="M4.23047 4.8585C4.23047 4.03819 4.42969 3.28819 4.82812 2.6085C5.22656 1.92881 5.77734 1.37803 6.48047 0.956154C7.18359 0.557716 7.93359 0.358498 8.73047 0.358498C9.52734 0.358498 10.2773 0.557716 10.9805 0.956154C11.6836 1.37803 12.2344 1.92881 12.6328 2.6085C13.0312 3.28819 13.2305 4.03819 13.2305 4.8585C13.2305 5.67881 13.0312 6.42881 12.6328 7.1085C12.2344 7.78819 11.6836 8.33897 10.9805 8.76084C10.2773 9.15928 9.52734 9.3585 8.73047 9.3585C7.93359 9.3585 7.18359 9.15928 6.48047 8.76084C5.77734 8.33897 5.22656 7.78819 4.82812 7.1085C4.42969 6.42881 4.23047 5.67881 4.23047 4.8585ZM0.855469 17.3038C0.902344 15.546 1.51172 14.0694 2.68359 12.8741C3.87891 11.7022 5.35547 11.0929 7.11328 11.046H10.3477C12.1055 11.0929 13.582 11.7022 14.7773 12.8741C15.9492 14.0694 16.5586 15.546 16.6055 17.3038C16.6055 17.6085 16.5 17.8546 16.2891 18.0421C16.1016 18.253 15.8555 18.3585 15.5508 18.3585H1.91016C1.60547 18.3585 1.35938 18.253 1.17188 18.0421C0.960938 17.8546 0.855469 17.6085 0.855469 17.3038ZM22.2656 18.3585H17.4492C17.6367 18.0304 17.7305 17.6554 17.7305 17.2335V16.9522C17.7305 15.8741 17.5078 14.878 17.0625 13.964C16.6406 13.0499 16.043 12.2647 15.2695 11.6085C15.2695 11.6085 15.2812 11.6085 15.3047 11.6085C15.375 11.6085 15.4453 11.6085 15.5156 11.6085H17.6953C19.2891 11.6554 20.625 12.2062 21.7031 13.2608C22.7578 14.339 23.3086 15.6749 23.3555 17.2687C23.3555 17.5733 23.25 17.8312 23.0391 18.0421C22.8281 18.253 22.5703 18.3585 22.2656 18.3585ZM16.043 9.3585C14.918 9.33506 13.9922 8.94834 13.2656 8.19834C13.9688 7.2374 14.332 6.12412 14.3555 4.8585C14.3555 3.89756 14.1445 3.03037 13.7227 2.25694C14.3789 1.76475 15.1523 1.50694 16.043 1.4835C17.168 1.50694 18.0938 1.89365 18.8203 2.64365C19.5703 3.37022 19.957 4.296 19.9805 5.421C19.957 6.546 19.5703 7.47178 18.8203 8.19834C18.0938 8.94834 17.168 9.33506 16.043 9.3585Z" fill="white"/>
</svg>
