<svg width="23" height="19" viewBox="0 0 23 19" fill="none" xmlns="http://www.w3.org/2000/svg">
<path d="M7.90625 9.3585C7.08594 9.3585 6.33594 9.15928 5.65625 8.76084C4.97656 8.3624 4.42578 7.81162 4.00391 7.1085C3.60547 6.40537 3.40625 5.65537 3.40625 4.8585C3.40625 4.06162 3.60547 3.31162 4.00391 2.6085C4.42578 1.90537 4.97656 1.35459 5.65625 0.956154C6.33594 0.557716 7.08594 0.358498 7.90625 0.358498C8.72656 0.358498 9.47656 0.557716 10.1562 0.956154C10.8359 1.35459 11.3867 1.90537 11.8086 2.6085C12.207 3.31162 12.4062 4.06162 12.4062 4.8585C12.4062 5.65537 12.207 6.40537 11.8086 7.1085C11.3867 7.81162 10.8359 8.3624 10.1562 8.76084C9.47656 9.15928 8.72656 9.3585 7.90625 9.3585ZM6.28906 11.046H9.52344C11.2578 11.0929 12.7109 11.6788 13.8828 12.8038L12.4414 14.2101C12.1602 14.5147 11.9609 14.8663 11.8438 15.2647L11.3164 17.3741C11.2461 17.7257 11.2695 18.0538 11.3867 18.3585H1.08594C0.78125 18.3585 0.535156 18.253 0.347656 18.0421C0.136719 17.8546 0.03125 17.6085 0.03125 17.3038C0.078125 15.546 0.6875 14.0694 1.85938 12.8741C3.05469 11.7022 4.53125 11.0929 6.28906 11.046ZM21.6172 8.65537L22.1094 9.14756C22.3906 9.42881 22.5312 9.75694 22.5312 10.1319C22.5312 10.5069 22.3906 10.8468 22.1094 11.1515L21.0898 12.171L18.5938 9.6749L19.6133 8.65537C19.918 8.37412 20.2578 8.2335 20.6328 8.2335C20.9844 8.2335 21.3125 8.37412 21.6172 8.65537ZM13.25 15.0187L17.7852 10.4835L20.2812 12.9796L15.7461 17.5147C15.6055 17.6554 15.4297 17.7491 15.2188 17.796L13.1094 18.3233C12.8984 18.3702 12.7227 18.3233 12.582 18.1827C12.4414 18.0421 12.3945 17.8663 12.4414 17.6554L12.9688 15.546C13.0156 15.3351 13.1094 15.1593 13.25 15.0187Z" fill="white"/>
</svg>
