<svg width="45" height="36" viewBox="0 0 45 36" fill="none" xmlns="http://www.w3.org/2000/svg">
<path d="M6.75 9C6.75 7.35938 7.14844 5.85938 7.94531 4.5C8.74219 3.14062 9.84375 2.03906 11.25 1.19531C12.6562 0.398438 14.1562 0 15.75 0C17.3438 0 18.8438 0.398438 20.25 1.19531C21.6562 2.03906 22.7578 3.14062 23.5547 4.5C24.3516 5.85938 24.75 7.35938 24.75 9C24.75 10.6406 24.3516 12.1406 23.5547 13.5C22.7578 14.8594 21.6562 15.9609 20.25 16.8047C18.8438 17.6016 17.3438 18 15.75 18C14.1562 18 12.6562 17.6016 11.25 16.8047C9.84375 15.9609 8.74219 14.8594 7.94531 13.5C7.14844 12.1406 6.75 10.6406 6.75 9ZM0 33.8906C0.09375 30.375 1.3125 27.4219 3.65625 25.0312C6.04688 22.6875 9 21.4688 12.5156 21.375H18.9844C22.5 21.4688 25.4531 22.6875 27.8438 25.0312C30.1875 27.4219 31.4062 30.375 31.5 33.8906C31.5 34.5 31.2891 34.9922 30.8672 35.3672C30.4922 35.7891 30 36 29.3906 36H2.10938C1.5 36 1.00781 35.7891 0.632812 35.3672C0.210938 34.9922 0 34.5 0 33.8906ZM42.8203 36H33.1875C33.5625 35.3438 33.75 34.5938 33.75 33.75V33.1875C33.75 31.0312 33.3047 29.0391 32.4141 27.2109C31.5703 25.3828 30.375 23.8125 28.8281 22.5C28.8281 22.5 28.8516 22.5 28.8984 22.5C29.0391 22.5 29.1797 22.5 29.3203 22.5H33.6797C36.8672 22.5938 39.5391 23.6953 41.6953 25.8047C43.8047 27.9609 44.9062 30.6328 45 33.8203C45 34.4297 44.7891 34.9453 44.3672 35.3672C43.9453 35.7891 43.4297 36 42.8203 36ZM30.375 18C28.125 17.9531 26.2734 17.1797 24.8203 15.6797C26.2266 13.7578 26.9531 11.5312 27 9C27 7.07812 26.5781 5.34375 25.7344 3.79688C27.0469 2.8125 28.5938 2.29688 30.375 2.25C32.625 2.29688 34.4766 3.07031 35.9297 4.57031C37.4297 6.02344 38.2031 7.875 38.25 10.125C38.2031 12.375 37.4297 14.2266 35.9297 15.6797C34.4766 17.1797 32.625 17.9531 30.375 18Z" fill="white"/>
</svg>
