<svg width="36" height="37" viewBox="0 0 36 37" fill="none" xmlns="http://www.w3.org/2000/svg">
<path d="M18.6094 18.0188C16.9688 18.0188 15.4688 17.6203 14.1094 16.8234C12.75 16.0266 11.6484 14.925 10.8047 13.5188C10.0078 12.1125 9.60938 10.6125 9.60938 9.01875C9.60938 7.425 10.0078 5.925 10.8047 4.51875C11.6484 3.1125 12.75 2.01094 14.1094 1.21407C15.4688 0.417191 16.9688 0.0187531 18.6094 0.0187531C20.25 0.0187531 21.75 0.417191 23.1094 1.21407C24.4688 2.01094 25.5703 3.1125 26.4141 4.51875C27.2109 5.925 27.6094 7.425 27.6094 9.01875C27.6094 10.6125 27.2109 12.1125 26.4141 13.5188C25.5703 14.925 24.4688 16.0266 23.1094 16.8234C21.75 17.6203 20.25 18.0188 18.6094 18.0188ZM15.375 21.3938H21.8438C25.3594 21.4875 28.3125 22.7063 30.7031 25.05C33.0469 27.4406 34.2656 30.3938 34.3594 33.9094C34.3594 34.5188 34.1484 35.0109 33.7266 35.3859C33.3516 35.8078 32.8594 36.0188 32.25 36.0188H4.96875C4.35938 36.0188 3.86719 35.8078 3.49219 35.3859C3.07031 35.0109 2.85938 34.5188 2.85938 33.9094C2.95312 30.3938 4.17188 27.4406 6.51562 25.05C8.90625 22.7063 11.8594 21.4875 15.375 21.3938Z" fill="white"/>
</svg>
