<svg width="36" height="36" viewBox="0 0 36 36" fill="none" xmlns="http://www.w3.org/2000/svg">
<path d="M18.6094 18C16.9688 18 15.4688 17.6016 14.1094 16.8047C12.75 16.0078 11.6484 14.9062 10.8047 13.5C10.0078 12.0938 9.60938 10.5938 9.60938 9C9.60938 7.40625 10.0078 5.90625 10.8047 4.5C11.6484 3.09375 12.75 1.99219 14.1094 1.19531C15.4688 0.398438 16.9688 0 18.6094 0C20.25 0 21.75 0.398438 23.1094 1.19531C24.4688 1.99219 25.5703 3.09375 26.4141 4.5C27.2109 5.90625 27.6094 7.40625 27.6094 9C27.6094 10.5938 27.2109 12.0938 26.4141 13.5C25.5703 14.9062 24.4688 16.0078 23.1094 16.8047C21.75 17.6016 20.25 18 18.6094 18ZM15.375 21.375H21.8438C25.3594 21.4688 28.3125 22.6875 30.7031 25.0312C33.0469 27.4219 34.2656 30.375 34.3594 33.8906C34.3594 34.5 34.1484 34.9922 33.7266 35.3672C33.3516 35.7891 32.8594 36 32.25 36H4.96875C4.35938 36 3.86719 35.7891 3.49219 35.3672C3.07031 34.9922 2.85938 34.5 2.85938 33.8906C2.95312 30.375 4.17188 27.4219 6.51562 25.0312C8.90625 22.6875 11.8594 21.4688 15.375 21.375Z" fill="white"/>
</svg>
