<svg width="37" height="36" viewBox="0 0 37 36" fill="none" xmlns="http://www.w3.org/2000/svg">
<path d="M30.0469 2.90157C30.5156 2.47969 31.0547 2.26875 31.6641 2.26875C32.2734 2.26875 32.8125 2.47969 33.2812 2.90157C33.7031 3.37032 33.9141 3.90938 33.9141 4.51875C33.9141 5.12813 33.7031 5.66719 33.2812 6.13594L21.3281 18.0188L33.2812 29.9016C33.7031 30.3703 33.9141 30.9094 33.9141 31.5188C33.9141 32.1281 33.7031 32.6672 33.2812 33.1359C32.8125 33.5578 32.2734 33.7688 31.6641 33.7688C31.0547 33.7688 30.5156 33.5578 30.0469 33.1359L18.1641 21.1828L6.28125 33.1359C5.8125 33.5578 5.27344 33.7688 4.66406 33.7688C4.05469 33.7688 3.51562 33.5578 3.04688 33.1359C2.625 32.6672 2.41406 32.1281 2.41406 31.5188C2.41406 30.9094 2.625 30.3703 3.04688 29.9016L15 18.0188L3.04688 6.13594C2.625 5.66719 2.41406 5.12813 2.41406 4.51875C2.41406 3.90938 2.625 3.37032 3.04688 2.90157C3.51562 2.47969 4.05469 2.26875 4.66406 2.26875C5.27344 2.26875 5.8125 2.47969 6.28125 2.90157L18.1641 14.8547L30.0469 2.90157Z" fill="white"/>
</svg>
