<svg width="16" height="17" viewBox="0 0 16 17" fill="none" xmlns="http://www.w3.org/2000/svg">
<path d="M14.0234 0.799904C14.2578 0.588966 14.5273 0.483498 14.832 0.483498C15.1367 0.483498 15.4062 0.588966 15.6406 0.799904C15.8516 1.03428 15.957 1.30381 15.957 1.6085C15.957 1.91319 15.8516 2.18272 15.6406 2.41709L9.66406 8.3585L15.6406 14.2999C15.8516 14.5343 15.957 14.8038 15.957 15.1085C15.957 15.4132 15.8516 15.6827 15.6406 15.9171C15.4062 16.128 15.1367 16.2335 14.832 16.2335C14.5273 16.2335 14.2578 16.128 14.0234 15.9171L8.08203 9.94053L2.14062 15.9171C1.90625 16.128 1.63672 16.2335 1.33203 16.2335C1.02734 16.2335 0.757812 16.128 0.523438 15.9171C0.3125 15.6827 0.207031 15.4132 0.207031 15.1085C0.207031 14.8038 0.3125 14.5343 0.523438 14.2999L6.5 8.3585L0.523438 2.41709C0.3125 2.18272 0.207031 1.91319 0.207031 1.6085C0.207031 1.30381 0.3125 1.03428 0.523438 0.799904C0.757812 0.588966 1.02734 0.483498 1.33203 0.483498C1.63672 0.483498 1.90625 0.588966 2.14062 0.799904L8.08203 6.77647L14.0234 0.799904Z" fill="white"/>
</svg>
