{
	"asset": {
		"generator": "Khronos glTF Blender I/O v1.8.19",
		"version": "2.0"
	},
	"scene": 0,
	"scenes": [
		{
			"name": "Scene",
			"nodes": [0]
		}
	],
	"nodes": [
		{
			"mesh": 0,
			"name": "Text",
			"rotation": [0.7071067690849304, 0, 0, 0.7071068286895752],
			"translation": [-0.031203746795654297, 16.19702911376953, 0]
		}
	],
	"materials": [
		{
			"doubleSided": true,
			"name": "Material.001",
			"pbrMetallicRoughness": {
				"baseColorFactor": [0.3142859935760498, 0.3142859935760498, 0.3142859935760498, 1],
				"metallicFactor": 0.5,
				"roughnessFactor": 0
			}
		}
	],
	"meshes": [
		{
			"name": "Text.001",
			"primitives": [
				{
					"attributes": {
						"POSITION": 0,
						"NORMAL": 1,
						"TEXCOORD_0": 2
					},
					"indices": 3,
					"material": 0
				}
			]
		}
	],
	"accessors": [
		{
			"bufferView": 0,
			"componentType": 5126,
			"count": 1461,
			"max": [23.413114547729492, 5, 53.17377853393555],
			"min": [-23.465139389038086, -5, -38.34547424316406],
			"type": "VEC3"
		},
		{
			"bufferView": 1,
			"componentType": 5126,
			"count": 1461,
			"type": "VEC3"
		},
		{
			"bufferView": 2,
			"componentType": 5126,
			"count": 1461,
			"type": "VEC2"
		},
		{
			"bufferView": 3,
			"componentType": 5123,
			"count": 3612,
			"type": "SCALAR"
		}
	],
	"bufferViews": [
		{
			"buffer": 0,
			"byteLength": 17532,
			"byteOffset": 0
		},
		{
			"buffer": 0,
			"byteLength": 17532,
			"byteOffset": 17532
		},
		{
			"buffer": 0,
			"byteLength": 11688,
			"byteOffset": 35064
		},
		{
			"buffer": 0,
			"byteLength": 7224,
			"byteOffset": 46752
		}
	],
	"buffers": [
		{
			"byteLength": 53976,
			"uri": "data:application/octet-stream;base64,"
		}
	]
}
