{
	"asset": {
		"generator": "Khronos glTF Blender I/O v1.8.19",
		"version": "2.0"
	},
	"scene": 0,
	"scenes": [
		{
			"name": "Scene",
			"nodes": [0]
		}
	],
	"nodes": [
		{
			"mesh": 0,
			"name": "rock",
			"rotation": [0.7071068286895752, 0, 0, 0.7071067094802856],
			"scale": [10, 10, 10]
		}
	],
	"materials": [
		{
			"alphaMode": "BLEND",
			"doubleSided": true,
			"name": "Meshpart1Mtl",
			"pbrMetallicRoughness": {
				"baseColorTexture": {
					"index": 0
				},
				"metallicFactor": 0
			}
		}
	],
	"meshes": [
		{
			"name": "rock",
			"primitives": [
				{
					"attributes": {
						"POSITION": 0,
						"NORMAL": 1,
						"TEXCOORD_0": 2
					},
					"indices": 3,
					"material": 0
				}
			]
		}
	],
	"textures": [
		{
			"sampler": 0,
			"source": 0
		}
	],
	"images": [
		{
			"bufferView": 4,
			"mimeType": "image/png",
			"name": "Meshpart1_diff"
		}
	],
	"accessors": [
		{
			"bufferView": 0,
			"componentType": 5126,
			"count": 310,
			"max": [5.1913957595825195, 4.952653884887695, 5.007988929748535],
			"min": [-4.808625221252441, -5.047346115112305, -4.992011070251465],
			"type": "VEC3"
		},
		{
			"bufferView": 1,
			"componentType": 5126,
			"count": 310,
			"type": "VEC3"
		},
		{
			"bufferView": 2,
			"componentType": 5126,
			"count": 310,
			"type": "VEC2"
		},
		{
			"bufferView": 3,
			"componentType": 5123,
			"count": 732,
			"type": "SCALAR"
		}
	],
	"bufferViews": [
		{
			"buffer": 0,
			"byteLength": 3720,
			"byteOffset": 0
		},
		{
			"buffer": 0,
			"byteLength": 3720,
			"byteOffset": 3720
		},
		{
			"buffer": 0,
			"byteLength": 2480,
			"byteOffset": 7440
		},
		{
			"buffer": 0,
			"byteLength": 1464,
			"byteOffset": 9920
		},
		{
			"buffer": 0,
			"byteLength": 66453,
			"byteOffset": 11384
		}
	],
	"samplers": [
		{
			"magFilter": 9729,
			"minFilter": 9987
		}
	],
	"buffers": [
		{
			"byteLength": 77840,
			"uri": "data:application/octet-stream;base64,"
		}
	]
}
