# Blender v3.1.2 OBJ File: 'roblox_.blend'
# www.blender.org
mtllib limb.mtl
o Model4
v -0.41 0.93 0.47
v -0.41 -0.93 0.47
v 0.45 -0.93 0.47
v 0.45 0.93 0.47
v -0.41 0.99 0.41
v -0.47 0.93 0.41
v -0.47 -0.93 0.41
v -0.41 -0.99 0.41
v 0.45 -0.99 0.41
v 0.52 -0.93 0.41
v 0.52 0.93 0.41
v 0.45 0.99 0.41
v -0.41 0.99 0.41
v -0.41 0.99 -0.45
v -0.47 0.93 -0.45
v -0.47 0.93 0.41
v -0.47 -0.93 -0.45
v -0.47 -0.93 0.41
v -0.41 -0.99 -0.45
v -0.41 -0.99 0.41
v -0.41 -0.99 0.41
v -0.41 -0.99 -0.45
v 0.45 -0.99 -0.45
v 0.45 -0.99 0.41
v 0.45 -0.99 0.41
v 0.45 -0.99 -0.45
v 0.52 -0.93 -0.45
v 0.52 0.93 -0.45
v 0.45 0.99 -0.45
v 0.45 0.99 0.41
v 0.45 0.99 0.41
v 0.45 0.99 -0.45
v -0.41 0.99 -0.45
v -0.41 0.99 0.41
v -0.41 0.99 -0.45
v -0.41 0.93 -0.52
v -0.41 -0.93 -0.52
v -0.41 -0.99 -0.45
v 0.45 -0.93 -0.52
v 0.45 -0.99 -0.45
v 0.45 0.93 -0.52
v 0.45 0.99 -0.45
vt 0.55 0.87
vt 0.46 0.87
vt 0.46 0.75
vt 0.55 0.75
vt 0.55 0.87
vt 0.55 0.87
vt 0.46 0.87
vt 0.46 0.87
vt 0.46 0.75
vt 0.46 0.74
vt 0.55 0.74
vt 0.55 0.75
vt 0.55 0.37
vt 0.55 0.49
vt 0.55 0.49
vt 0.55 0.37
vt 0.46 0.49
vt 0.46 0.37
vt 0.46 0.49
vt 0.46 0.37
vt 0.49 0.23
vt 0.49 0.35
vt 0.45 0.35
vt 0.45 0.23
vt 0.46 0.74
vt 0.46 0.62
vt 0.46 0.62
vt 0.55 0.62
vt 0.55 0.62
vt 0.55 0.74
vt 0.34 0.35
vt 0.34 0.23
vt 0.39 0.23
vt 0.39 0.35
vt 0.55 0.50
vt 0.55 0.50
vt 0.46 0.50
vt 0.46 0.50
vt 0.46 0.62
vt 0.46 0.62
vt 0.55 0.62
vt 0.55 0.62
vn -0 -0 1
vn 0 1 0
vn -1 -0 0
vn 0 -1 0
vn 1 -0 0
vn -1 -0 0
vn 0 -0 -1
usemtl b0b0b0
s 1
f 1/1/1 2/2/1 3/3/1
f 1/1/1 3/3/1 4/4/1
f 1/1/1 5/5/2 6/6/3
f 1/1/1 6/6/3 7/7/3
f 1/1/1 7/7/3 2/2/1
f 2/2/1 7/7/3 8/8/4
f 2/2/1 8/8/4 9/9/4
f 2/2/1 9/9/4 3/3/1
f 3/3/1 9/9/4 10/10/5
f 3/3/1 10/10/5 11/11/5
f 3/3/1 11/11/5 4/4/1
f 4/4/1 11/11/5 12/12/2
f 4/4/1 12/12/2 5/5/2
f 4/4/1 5/5/2 1/1/1
f 13/13/2 14/14/2 15/15/3
f 13/13/2 15/15/3 16/16/6
f 16/16/6 15/15/3 17/17/3
f 16/16/6 17/17/3 18/18/3
f 18/18/3 17/17/3 19/19/4
f 18/18/3 19/19/4 20/20/4
f 21/21/4 22/22/4 23/23/4
f 21/21/4 23/23/4 24/24/4
f 25/25/4 26/26/4 27/27/5
f 25/25/4 27/27/5 10/10/5
f 10/10/5 27/27/5 28/28/5
f 10/10/5 28/28/5 11/11/5
f 11/11/5 28/28/5 29/29/2
f 11/11/5 29/29/2 30/30/2
f 31/31/2 32/32/2 33/33/2
f 31/31/2 33/33/2 34/34/2
f 35/35/2 36/36/7 15/15/3
f 15/15/3 36/36/7 37/37/7
f 15/15/3 37/37/7 17/17/3
f 17/17/3 37/37/7 38/38/4
f 38/38/4 37/37/7 39/39/7
f 38/38/4 39/39/7 40/40/4
f 40/40/4 39/39/7 27/27/5
f 27/27/5 39/39/7 41/41/7
f 27/27/5 41/41/7 28/28/5
f 28/28/5 41/41/7 42/42/2
f 42/42/2 41/41/7 36/36/7
f 42/42/2 36/36/7 35/35/2
f 41/41/7 39/39/7 37/37/7
f 41/41/7 37/37/7 36/36/7
