# Blender v3.1.2 OBJ File: 'roblox_.blend'
# www.blender.org
o Model8_Model8.001
v -0.92  0.93  0.50 
v -0.92  -0.93  0.50 
v 0.94  -0.93  0.50 
v 0.94  0.93  0.50 
v -0.92  1 0.44 
v -1  0.93  0.44 
v -1  -0.93  0.44 
v -0.92  -1 0.44 
v 0.94  -1 0.44 
v 1 -0.93  0.44 
v 1 0.93  0.44 
v 0.94  1 0.44 
v -0.92  1 0.44 
v -0.92  1 -0.42 
v -1  0.93  -0.42 
v -1  -0.93  -0.42 
v -0.92  -1 -0.42 
v -0.92  -1 0.44 
v -0.92  -1 0.44 
v -0.92  -1 -0.42 
v 0.94  -1 -0.42 
v 0.94  -1 0.44 
v 0.94  -1 0.44 
v 0.94  -1 -0.42 
v 1 -0.93  -0.42 
v 1 -0.93  0.44 
v 1 0.93  -0.42 
v 1 0.93  0.44 
v 0.94  1 -0.42 
v 0.94  1 0.44 
v 0.94  1 0.44 
v 0.94  1 -0.42 
v -0.92  1 -0.42 
v -0.92  1 0.44 
v -0.92  1 -0.42 
v -0.92  0.93  -0.49 
v -0.92  -0.93  -0.49 
v -0.92  -1 -0.42 
v 0.94  -0.93  -0.49 
v 0.94  -1 -0.42 
v 0.94  0.93  -0.49 
v 0.94  1 -0.42 
vn -0 -0 1.0
vn 0 1.0 0 
vn -1.0 0 0 
vn 0 -1.0 0 
vn 1.0 0 0 
vn 1.0 0 -0 
vn 0 0 -1.0
s 1
f 1//1 2//1 3//1
f 1//1 3//1 4//1
f 1//1 5//2 6//3
f 1//1 6//3 7//3
f 1//1 7//3 2//1
f 2//1 7//3 8//4
f 2//1 8//4 9//4
f 2//1 9//4 3//1
f 3//1 9//4 10//5
f 3//1 10//5 11//5
f 3//1 11//5 4//1
f 4//1 11//5 12//2
f 4//1 12//2 5//2
f 4//1 5//2 1//1
f 13//2 14//2 15//3
f 13//2 15//3 6//3
f 6//3 15//3 16//3
f 6//3 16//3 7//3
f 7//3 16//3 17//4
f 7//3 17//4 18//4
f 19//4 20//4 21//4
f 19//4 21//4 22//4
f 23//4 24//4 25//5
f 23//4 25//5 26//6
f 26//6 25//5 27//5
f 26//6 27//5 28//5
f 28//5 27//5 29//2
f 28//5 29//2 30//2
f 31//2 32//2 33//2
f 31//2 33//2 34//2
f 35//2 36//7 15//3
f 15//3 36//7 37//7
f 15//3 37//7 16//3
f 16//3 37//7 38//4
f 38//4 37//7 39//7
f 38//4 39//7 40//4
f 40//4 39//7 25//5
f 25//5 39//7 41//7
f 25//5 41//7 27//5
f 27//5 41//7 42//2
f 42//2 41//7 36//7
f 42//2 36//7 35//2
f 41//7 39//7 37//7
f 41//7 37//7 36//7
